<svg width="50" height="50" viewBox="0 0 50 50" fill="none" xmlns="http://www.w3.org/2000/svg">
<rect width="50" height="50" fill="#EBBCEA"/>
<path d="M41.4763 20.3366C40.3516 18.5878 38.5884 17.504 36.595 17.2126C35.628 17.0721 33.5131 17.3132 32.6108 17.7028C32.5798 17.716 32.4169 17.8114 32.4143 17.8247C32.7608 18.5242 33.3296 19.2502 33.9397 19.7325C34.8162 20.4267 35.5737 20.4903 36.6415 20.4453C36.8561 20.4373 36.8432 20.546 36.6648 20.591C35.2221 20.9567 33.857 20.4585 32.8616 19.3774C31.6645 18.079 31.331 16.4017 29.9349 15.1961C25.8964 11.7116 17.6127 12.1647 15.9476 18.0658C15.6296 19.1946 15.6581 21.2508 15.9476 22.3849C15.9683 22.4644 16.1597 22.899 16.1312 22.9255C16.0847 22.9202 16.0433 22.952 16.0149 22.899C15.9968 22.8645 15.9373 22.6817 15.914 22.6155C15.5004 21.5105 15.3763 20.1008 15.3995 18.919C15.4021 18.7759 15.5288 18.5507 15.3039 18.5083C15.1177 18.4712 14.6317 18.495 14.4171 18.5056C9.77361 18.7097 6.31429 22.5254 7.11577 27.3294C7.72594 30.9808 10.7819 32.894 14.143 33.2676C14.2335 33.2782 14.6394 33.2888 14.6653 33.2067C14.7015 33.0901 14.6653 32.5151 14.6653 32.3402C14.6653 32.205 14.2619 32.3534 14.1844 32.3587C13.0959 32.4462 12.2194 32.1176 11.586 31.1955C11.5007 31.0709 11.3352 30.8271 11.3533 30.6841C11.374 30.533 11.5136 30.7742 11.524 30.7848C11.873 31.1107 12.2479 31.471 12.7003 31.63C13.1967 31.8049 13.644 31.8129 14.1482 31.7307C14.28 31.7095 14.5515 31.7784 14.6317 31.6724C14.6808 31.6088 14.6859 30.9517 14.6653 30.8404C14.6549 30.7874 14.6368 30.7477 14.5903 30.7212C13.3286 30.4509 12.2272 29.7619 11.555 28.6225C11.1542 27.9415 10.8647 26.8922 10.7793 26.1026C10.7612 25.9409 10.7845 25.774 10.7768 25.6124H10.8931C10.8879 25.7025 10.9009 25.7899 10.9241 25.8747C11.118 26.5769 11.3197 27.2844 11.6868 27.9336C12.3435 29.0942 13.5432 29.9713 14.8385 30.1886C16.669 29.1684 18.6365 28.437 20.6635 27.9495C20.8134 27.9124 21.3538 27.9415 21.284 27.6554C21.2659 27.5812 21.1521 27.4778 21.1082 27.3983C20.6557 26.5212 20.3015 25.3315 20.3662 24.3325C20.3791 24.1205 20.4748 23.9033 20.4437 23.6807H20.5601C20.5601 23.7628 20.5523 23.8476 20.5704 23.9271C20.9194 25.6548 21.3771 27.1439 22.5664 28.5006C25.294 31.6115 29.1463 32.4462 32.8771 30.8695C35.5556 29.7381 36.3028 28.2304 37.2077 25.5249C37.2258 25.4719 37.2672 25.3076 37.3499 25.3368C37.3499 25.4348 37.3525 25.5302 37.3448 25.6283C37.1922 27.3824 36.4088 29.1657 35.0489 30.3051C34.9713 30.3714 34.5008 30.6655 34.5008 30.7212V31.3333C34.749 31.3571 34.961 31.3174 35.1937 31.2352C35.8245 31.0126 36.5381 30.5251 36.9026 29.9474C36.9492 29.8732 37.05 29.489 37.156 29.5976C37.1276 30.1223 36.8535 30.6576 36.5045 31.0391C36.1891 31.381 35.853 31.5717 35.4315 31.7572L34.5344 31.9825C34.3767 32.4329 34.6068 32.4435 34.9817 32.4011C36.6829 32.2103 38.6452 31.5055 40.0052 30.4085C43.012 27.9839 43.5602 23.5853 41.4763 20.3393V20.3366Z" fill="#095BDC"/>
<path d="M33.7199 31.1056C33.4639 31.1665 33.0115 31.4527 32.7348 31.5587C29.8779 32.6398 26.7598 32.3881 24.1821 30.6763C23.2152 30.0351 22.6645 29.3753 21.8837 28.5538C21.832 28.4982 21.8061 28.4055 21.726 28.3816C21.6484 28.3578 21.4364 28.3631 21.3511 28.3763C19.6861 28.6095 17.1187 29.5661 15.6166 30.3901C15.4537 30.4802 15.1977 30.5677 15.2055 30.7956L15.2158 36.9033C15.2262 36.9351 15.2546 36.9775 15.2856 36.9934C15.4123 37.0544 16.0173 36.6728 16.175 36.6012C16.7671 36.331 17.4471 36.0368 18.034 35.8222C20.0842 35.0723 22.2043 34.6616 24.3916 34.5636C25.4257 34.5185 26.659 34.6722 27.6699 34.8365C29.5599 35.1439 31.3309 35.7586 33.0709 36.6012C33.2364 36.6807 33.6785 36.9802 33.8259 36.9749C33.8672 36.9749 33.9189 36.9722 33.9448 36.9325L33.9267 31.1109C33.8595 31.0764 33.7923 31.087 33.7225 31.1056H33.7199Z" fill="#095BDC"/>
</svg>
