<svg width="40" height="40" viewBox="0 0 40 40" fill="none" xmlns="http://www.w3.org/2000/svg">
<g id="Slide button">
<rect id="Rectangle 2" x="1" y="1" width="38" height="38" rx="19" stroke="#095BDC" stroke-width="2"/>
<path id="Union" fill-rule="evenodd" clip-rule="evenodd" d="M21.4171 12.2827C20.8249 11.7034 19.8752 11.7139 19.2959 12.3061C18.7166 12.8983 18.727 13.848 19.3192 14.4273L23.8996 18.9079H11.7974C10.9689 18.9079 10.2974 19.5794 10.2974 20.4079C10.2974 21.2363 10.9689 21.9079 11.7974 21.9079H23.8996L19.3192 26.3885C18.727 26.9678 18.7166 27.9174 19.2959 28.5097C19.8752 29.1019 20.8249 29.1123 21.4171 28.533L28.627 21.4801C28.9155 21.1979 29.0781 20.8114 29.0781 20.4079C29.0781 20.0043 28.9155 19.6178 28.627 19.3356L21.4171 12.2827Z" fill="#095BDC"/>
</g>
</svg>
