<svg width="41" height="40" viewBox="0 0 41 40" fill="none" xmlns="http://www.w3.org/2000/svg">
<rect x="1.33337" y="1" width="38" height="38" rx="19" stroke="#095BDC" stroke-width="2"/>
<path fill-rule="evenodd" clip-rule="evenodd" d="M15.4986 13.4396C14.6703 13.4488 14.0061 14.1277 14.0152 14.9561C14.0244 15.7844 14.7033 16.4486 15.5317 16.4395L21.9388 16.3689L13.3812 24.9265C12.7954 25.5123 12.7954 26.462 13.3812 27.0478C13.967 27.6336 14.9167 27.6336 15.5025 27.0478L24.0601 18.4902L23.9895 24.8973C23.9804 25.7257 24.6445 26.4046 25.4729 26.4137C26.3013 26.4229 26.9802 25.7587 26.9893 24.9303L27.1004 14.845C27.1049 14.4414 26.9465 14.0531 26.6612 13.7678C26.3758 13.4824 25.9875 13.3241 25.584 13.3285L15.4986 13.4396Z" fill="#095BDC"/>
</svg>
