<svg width="40" height="40" viewBox="0 0 40 40" fill="none" xmlns="http://www.w3.org/2000/svg">
<g id="Slide button">
<rect id="Rectangle 2" x="-1" y="1" width="38" height="38" rx="19" transform="matrix(-1 0 0 1 38 0)" stroke="#095BDC" stroke-width="2"/>
<path id="Union" fill-rule="evenodd" clip-rule="evenodd" d="M18.5829 12.2827C19.1751 11.7034 20.1248 11.7139 20.7041 12.3061C21.2834 12.8983 21.273 13.848 20.6808 14.4273L16.1004 18.9079H28.2026C29.0311 18.9079 29.7026 19.5794 29.7026 20.4079C29.7026 21.2363 29.0311 21.9079 28.2026 21.9079H16.1004L20.6808 26.3885C21.273 26.9678 21.2834 27.9174 20.7041 28.5097C20.1248 29.1019 19.1751 29.1123 18.5829 28.533L11.373 21.4801C11.0845 21.1979 10.9219 20.8114 10.9219 20.4079C10.9219 20.0043 11.0845 19.6178 11.373 19.3356L18.5829 12.2827Z" fill="#095BDC"/>
</g>
</svg>
