<svg width="400" height="300" viewBox="0 0 400 300" fill="none" xmlns="http://www.w3.org/2000/svg">
<g clip-path="url(#clip0_185_2859)">
<path d="M80.187 148.079C78.5965 139.387 84.3536 131.051 93.0458 129.461L280.927 95.0825C289.619 93.492 297.955 99.2491 299.545 107.941L336.263 308.61C337.853 317.302 332.096 325.638 323.404 327.228L135.523 361.606C126.831 363.197 118.495 357.44 116.905 348.748L80.187 148.079Z" fill="#095BDC"/>
<path d="M140.695 264.937L143.783 281.817L139.384 282.622L136.296 265.742L140.695 264.937ZM147.169 281.197L144.83 268.409L148.717 267.698L149.752 272.055L149.177 271.658C149.179 270.706 149.337 269.884 149.651 269.192C149.982 268.497 150.444 267.937 151.035 267.512C151.641 267.066 152.353 266.768 153.172 266.619C154.058 266.456 154.857 266.486 155.567 266.709C156.294 266.928 156.906 267.336 157.403 267.932C157.9 268.529 158.24 269.33 158.424 270.336L159.983 278.852L155.635 279.648L154.287 272.282C154.125 271.396 153.842 270.813 153.439 270.534C153.035 270.256 152.569 270.165 152.041 270.262C151.632 270.336 151.267 270.509 150.946 270.779C150.622 271.032 150.397 271.391 150.271 271.854C150.144 272.318 150.146 272.908 150.277 273.624L151.517 280.401L147.169 281.197ZM165.216 260.476L167.467 272.778C167.579 273.392 167.805 273.809 168.145 274.029C168.498 274.228 168.94 274.28 169.468 274.183C169.877 274.108 170.219 274.001 170.493 273.863C170.781 273.705 171.028 273.51 171.232 273.279L172.184 275.88C171.814 276.265 171.32 276.602 170.704 276.891C170.087 277.18 169.438 277.387 168.756 277.512C167.784 277.689 166.915 277.707 166.149 277.566C165.4 277.421 164.775 277.086 164.273 276.561C163.789 276.033 163.448 275.276 163.25 274.29L161.088 262.474L165.216 260.476ZM169.77 263.846L170.337 266.94L159.979 268.836L159.412 265.741L169.77 263.846ZM180.406 275.38C178.991 275.639 177.715 275.599 176.578 275.261C175.458 274.919 174.526 274.306 173.783 273.42C173.039 272.534 172.539 271.392 172.284 269.994C172.028 268.596 172.091 267.351 172.472 266.259C172.854 265.167 173.5 264.265 174.409 263.552C175.335 262.836 176.455 262.358 177.768 262.118C179.115 261.872 180.305 261.927 181.34 262.284C182.388 262.621 183.244 263.204 183.907 264.034C184.567 264.848 185.004 265.842 185.219 267.019C185.276 267.326 185.323 267.634 185.362 267.944C185.401 268.254 185.423 268.515 185.426 268.726L175.298 270.579L174.872 268.251L183.082 266.749L181.155 267.921C180.968 266.898 180.637 266.148 180.162 265.671C179.704 265.191 179.092 265.021 178.325 265.162C177.779 265.261 177.333 265.475 176.988 265.803C176.66 266.127 176.443 266.581 176.338 267.164C176.251 267.744 176.285 268.46 176.441 269.312C176.594 270.148 176.829 270.81 177.148 271.298C177.463 271.768 177.847 272.086 178.3 272.25C178.75 272.396 179.264 272.417 179.844 272.311C180.492 272.192 180.98 271.971 181.308 271.646C181.654 271.319 181.878 270.908 181.982 270.413L185.67 270.928C185.566 271.704 185.262 272.403 184.759 273.024C184.27 273.624 183.639 274.127 182.868 274.533C182.113 274.935 181.292 275.218 180.406 275.38ZM188.929 273.556L186.589 260.768L190.426 260.066L191.11 262.796C191.259 261.782 191.601 260.952 192.135 260.308C192.686 259.661 193.456 259.247 194.445 259.066C194.769 259.007 195.047 258.983 195.278 258.993C195.526 259.001 195.726 259.035 195.878 259.095L196.098 262.755C195.915 262.718 195.684 262.708 195.405 262.723C195.14 262.719 194.82 262.751 194.445 262.82C193.933 262.913 193.476 263.112 193.074 263.414C192.671 263.717 192.374 264.115 192.182 264.608C192.004 265.081 191.976 265.65 192.098 266.315L193.277 272.76L188.929 273.556ZM199.919 271.545L197.579 258.757L201.466 258.046L202.048 260.503C202.292 259.525 202.738 258.738 203.387 258.144C204.053 257.546 204.872 257.159 205.844 256.981C206.799 256.806 207.665 256.868 208.442 257.166C209.219 257.464 209.854 258 210.348 258.773C210.518 258.161 210.782 257.628 211.139 257.175C211.514 256.719 211.966 256.345 212.494 256.055C213.022 255.764 213.585 255.564 214.182 255.455C215.034 255.299 215.816 255.332 216.526 255.555C217.233 255.76 217.837 256.17 218.336 256.783C218.85 257.376 219.199 258.176 219.383 259.182L220.942 267.698L216.594 268.494L215.218 260.975C215.068 260.156 214.802 259.615 214.419 259.35C214.052 259.082 213.605 258.997 213.076 259.093C212.65 259.171 212.278 259.354 211.961 259.641C211.657 259.908 211.451 260.272 211.341 260.733C211.232 261.193 211.236 261.747 211.355 262.395L212.604 269.224L208.256 270.019L206.88 262.5C206.731 261.682 206.464 261.14 206.081 260.876C205.698 260.611 205.25 260.525 204.739 260.619C204.347 260.691 203.99 260.862 203.67 261.132C203.366 261.399 203.153 261.773 203.029 262.253C202.903 262.717 202.903 263.299 203.031 263.998L204.267 270.749L199.919 271.545ZM230.283 266.253C228.868 266.512 227.592 266.473 226.455 266.134C225.335 265.793 224.403 265.179 223.66 264.293C222.916 263.407 222.416 262.265 222.161 260.867C221.905 259.469 221.968 258.224 222.349 257.132C222.731 256.04 223.377 255.138 224.286 254.426C225.212 253.71 226.332 253.232 227.645 252.992C228.992 252.745 230.182 252.8 231.217 253.157C232.265 253.494 233.121 254.078 233.784 254.908C234.444 255.721 234.881 256.716 235.096 257.892C235.153 258.199 235.2 258.508 235.239 258.818C235.278 259.128 235.3 259.388 235.303 259.599L225.175 261.452L224.749 259.125L232.959 257.623L231.032 258.795C230.845 257.772 230.514 257.022 230.039 256.545C229.581 256.065 228.969 255.895 228.202 256.035C227.656 256.135 227.21 256.349 226.865 256.676C226.537 257.001 226.32 257.454 226.215 258.037C226.128 258.617 226.162 259.333 226.318 260.186C226.471 261.021 226.706 261.683 227.025 262.171C227.34 262.642 227.724 262.959 228.177 263.123C228.627 263.27 229.141 263.29 229.721 263.184C230.369 263.066 230.857 262.844 231.185 262.52C231.531 262.192 231.755 261.781 231.858 261.287L235.547 261.801C235.443 262.578 235.139 263.277 234.636 263.897C234.147 264.498 233.516 265.001 232.744 265.406C231.99 265.809 231.169 266.091 230.283 266.253ZM243.559 263.824C242.502 264.018 241.526 263.932 240.631 263.567C239.75 263.182 238.997 262.535 238.373 261.628C237.766 260.717 237.336 259.571 237.083 258.19C236.821 256.757 236.821 255.506 237.083 254.436C237.363 253.363 237.855 252.489 238.56 251.814C239.281 251.136 240.171 250.7 241.228 250.506C242.387 250.294 243.382 250.482 244.212 251.07C245.056 251.638 245.68 252.449 246.084 253.503L245.774 254.115L244.042 244.652L248.39 243.857L251.722 262.066L247.834 262.778L246.757 258.481L247.339 258.771C247.393 259.642 247.264 260.432 246.954 261.141C246.66 261.847 246.222 262.438 245.639 262.915C245.071 263.371 244.377 263.674 243.559 263.824ZM244.483 260.351C244.977 260.261 245.372 260.056 245.666 259.738C245.974 259.4 246.174 258.949 246.264 258.386C246.355 257.824 246.33 257.158 246.19 256.391C246.059 255.675 245.854 255.087 245.576 254.627C245.312 254.146 244.978 253.811 244.573 253.621C244.182 253.411 243.739 253.351 243.245 253.441C242.495 253.578 241.949 253.969 241.609 254.613C241.283 255.236 241.229 256.145 241.447 257.338C241.665 258.532 242.039 259.371 242.568 259.856C243.095 260.323 243.733 260.488 244.483 260.351ZM254.403 246.827C253.517 246.989 252.839 246.945 252.371 246.696C251.916 246.427 251.623 245.934 251.492 245.218C251.358 244.485 251.458 243.921 251.791 243.525C252.137 243.109 252.754 242.82 253.641 242.658C254.51 242.499 255.181 242.552 255.652 242.818C256.121 243.067 256.422 243.559 256.556 244.292C256.687 245.008 256.579 245.574 256.233 245.99C255.883 246.389 255.273 246.668 254.403 246.827ZM256.849 247.912L259.189 260.7L254.841 261.495L252.501 248.708L256.849 247.912ZM267.936 250.721C267.827 250.124 267.57 249.686 267.167 249.408C266.777 249.109 266.301 249.011 265.739 249.114C265.176 249.217 264.717 249.451 264.36 249.815C264.018 250.16 263.836 250.704 263.813 251.448L259.971 251.253C259.986 249.981 260.437 248.886 261.326 247.965C262.215 247.045 263.588 246.415 265.447 246.075C266.692 245.847 267.783 245.841 268.721 246.057C269.673 246.253 270.447 246.675 271.041 247.324C271.65 247.953 272.05 248.796 272.244 249.853L273.1 254.533C273.222 255.198 273.581 255.476 274.178 255.367C274.485 255.311 274.726 255.231 274.901 255.129L275.099 257.656C274.631 257.989 274.031 258.222 273.298 258.356C272.633 258.478 272.026 258.483 271.477 258.372C270.925 258.244 270.465 257.993 270.097 257.62C269.726 257.23 269.48 256.702 269.358 256.037L269.33 255.884L269.783 255.616C269.917 256.349 269.808 257.004 269.455 257.579C269.119 258.152 268.624 258.621 267.968 258.988C267.33 259.351 266.636 259.602 265.885 259.739C265.016 259.898 264.232 259.9 263.534 259.746C262.837 259.592 262.262 259.292 261.81 258.846C261.372 258.38 261.083 257.763 260.943 256.996C260.775 256.075 260.908 255.266 261.345 254.57C261.795 253.853 262.595 253.266 263.745 252.809L268.396 250.927L268.792 253.233L266.43 254.194C265.938 254.39 265.582 254.614 265.364 254.865C265.159 255.096 265.093 255.408 265.165 255.8C265.233 256.175 265.421 256.432 265.728 256.569C266.036 256.707 266.377 256.742 266.752 256.673C267.042 256.62 267.307 256.527 267.547 256.395C267.804 256.26 268.019 256.089 268.193 255.881C268.363 255.656 268.483 255.396 268.552 255.101C268.622 254.806 268.622 254.472 268.553 254.097L267.936 250.721ZM278.856 239.683L281.107 251.984C281.219 252.598 281.446 253.015 281.785 253.235C282.139 253.434 282.58 253.486 283.109 253.389C283.518 253.314 283.86 253.208 284.134 253.069C284.422 252.911 284.668 252.716 284.873 252.485L285.824 255.086C285.454 255.471 284.961 255.808 284.344 256.097C283.728 256.386 283.078 256.593 282.396 256.718C281.424 256.896 280.555 256.914 279.789 256.772C279.04 256.627 278.415 256.292 277.914 255.767C277.43 255.239 277.088 254.482 276.89 253.496L274.728 241.68L278.856 239.683ZM283.411 243.052L283.977 246.147L273.619 248.042L273.053 244.947L283.411 243.052ZM294.046 254.586C292.631 254.845 291.355 254.805 290.218 254.467C289.099 254.126 288.167 253.512 287.423 252.626C286.68 251.74 286.18 250.598 285.924 249.2C285.668 247.802 285.731 246.557 286.113 245.465C286.495 244.373 287.14 243.471 288.05 242.758C288.976 242.042 290.095 241.565 291.408 241.324C292.755 241.078 293.946 241.133 294.98 241.49C296.029 241.827 296.885 242.41 297.547 243.241C298.207 244.054 298.645 245.049 298.86 246.225C298.916 246.532 298.964 246.84 299.003 247.15C299.042 247.46 299.063 247.721 299.067 247.932L288.939 249.785L288.513 247.458L296.723 245.955L294.796 247.127C294.609 246.104 294.278 245.354 293.803 244.877C293.345 244.397 292.732 244.227 291.965 244.368C291.42 244.468 290.974 244.681 290.629 245.009C290.3 245.333 290.084 245.787 289.979 246.37C289.891 246.95 289.926 247.666 290.082 248.519C290.234 249.354 290.47 250.016 290.788 250.504C291.104 250.975 291.488 251.292 291.941 251.456C292.39 251.603 292.905 251.623 293.485 251.517C294.133 251.398 294.621 251.177 294.949 250.853C295.294 250.525 295.519 250.114 295.622 249.619L299.311 250.134C299.206 250.911 298.903 251.609 298.399 252.23C297.91 252.831 297.28 253.334 296.508 253.739C295.754 254.141 294.933 254.424 294.046 254.586Z" fill="#095BDC"/>
<path opacity="0.7" d="M143.764 293.45L145.664 303.838L143.492 304.235L141.592 293.848L143.764 293.45ZM148.365 303.344L146.464 292.956L154.255 291.531L154.574 293.278L148.956 294.306L149.428 296.887L153.85 296.078L154.156 297.746L149.733 298.555L150.217 301.199L156.056 300.131L156.376 301.878L148.365 303.344ZM160.177 299.377L165.654 298.375L165.973 300.122L158.324 301.521L156.424 291.134L158.596 290.736L160.177 299.377ZM171.986 288.286L172.306 290.033L168.827 290.67L170.408 299.31L168.236 299.707L166.655 291.067L163.161 291.706L162.842 289.959L171.986 288.286ZM177.233 287.163C178.177 286.991 179.036 287.001 179.809 287.196C180.582 287.391 181.279 287.762 181.9 288.31L180.944 289.933C180.414 289.466 179.869 289.153 179.309 288.996C178.757 288.825 178.145 288.802 177.474 288.925C177.033 289.005 176.677 289.13 176.404 289.299C176.142 289.467 175.96 289.657 175.858 289.871C175.766 290.083 175.742 290.304 175.784 290.535C175.836 290.818 175.99 291.04 176.247 291.199C176.502 291.347 176.909 291.435 177.467 291.463L179.483 291.55C180.554 291.593 181.352 291.804 181.877 292.186C182.41 292.554 182.744 293.1 182.876 293.824C183.001 294.506 182.93 295.127 182.663 295.685C182.395 296.233 181.965 296.697 181.373 297.076C180.779 297.445 180.067 297.705 179.238 297.857C178.514 297.989 177.833 298.027 177.194 297.971C176.563 297.902 175.984 297.759 175.456 297.541C174.928 297.323 174.47 297.043 174.082 296.702L175.042 295.014C175.345 295.305 175.699 295.55 176.103 295.747C176.508 295.944 176.951 296.08 177.43 296.155C177.919 296.217 178.415 296.202 178.919 296.11C179.349 296.031 179.702 295.918 179.979 295.77C180.264 295.609 180.464 295.426 180.578 295.221C180.701 295.003 180.738 294.763 180.69 294.501C180.64 294.228 180.503 294.015 180.28 293.86C180.065 293.694 179.702 293.603 179.189 293.588L176.994 293.502C176.358 293.466 175.799 293.373 175.316 293.223C174.842 293.061 174.456 292.817 174.158 292.492C173.868 292.154 173.677 291.729 173.582 291.215C173.469 290.595 173.535 290.009 173.781 289.454C174.026 288.899 174.438 288.423 175.016 288.024C175.602 287.614 176.341 287.327 177.233 287.163ZM198.677 291.177C198.601 291.885 198.389 292.504 198.041 293.034C197.693 293.564 197.246 293.993 196.699 294.321C196.151 294.648 195.526 294.877 194.823 295.005C193.795 295.193 192.864 295.142 192.03 294.85C191.206 294.556 190.516 294.048 189.961 293.325C189.417 292.6 189.043 291.682 188.839 290.57C188.636 289.458 188.66 288.466 188.913 287.596C189.176 286.724 189.641 286.004 190.307 285.438C190.984 284.869 191.826 284.493 192.833 284.309C193.547 284.178 194.21 284.16 194.824 284.254C195.436 284.337 195.977 284.541 196.449 284.867C196.931 285.191 197.322 285.64 197.623 286.214L195.808 287.408C195.514 286.811 195.16 286.415 194.745 286.22C194.327 286.014 193.83 285.964 193.253 286.07C192.687 286.174 192.213 286.401 191.833 286.753C191.463 287.102 191.212 287.566 191.079 288.143C190.944 288.71 190.948 289.382 191.09 290.158C191.23 290.924 191.454 291.555 191.762 292.052C192.08 292.547 192.474 292.892 192.943 293.088C193.413 293.284 193.952 293.327 194.561 293.215C195.127 293.112 195.587 292.87 195.941 292.491C196.305 292.11 196.514 291.595 196.569 290.945L198.677 291.177ZM203.608 282.337C204.637 282.149 205.563 282.202 206.386 282.496C207.21 282.79 207.894 283.299 208.439 284.023C208.994 284.746 209.373 285.663 209.577 286.775C209.78 287.888 209.75 288.88 209.487 289.752C209.234 290.623 208.775 291.341 208.108 291.908C207.442 292.474 206.595 292.851 205.567 293.04C204.538 293.228 203.607 293.176 202.773 292.884C201.949 292.59 201.26 292.082 200.705 291.359C200.16 290.635 199.786 289.716 199.583 288.604C199.379 287.492 199.404 286.501 199.657 285.63C199.92 284.758 200.385 284.039 201.051 283.472C201.728 282.904 202.58 282.525 203.608 282.337ZM203.934 284.116C203.346 284.223 202.873 284.451 202.514 284.798C202.154 285.146 201.913 285.608 201.791 286.183C201.677 286.746 201.691 287.416 201.833 288.192C201.973 288.958 202.197 289.59 202.505 290.086C202.823 290.581 203.212 290.927 203.671 291.125C204.13 291.323 204.654 291.369 205.241 291.261C205.818 291.155 206.287 290.929 206.646 290.581C207.005 290.233 207.241 289.773 207.353 289.199C207.475 288.624 207.466 287.953 207.326 287.187C207.184 286.411 206.955 285.78 206.638 285.296C206.331 284.799 205.947 284.452 205.488 284.254C205.029 284.056 204.511 284.01 203.934 284.116ZM215.274 280.203C216.302 280.014 217.228 280.067 218.052 280.361C218.876 280.655 219.56 281.164 220.104 281.889C220.66 282.611 221.039 283.529 221.242 284.641C221.446 285.753 221.416 286.745 221.153 287.618C220.9 288.488 220.44 289.206 219.774 289.773C219.108 290.339 218.261 290.717 217.232 290.905C216.204 291.093 215.273 291.041 214.439 290.749C213.615 290.455 212.926 289.947 212.371 289.225C211.826 288.5 211.452 287.582 211.248 286.47C211.045 285.357 211.069 284.366 211.322 283.496C211.586 282.623 212.05 281.904 212.717 281.337C213.393 280.769 214.246 280.391 215.274 280.203ZM215.6 281.981C215.012 282.089 214.538 282.316 214.179 282.664C213.82 283.012 213.579 283.473 213.457 284.049C213.343 284.612 213.357 285.281 213.499 286.058C213.639 286.824 213.863 287.455 214.171 287.952C214.489 288.447 214.878 288.793 215.337 288.991C215.796 289.189 216.319 289.234 216.907 289.126C217.484 289.021 217.952 288.794 218.312 288.447C218.671 288.099 218.906 287.638 219.018 287.065C219.141 286.489 219.132 285.819 218.992 285.053C218.85 284.276 218.62 283.646 218.304 283.162C217.996 282.665 217.613 282.318 217.154 282.12C216.695 281.922 216.177 281.875 215.6 281.981ZM231.438 277.408L227.673 283.676L227.468 283.534L225.41 286.953L224.711 284.998L228.92 277.868L231.438 277.408ZM224.655 278.649L226.556 289.036L224.384 289.434L222.483 279.046L224.655 278.649ZM227.94 281.756L233.465 287.772L230.978 288.227L226.493 283.273L227.94 281.756ZM235.337 276.694L237.238 287.082L235.066 287.479L233.165 277.092L235.337 276.694ZM246.961 274.567L248.862 284.955L246.375 285.41L241.622 279.968L240.414 278.433L240.398 278.436L240.789 280.218L241.89 286.231L239.938 286.588L238.037 276.2L240.508 275.748L245.258 281.174L246.469 282.725L246.501 282.719L246.11 280.937L245.01 274.924L246.961 274.567ZM255.867 283.836C254.912 284.01 254.034 283.954 253.234 283.667C252.443 283.378 251.776 282.871 251.231 282.146C250.687 281.422 250.312 280.498 250.106 279.376C249.903 278.263 249.938 277.27 250.212 276.396C250.483 275.511 250.963 274.784 251.65 274.213C252.348 273.641 253.206 273.262 254.223 273.076C255.346 272.87 256.292 272.914 257.061 273.207C257.829 273.49 258.497 274.029 259.065 274.825L257.209 276.059C256.94 275.534 256.576 275.177 256.119 274.99C255.67 274.79 255.152 274.744 254.565 274.851C253.977 274.959 253.494 275.194 253.116 275.556C252.735 275.907 252.479 276.372 252.346 276.949C252.211 277.516 252.214 278.182 252.354 278.948C252.498 279.735 252.73 280.381 253.05 280.886C253.368 281.381 253.768 281.726 254.248 281.92C254.736 282.101 255.301 282.134 255.941 282.017C256.287 281.953 256.599 281.853 256.878 281.715C257.167 281.575 257.406 281.402 257.596 281.193C257.785 280.985 257.919 280.738 257.997 280.453C258.075 280.168 258.082 279.852 258.019 279.506L257.976 279.27L255.253 279.768L254.962 278.178L259.558 277.337L260.56 282.814L259.033 283.094L258.461 280.856L258.888 281.055C258.784 281.789 258.472 282.399 257.954 282.884C257.444 283.357 256.748 283.674 255.867 283.836ZM269.61 279.353L275.087 278.351L275.406 280.098L267.757 281.497L265.857 271.11L268.029 270.712L269.61 279.353ZM286.228 278.118L283.977 278.529L282.648 276.154L278.666 276.882L278.264 279.575L276.045 279.981L277.937 268.899L280.534 268.424L286.228 278.118ZM278.86 275.188L281.867 274.638L279.526 270.381L278.86 275.188ZM287.769 277.836L285.868 267.448L290.417 266.616C291.676 266.385 292.649 266.462 293.338 266.846C294.026 267.23 294.453 267.873 294.618 268.775C294.72 269.331 294.642 269.855 294.385 270.346C294.128 270.838 293.685 271.201 293.055 271.436L293.058 271.451C293.801 271.424 294.407 271.595 294.876 271.964C295.345 272.334 295.635 272.823 295.747 273.432C295.91 274.324 295.712 275.081 295.154 275.704C294.606 276.324 293.713 276.748 292.475 276.975L287.769 277.836ZM289.578 275.813L291.986 275.372C292.574 275.265 292.987 275.064 293.226 274.771C293.466 274.478 293.546 274.116 293.467 273.686C293.386 273.246 293.183 272.936 292.858 272.757C292.532 272.578 292.076 272.542 291.488 272.649L289.08 273.09L289.578 275.813ZM288.775 271.422L290.931 271.027C292.075 270.818 292.565 270.267 292.402 269.376C292.239 268.484 291.585 268.142 290.442 268.352L288.285 268.746L288.775 271.422Z" fill="#095BDC"/>
<path d="M133.454 222.511C159.668 186.411 224.068 215.663 194.325 233.61C166.976 250.113 149.348 187.571 180.851 172.343C221.36 152.797 271.75 189.926 234.345 205.021C197.414 220.029 210.786 147.21 231.97 130.472" stroke="#F7F3E9" stroke-width="8" stroke-linecap="round"/>
<path d="M269.602 39.4568C270.232 36.7224 273.408 35.4696 275.735 37.0376L286.167 44.0672C287.893 45.2305 290.223 44.8753 291.524 43.2504L299.387 33.4315C301.141 31.2413 304.547 31.4907 305.963 33.9131L312.311 44.7727C313.362 46.5698 315.615 47.2607 317.493 46.3613L328.837 40.9265C331.368 39.7141 334.328 41.4163 334.553 44.2133L335.561 56.752C335.728 58.827 337.458 60.4272 339.54 60.4314L352.119 60.4571C354.925 60.4628 356.853 63.2806 355.842 65.8982L351.31 77.6326C350.56 79.5745 351.425 81.7671 353.299 82.6741L364.621 88.1551C367.147 89.3777 367.661 92.7531 365.615 94.6728L356.44 103.279C354.922 104.703 354.75 107.054 356.044 108.684L363.867 118.535C365.612 120.732 364.612 123.996 361.935 124.838L349.935 128.611C347.949 129.235 346.774 131.279 347.233 133.309L350.007 145.579C350.626 148.315 348.308 150.822 345.531 150.419L333.082 148.612C331.022 148.313 329.077 149.644 328.61 151.672L325.786 163.931C325.156 166.665 321.979 167.918 319.652 166.35L309.221 159.32C307.494 158.157 305.164 158.512 303.863 160.137L296 169.956C294.246 172.146 290.841 171.897 289.425 169.474L283.076 158.615C282.025 156.817 279.772 156.127 277.894 157.026L266.55 162.461C264.019 163.673 261.059 161.971 260.835 159.174L259.826 146.635C259.66 144.56 257.929 142.96 255.847 142.956L243.268 142.93C240.462 142.925 238.534 140.107 239.545 137.489L244.077 125.755C244.827 123.813 243.962 121.62 242.088 120.713L230.766 115.232C228.24 114.01 227.726 110.634 229.772 108.714L238.947 100.108C240.465 98.6843 240.637 96.3337 239.343 94.7035L231.52 84.8527C229.775 82.6553 230.776 79.391 233.453 78.5493L245.453 74.7763C247.438 74.1519 248.613 72.1087 248.154 70.0783L245.38 57.8088C244.761 55.0718 247.079 52.565 249.856 52.9681L262.305 54.7754C264.365 55.0744 266.31 53.7434 266.778 51.7149L269.602 39.4568Z" fill="#53D5AC"/>
<path d="M98.7996 84.2126C99.5267 75.4061 107.255 68.8564 116.062 69.5836L306.414 85.3011C315.221 86.0283 321.77 93.7569 321.043 102.563L301.546 338.69C300.819 347.497 293.09 354.047 284.284 353.32L93.9314 337.602C85.1248 336.875 78.5752 329.146 79.3023 320.34L98.7996 84.2126Z" fill="#FAAFA3"/>
<path d="M156.962 232.502L152.375 232.123L151.502 228.164L145.646 227.68L144.11 231.441L139.627 231.07L147.05 214.465L152.388 214.906L156.962 232.502ZM146.726 224.717L150.923 225.064L149.396 217.972L146.726 224.717ZM163.007 233.262C161.936 233.173 161.016 232.837 160.246 232.251C159.496 231.65 158.938 230.83 158.571 229.791C158.222 228.753 158.105 227.535 158.221 226.136C158.341 224.685 158.666 223.477 159.198 222.512C159.747 221.549 160.45 220.833 161.306 220.364C162.18 219.897 163.152 219.708 164.223 219.796C165.398 219.893 166.309 220.334 166.957 221.118C167.624 221.886 168.016 222.831 168.132 223.954L167.672 224.464L168.464 214.877L172.869 215.24L171.346 233.69L167.407 233.364L167.486 228.936L167.972 229.367C167.797 230.222 167.467 230.952 166.983 231.555C166.515 232.16 165.938 232.617 165.252 232.925C164.584 233.218 163.836 233.33 163.007 233.262ZM164.803 230.149C165.304 230.19 165.738 230.096 166.105 229.865C166.49 229.619 166.8 229.236 167.034 228.716C167.269 228.196 167.418 227.547 167.482 226.77C167.542 226.045 167.498 225.423 167.349 224.907C167.219 224.374 166.983 223.964 166.642 223.674C166.319 223.37 165.907 223.196 165.406 223.155C164.646 223.092 164.018 223.327 163.522 223.86C163.045 224.377 162.756 225.241 162.656 226.45C162.556 227.659 162.699 228.567 163.083 229.172C163.47 229.761 164.043 230.086 164.803 230.149ZM183.997 221.69L188.557 222.066L182.823 234.637L177.563 234.203L173.969 220.862L178.607 221.245L180.461 231.338L183.997 221.69ZM196.66 227.51C196.71 226.905 196.576 226.416 196.259 226.042C195.961 225.652 195.527 225.433 194.957 225.386C194.387 225.339 193.882 225.445 193.443 225.705C193.023 225.948 192.706 226.427 192.49 227.139L188.832 225.95C189.176 224.726 189.897 223.786 190.995 223.129C192.093 222.471 193.583 222.221 195.466 222.376C196.727 222.48 197.783 222.759 198.632 223.211C199.501 223.648 200.137 224.257 200.542 225.039C200.966 225.804 201.134 226.722 201.045 227.794L200.654 232.535C200.598 233.209 200.873 233.571 201.477 233.621C201.788 233.646 202.042 233.633 202.237 233.579L201.771 236.071C201.232 236.27 200.592 236.339 199.849 236.278C199.175 236.222 198.588 236.069 198.087 235.819C197.587 235.552 197.208 235.19 196.95 234.734C196.694 234.261 196.593 233.687 196.649 233.013L196.662 232.858L197.169 232.717C197.108 233.46 196.832 234.063 196.341 234.527C195.868 234.993 195.267 235.317 194.539 235.5C193.828 235.685 193.093 235.746 192.333 235.683C191.452 235.611 190.694 235.409 190.061 235.078C189.427 234.748 188.95 234.308 188.63 233.76C188.329 233.196 188.21 232.525 188.275 231.748C188.352 230.815 188.691 230.069 189.294 229.51C189.916 228.936 190.841 228.577 192.07 228.435L197.051 227.829L196.832 230.159L194.302 230.472C193.775 230.533 193.374 230.656 193.098 230.842C192.84 231.012 192.695 231.296 192.662 231.693C192.631 232.073 192.745 232.369 193.006 232.582C193.267 232.795 193.587 232.917 193.967 232.949C194.261 232.973 194.541 232.952 194.807 232.887C195.091 232.824 195.343 232.714 195.565 232.559C195.788 232.386 195.971 232.166 196.115 231.9C196.258 231.633 196.346 231.31 196.377 230.93L196.66 227.51ZM203.758 236.366L204.828 223.41L208.766 223.735L208.631 228.211L208.18 227.678C208.429 226.76 208.796 226.007 209.279 225.421C209.78 224.836 210.371 224.415 211.053 224.159C211.754 223.886 212.519 223.784 213.348 223.853C214.246 223.927 215.009 224.164 215.637 224.563C216.282 224.964 216.767 225.518 217.092 226.223C217.416 226.928 217.536 227.79 217.452 228.809L216.74 237.438L212.335 237.074L212.951 229.611C213.025 228.713 212.904 228.077 212.587 227.703C212.27 227.329 211.843 227.12 211.308 227.076C210.893 227.041 210.496 227.113 210.116 227.29C209.738 227.45 209.427 227.738 209.184 228.152C208.941 228.567 208.79 229.137 208.73 229.863L208.163 236.73L203.758 236.366ZM227.058 224.985C228.371 225.093 229.444 225.373 230.276 225.824C231.127 226.26 231.769 226.808 232.201 227.47C232.652 228.116 232.909 228.798 232.972 229.517L228.792 230.528C228.733 229.775 228.554 229.204 228.255 228.814C227.976 228.408 227.534 228.181 226.929 228.131C226.376 228.085 225.899 228.176 225.498 228.404C225.115 228.616 224.806 228.99 224.57 229.527C224.336 230.047 224.184 230.73 224.114 231.577C224.044 232.423 224.091 233.123 224.254 233.675C224.418 234.211 224.681 234.615 225.041 234.888C225.402 235.144 225.842 235.293 226.36 235.336C226.792 235.372 227.153 235.323 227.442 235.191C227.75 235.042 228.012 234.82 228.227 234.525C228.443 234.23 228.595 233.86 228.684 233.415L232.544 235.012C232.36 235.762 231.976 236.417 231.39 236.978C230.823 237.522 230.094 237.932 229.202 238.206C228.309 238.48 227.285 238.569 226.127 238.474C224.711 238.357 223.497 237.996 222.486 237.39C221.476 236.768 220.728 235.932 220.241 234.883C219.755 233.817 219.57 232.576 219.687 231.159C219.804 229.742 220.189 228.557 220.842 227.602C221.496 226.63 222.354 225.927 223.416 225.493C224.497 225.043 225.711 224.873 227.058 224.985ZM240.829 239.688C239.395 239.569 238.174 239.199 237.164 238.576C236.172 237.955 235.432 237.12 234.945 236.071C234.457 235.022 234.272 233.789 234.389 232.373C234.506 230.956 234.891 229.771 235.544 228.816C236.197 227.861 237.055 227.158 238.118 226.707C239.199 226.257 240.404 226.087 241.734 226.196C243.099 226.309 244.234 226.672 245.14 227.286C246.065 227.885 246.739 228.671 247.163 229.645C247.588 230.602 247.752 231.676 247.653 232.868C247.628 233.179 247.593 233.489 247.551 233.799C247.508 234.108 247.46 234.365 247.409 234.57L237.148 233.723L237.342 231.365L245.66 232.051L243.495 232.681C243.58 231.645 243.456 230.834 243.122 230.25C242.804 229.668 242.257 229.344 241.48 229.28C240.927 229.234 240.441 229.325 240.023 229.551C239.621 229.779 239.294 230.16 239.041 230.696C238.805 231.233 238.652 231.934 238.581 232.797C238.511 233.644 238.566 234.344 238.746 234.898C238.928 235.435 239.216 235.841 239.611 236.117C240.007 236.376 240.499 236.53 241.086 236.578C241.742 236.632 242.271 236.546 242.673 236.318C243.091 236.092 243.415 235.753 243.644 235.302L247.071 236.759C246.768 237.482 246.293 238.078 245.645 238.546C245.017 238.999 244.277 239.32 243.426 239.511C242.593 239.703 241.727 239.762 240.829 239.688ZM254.28 240.798C253.209 240.71 252.289 240.373 251.52 239.788C250.769 239.187 250.211 238.367 249.845 237.328C249.495 236.29 249.379 235.072 249.494 233.672C249.614 232.221 249.94 231.013 250.472 230.048C251.021 229.085 251.723 228.369 252.58 227.901C253.453 227.434 254.425 227.244 255.496 227.333C256.671 227.43 257.582 227.87 258.231 228.654C258.898 229.422 259.289 230.368 259.405 231.491L258.946 232L259.737 222.413L264.142 222.777L262.619 241.226L258.68 240.901L258.759 236.472L259.245 236.904C259.07 237.759 258.741 238.488 258.256 239.092C257.789 239.697 257.212 240.153 256.525 240.462C255.858 240.755 255.109 240.867 254.28 240.798ZM256.076 237.686C256.577 237.727 257.011 237.632 257.378 237.402C257.764 237.155 258.073 236.772 258.308 236.252C258.542 235.733 258.691 235.084 258.755 234.307C258.815 233.581 258.771 232.96 258.622 232.443C258.492 231.911 258.257 231.5 257.915 231.211C257.593 230.906 257.181 230.733 256.68 230.692C255.92 230.629 255.292 230.864 254.795 231.397C254.318 231.914 254.029 232.777 253.929 233.986C253.83 235.196 253.972 236.103 254.357 236.709C254.743 237.297 255.316 237.623 256.076 237.686Z" fill="#095BDC"/>
<path opacity="0.7" d="M122.34 241.122L121.471 251.646L119.271 251.464L120.14 240.94L122.34 241.122ZM124.207 251.872L125.076 241.348L132.969 242L132.823 243.77L127.13 243.3L126.914 245.915L131.395 246.285L131.256 247.975L126.775 247.605L126.554 250.284L132.47 250.772L132.323 252.542L124.207 251.872ZM136.644 251.117L142.193 251.575L142.047 253.345L134.298 252.705L135.167 242.181L137.367 242.363L136.644 251.117ZM150.934 243.483L150.788 245.253L147.264 244.962L146.541 253.716L144.34 253.534L145.063 244.78L141.523 244.488L141.669 242.718L150.934 243.483ZM156.292 243.765C157.249 243.844 158.075 244.078 158.771 244.467C159.466 244.856 160.043 245.396 160.499 246.087L159.154 247.405C158.764 246.816 158.319 246.373 157.819 246.074C157.331 245.766 156.747 245.584 156.066 245.528C155.62 245.491 155.243 245.519 154.936 245.612C154.639 245.705 154.414 245.841 154.26 246.021C154.116 246.202 154.035 246.409 154.016 246.643C153.992 246.93 154.083 247.184 154.29 247.404C154.497 247.614 154.867 247.805 155.398 247.978L157.323 248.586C158.345 248.906 159.061 249.318 159.468 249.823C159.888 250.318 160.067 250.932 160.007 251.665C159.95 252.356 159.72 252.937 159.317 253.407C158.915 253.866 158.379 254.201 157.709 254.414C157.039 254.615 156.284 254.681 155.445 254.612C154.711 254.551 154.043 254.411 153.441 254.19C152.85 253.959 152.328 253.67 151.875 253.322C151.422 252.974 151.053 252.585 150.767 252.155L152.133 250.774C152.35 251.135 152.628 251.463 152.967 251.758C153.307 252.054 153.698 252.3 154.142 252.498C154.598 252.685 155.081 252.8 155.591 252.842C156.027 252.878 156.397 252.86 156.703 252.789C157.02 252.708 157.26 252.584 157.424 252.415C157.599 252.237 157.698 252.015 157.72 251.749C157.743 251.473 157.666 251.231 157.491 251.024C157.327 250.807 156.999 250.625 156.508 250.477L154.411 249.823C153.807 249.623 153.291 249.388 152.864 249.117C152.448 248.836 152.139 248.501 151.936 248.109C151.744 247.708 151.67 247.247 151.713 246.726C151.765 246.099 151.981 245.55 152.363 245.078C152.744 244.606 153.266 244.253 153.927 244.019C154.6 243.775 155.389 243.69 156.292 243.765ZM175.952 253.223C175.694 253.886 175.328 254.429 174.854 254.85C174.381 255.271 173.837 255.569 173.223 255.743C172.61 255.917 171.947 255.975 171.234 255.916C170.193 255.83 169.307 255.537 168.578 255.038C167.859 254.54 167.325 253.87 166.978 253.028C166.64 252.186 166.518 251.202 166.611 250.075C166.704 248.949 166.986 247.998 167.457 247.223C167.938 246.45 168.574 245.876 169.365 245.503C170.166 245.13 171.077 244.986 172.098 245.07C172.821 245.13 173.466 245.285 174.034 245.535C174.603 245.775 175.073 246.113 175.443 246.55C175.825 246.988 176.085 247.524 176.226 248.156L174.163 248.837C174.035 248.184 173.796 247.709 173.446 247.413C173.096 247.106 172.629 246.928 172.045 246.88C171.471 246.832 170.954 246.929 170.496 247.169C170.048 247.411 169.684 247.793 169.406 248.315C169.128 248.828 168.956 249.477 168.892 250.264C168.827 251.04 168.879 251.708 169.047 252.267C169.226 252.828 169.516 253.264 169.919 253.575C170.321 253.887 170.83 254.068 171.447 254.119C172.021 254.167 172.528 254.053 172.968 253.779C173.419 253.506 173.755 253.063 173.977 252.45L175.952 253.223ZM183.015 245.971C184.056 246.057 184.937 246.35 185.655 246.848C186.374 247.346 186.902 248.016 187.239 248.857C187.587 249.699 187.715 250.683 187.622 251.81C187.529 252.937 187.241 253.887 186.76 254.661C186.289 255.436 185.659 256.01 184.868 256.383C184.077 256.757 183.161 256.901 182.119 256.814C181.077 256.728 180.192 256.436 179.462 255.937C178.744 255.439 178.21 254.769 177.862 253.926C177.525 253.085 177.403 252.101 177.496 250.974C177.589 249.847 177.871 248.897 178.342 248.122C178.823 247.348 179.459 246.775 180.25 246.401C181.051 246.029 181.973 245.885 183.015 245.971ZM182.866 247.773C182.27 247.724 181.754 247.821 181.317 248.063C180.879 248.305 180.527 248.688 180.259 249.212C180.002 249.726 179.841 250.376 179.776 251.163C179.712 251.939 179.764 252.606 179.932 253.166C180.11 253.727 180.396 254.162 180.787 254.473C181.179 254.784 181.673 254.963 182.268 255.013C182.853 255.061 183.364 254.964 183.801 254.722C184.239 254.48 184.586 254.096 184.843 253.572C185.111 253.048 185.277 252.398 185.341 251.622C185.406 250.835 185.349 250.167 185.17 249.617C185.002 249.057 184.722 248.622 184.33 248.312C183.939 248.001 183.45 247.822 182.866 247.773ZM194.834 246.947C195.875 247.033 196.756 247.325 197.475 247.824C198.193 248.322 198.721 248.991 199.059 249.833C199.406 250.675 199.534 251.659 199.441 252.786C199.348 253.913 199.061 254.863 198.579 255.637C198.109 256.412 197.478 256.986 196.687 257.359C195.896 257.733 194.98 257.876 193.938 257.79C192.897 257.704 192.011 257.412 191.282 256.913C190.563 256.415 190.029 255.744 189.682 254.902C189.344 254.061 189.222 253.077 189.315 251.95C189.408 250.823 189.69 249.873 190.161 249.098C190.642 248.324 191.278 247.751 192.069 247.377C192.87 247.005 193.792 246.861 194.834 246.947ZM194.685 248.749C194.09 248.7 193.573 248.797 193.136 249.039C192.698 249.281 192.346 249.664 192.078 250.187C191.821 250.701 191.66 251.352 191.596 252.138C191.531 252.914 191.583 253.582 191.751 254.142C191.93 254.703 192.215 255.138 192.607 255.449C192.998 255.759 193.492 255.939 194.087 255.989C194.672 256.037 195.183 255.94 195.62 255.698C196.058 255.456 196.405 255.072 196.662 254.548C196.93 254.024 197.097 253.374 197.161 252.598C197.226 251.811 197.168 251.143 196.989 250.593C196.821 250.033 196.541 249.598 196.15 249.288C195.758 248.977 195.27 248.797 194.685 248.749ZM211.168 248.457L205.901 253.528L205.74 253.338L202.863 256.103L202.697 254.034L208.617 248.246L211.168 248.457ZM204.296 247.889L203.427 258.413L201.226 258.232L202.095 247.707L204.296 247.889ZM206.658 251.745L210.427 258.991L207.907 258.783L204.867 252.833L206.658 251.745ZM215.118 248.783L214.249 259.307L212.049 259.125L212.918 248.601L215.118 248.783ZM226.895 249.755L226.026 260.279L223.507 260.071L220.334 253.58L219.568 251.783L219.552 251.782L219.465 253.605L218.962 259.696L216.985 259.533L217.854 249.009L220.357 249.215L223.531 255.691L224.297 257.504L224.329 257.506L224.415 255.683L224.918 249.592L226.895 249.755ZM233.081 261.022C232.114 260.943 231.281 260.66 230.583 260.174C229.895 259.689 229.382 259.026 229.045 258.185C228.708 257.343 228.586 256.354 228.68 255.217C228.773 254.09 229.066 253.14 229.557 252.367C230.05 251.584 230.703 251.006 231.515 250.634C232.337 250.263 233.264 250.121 234.295 250.206C235.433 250.3 236.335 250.588 237.001 251.071C237.669 251.544 238.173 252.238 238.515 253.155L236.402 253.863C236.278 253.286 236.02 252.847 235.627 252.547C235.246 252.237 234.758 252.058 234.163 252.009C233.567 251.96 233.04 252.061 232.58 252.312C232.122 252.552 231.753 252.934 231.474 253.457C231.197 253.969 231.026 254.613 230.962 255.389C230.896 256.186 230.952 256.87 231.129 257.442C231.308 258.002 231.603 258.439 232.016 258.751C232.441 259.054 232.977 259.232 233.626 259.285C233.977 259.314 234.304 259.299 234.609 259.238C234.924 259.179 235.201 259.073 235.438 258.921C235.675 258.77 235.869 258.566 236.018 258.311C236.168 258.056 236.257 257.753 236.286 257.402L236.306 257.163L233.547 256.935L233.68 255.324L238.336 255.709L237.878 261.258L236.331 261.13L236.361 258.821L236.722 259.124C236.43 259.806 235.971 260.314 235.344 260.647C234.728 260.971 233.974 261.096 233.081 261.022ZM247.517 260.272L253.066 260.73L252.92 262.5L245.17 261.86L246.039 251.336L248.24 251.518L247.517 260.272ZM263.884 263.405L261.604 263.217L260.939 260.577L256.904 260.244L255.816 262.739L253.567 262.553L258.279 252.347L260.91 252.564L263.884 263.405ZM257.533 258.659L260.579 258.91L259.427 254.191L257.533 258.659ZM265.445 263.534L266.314 253.01L270.922 253.391C272.198 253.496 273.118 253.823 273.683 254.373C274.248 254.923 274.492 255.655 274.417 256.569C274.37 257.132 274.159 257.618 273.783 258.026C273.407 258.433 272.884 258.669 272.215 258.731L272.214 258.747C272.939 258.914 273.479 259.237 273.836 259.716C274.192 260.195 274.345 260.742 274.294 261.359C274.22 262.263 273.832 262.942 273.13 263.398C272.44 263.855 271.467 264.031 270.213 263.928L265.445 263.534ZM267.719 262.052L270.158 262.254C270.754 262.303 271.205 262.217 271.512 261.996C271.819 261.775 271.991 261.447 272.027 261.011C272.064 260.565 271.948 260.213 271.681 259.955C271.413 259.698 270.982 259.544 270.386 259.495L267.947 259.294L267.719 262.052ZM268.086 257.603L270.271 257.784C271.429 257.88 272.046 257.476 272.121 256.572C272.195 255.668 271.653 255.169 270.495 255.073L268.31 254.893L268.086 257.603Z" fill="#095BDC"/>
<path d="M209.067 99.3189L215.545 128.443L241.881 114.423L228.123 140.897L257.31 147.086L229.753 158.523L248.134 182.024L219.672 173.072L218.646 202.891L202.598 177.738L182.645 199.921L186.519 170.337L156.975 174.505L178.959 154.333L153.648 138.535L183.455 137.213L174.221 108.841L197.904 126.988L209.067 99.3189Z" fill="#F7F3E9"/>
</g>
<defs>
<clipPath id="clip0_185_2859">
<rect width="400" height="300" fill="white"/>
</clipPath>
</defs>
</svg>
