<svg width="400" height="300" viewBox="0 0 400 300" fill="none" xmlns="http://www.w3.org/2000/svg">
<g clip-path="url(#clip0_185_2875)">
<path fill-rule="evenodd" clip-rule="evenodd" d="M80 128C98.2254 128 113 113.225 113 95L80 95L47 95C47 113.225 61.7746 128 80 128ZM80 95C61.7746 95 47 80.2254 47 62H113C113 80.2254 98.2254 95 80 95Z" fill="#095BDC"/>
<path d="M118.568 106.698C120.278 98.0281 128.692 92.3861 137.362 94.0959L324.752 131.053C333.422 132.763 339.064 141.177 337.354 149.847L297.882 349.991C296.172 358.661 287.758 364.303 279.088 362.593L91.6976 325.636C83.0281 323.926 77.3861 315.512 79.0959 306.842L118.568 106.698Z" fill="#FCD373"/>
<path d="M131.978 237.606L128.658 254.442L124.27 253.577L127.591 236.741L131.978 237.606ZM132.035 255.108L134.551 242.354L138.428 243.118L137.792 247.551L137.403 246.971C137.754 246.086 138.203 245.38 138.749 244.851C139.312 244.326 139.946 243.974 140.653 243.796C141.38 243.603 142.152 243.588 142.968 243.749C143.852 243.923 144.584 244.244 145.163 244.712C145.759 245.183 146.179 245.787 146.422 246.524C146.666 247.261 146.688 248.131 146.49 249.134L144.815 257.629L140.479 256.773L141.927 249.427C142.102 248.543 142.053 247.897 141.78 247.49C141.507 247.082 141.106 246.827 140.579 246.723C140.171 246.642 139.768 246.669 139.371 246.803C138.977 246.919 138.636 247.17 138.348 247.555C138.06 247.94 137.846 248.489 137.705 249.204L136.372 255.963L132.035 255.108ZM156.425 242.454L154.006 254.724C153.885 255.336 153.942 255.807 154.178 256.136C154.434 256.451 154.825 256.661 155.352 256.765C155.76 256.846 156.117 256.872 156.423 256.844C156.749 256.802 157.05 256.711 157.325 256.571L157.256 259.34C156.77 259.562 156.188 259.695 155.508 259.737C154.828 259.78 154.148 259.734 153.468 259.6C152.499 259.409 151.684 259.107 151.023 258.694C150.38 258.284 149.921 257.743 149.647 257.071C149.39 256.402 149.351 255.573 149.528 254.583L151.853 242.798L156.425 242.454ZM159.426 247.26L158.818 250.346L148.487 248.309L149.095 245.222L159.426 247.26ZM165.088 261.892C163.676 261.613 162.504 261.108 161.571 260.377C160.654 259.648 160.013 258.735 159.646 257.638C159.279 256.541 159.233 255.296 159.508 253.901C159.783 252.507 160.299 251.372 161.055 250.496C161.81 249.62 162.742 249.018 163.849 248.689C164.973 248.363 166.19 248.329 167.5 248.587C168.843 248.852 169.931 249.34 170.762 250.052C171.614 250.75 172.196 251.607 172.508 252.622C172.823 253.621 172.865 254.707 172.634 255.88C172.573 256.186 172.504 256.491 172.427 256.793C172.35 257.096 172.274 257.346 172.2 257.544L162.098 255.551L162.556 253.23L170.744 254.845L168.522 255.228C168.723 254.208 168.69 253.389 168.424 252.771C168.174 252.156 167.666 251.773 166.901 251.623C166.357 251.515 165.864 251.55 165.423 251.728C164.998 251.91 164.63 252.252 164.319 252.756C164.025 253.264 163.793 253.942 163.626 254.793C163.461 255.626 163.438 256.328 163.555 256.899C163.675 257.453 163.916 257.889 164.277 258.207C164.642 258.509 165.113 258.717 165.691 258.831C166.338 258.958 166.873 258.931 167.297 258.75C167.739 258.572 168.098 258.272 168.376 257.85L171.619 259.682C171.237 260.366 170.697 260.904 170.002 261.297C169.326 261.676 168.555 261.913 167.689 262.007C166.839 262.105 165.972 262.066 165.088 261.892ZM173.686 263.322L176.201 250.568L180.028 251.323L179.663 254.113C180.174 253.224 180.796 252.578 181.529 252.175C182.279 251.776 183.148 251.673 184.134 251.868C184.457 251.931 184.724 252.01 184.935 252.105C185.163 252.203 185.337 252.308 185.456 252.42L184.318 255.906C184.162 255.804 183.95 255.709 183.685 255.622C183.44 255.52 183.131 255.433 182.756 255.359C182.246 255.258 181.748 255.275 181.262 255.409C180.777 255.543 180.354 255.804 179.995 256.192C179.656 256.567 179.421 257.086 179.29 257.75L178.023 264.178L173.686 263.322ZM184.647 265.484L187.162 252.73L191.04 253.495L190.679 255.994C191.265 255.173 191.969 254.605 192.791 254.29C193.629 253.979 194.534 253.919 195.503 254.11C196.455 254.298 197.238 254.673 197.851 255.235C198.465 255.798 198.859 256.53 199.035 257.43C199.418 256.922 199.859 256.524 200.358 256.233C200.874 255.946 201.431 255.765 202.029 255.688C202.627 255.612 203.223 255.632 203.819 255.75C204.669 255.917 205.384 256.235 205.963 256.703C206.545 257.153 206.957 257.756 207.197 258.51C207.457 259.25 207.488 260.122 207.29 261.125L205.615 269.619L201.278 268.764L202.758 261.265C202.919 260.448 202.869 259.847 202.61 259.46C202.368 259.077 201.983 258.833 201.456 258.729C201.03 258.645 200.618 258.678 200.217 258.829C199.836 258.966 199.511 259.229 199.24 259.617C198.969 260.005 198.77 260.522 198.642 261.169L197.299 267.979L192.963 267.124L194.442 259.625C194.603 258.808 194.554 258.207 194.294 257.82C194.035 257.433 193.65 257.189 193.14 257.089C192.749 257.012 192.354 257.04 191.957 257.174C191.577 257.311 191.241 257.58 190.95 257.982C190.662 258.367 190.449 258.908 190.311 259.605L188.983 266.339L184.647 265.484ZM214.835 271.703C213.423 271.424 212.251 270.919 211.317 270.188C210.401 269.459 209.759 268.546 209.393 267.449C209.026 266.352 208.98 265.107 209.255 263.712C209.53 262.318 210.046 261.183 210.801 260.307C211.557 259.431 212.489 258.829 213.596 258.5C214.72 258.174 215.937 258.14 217.247 258.398C218.59 258.663 219.677 259.151 220.509 259.863C221.36 260.561 221.942 261.418 222.254 262.433C222.57 263.432 222.612 264.518 222.38 265.691C222.32 265.997 222.251 266.302 222.174 266.605C222.096 266.907 222.021 267.157 221.946 267.355L211.845 265.362L212.303 263.041L220.491 264.656L218.269 265.039C218.47 264.019 218.437 263.2 218.171 262.582C217.921 261.967 217.413 261.584 216.648 261.434C216.104 261.326 215.611 261.362 215.169 261.54C214.745 261.721 214.377 262.063 214.066 262.567C213.771 263.075 213.54 263.753 213.373 264.604C213.208 265.437 213.185 266.139 213.302 266.71C213.422 267.264 213.663 267.7 214.024 268.018C214.389 268.32 214.86 268.528 215.438 268.642C216.085 268.769 216.62 268.742 217.044 268.561C217.486 268.383 217.845 268.083 218.123 267.661L221.366 269.493C220.983 270.177 220.444 270.716 219.749 271.108C219.073 271.487 218.302 271.724 217.435 271.818C216.586 271.916 215.719 271.877 214.835 271.703ZM228.076 274.314C227.022 274.106 226.145 273.668 225.447 273.001C224.768 272.319 224.305 271.442 224.058 270.368C223.827 269.298 223.848 268.074 224.119 266.697C224.401 265.268 224.86 264.104 225.497 263.205C226.151 262.31 226.929 261.677 227.832 261.307C228.753 260.941 229.74 260.862 230.794 261.07C231.951 261.298 232.807 261.838 233.363 262.69C233.94 263.528 234.223 264.511 234.213 265.64L233.699 266.095L235.56 256.657L239.897 257.512L236.315 275.674L232.437 274.909L233.012 270.518L233.447 271.001C233.177 271.831 232.768 272.519 232.218 273.064C231.686 273.613 231.062 274.002 230.345 274.232C229.649 274.448 228.892 274.475 228.076 274.314ZM230.21 271.423C230.703 271.52 231.145 271.474 231.535 271.286C231.946 271.085 232.297 270.739 232.588 270.248C232.879 269.758 233.1 269.13 233.251 268.365C233.392 267.651 233.418 267.029 233.328 266.499C233.258 265.955 233.07 265.52 232.763 265.195C232.477 264.856 232.087 264.637 231.594 264.54C230.846 264.393 230.195 264.556 229.642 265.03C229.11 265.49 228.726 266.316 228.491 267.506C228.257 268.696 228.296 269.614 228.611 270.259C228.929 270.887 229.462 271.275 230.21 271.423ZM244.401 262.481C243.517 262.307 242.902 262.018 242.558 261.614C242.234 261.197 242.142 260.631 242.283 259.917C242.427 259.186 242.727 258.697 243.182 258.451C243.657 258.192 244.337 258.149 245.221 258.324C246.088 258.495 246.693 258.79 247.034 259.211C247.378 259.615 247.478 260.182 247.334 260.913C247.193 261.628 246.885 262.114 246.41 262.374C245.938 262.617 245.268 262.652 244.401 262.481ZM246.278 264.389L243.762 277.143L239.426 276.288L241.941 263.533L246.278 264.389ZM255.561 271.069C255.678 270.474 255.6 269.973 255.327 269.565C255.075 269.145 254.668 268.879 254.106 268.768C253.545 268.657 253.032 268.706 252.567 268.915C252.122 269.11 251.753 269.549 251.459 270.234L247.957 268.642C248.436 267.464 249.258 266.611 250.423 266.081C251.587 265.551 253.097 265.468 254.95 265.834C256.192 266.079 257.209 266.474 258.003 267.019C258.816 267.55 259.381 268.227 259.696 269.049C260.031 269.857 260.095 270.788 259.887 271.843L258.966 276.511C258.835 277.174 259.068 277.564 259.663 277.682C259.969 277.742 260.222 277.757 260.423 277.726L259.68 280.15C259.122 280.287 258.478 280.284 257.747 280.139C257.084 280.009 256.517 279.791 256.047 279.486C255.581 279.165 255.245 278.763 255.04 278.28C254.838 277.781 254.802 277.2 254.933 276.537L254.963 276.384L255.483 276.301C255.339 277.032 254.997 277.601 254.458 278.007C253.935 278.416 253.302 278.671 252.558 278.771C251.83 278.875 251.093 278.854 250.344 278.706C249.477 278.535 248.747 278.25 248.155 277.85C247.562 277.451 247.138 276.961 246.881 276.38C246.645 275.786 246.602 275.106 246.753 274.341C246.934 273.422 247.356 272.719 248.017 272.231C248.699 271.73 249.659 271.477 250.896 271.474L255.914 271.43L255.435 273.721L252.886 273.748C252.356 273.749 251.943 273.827 251.647 273.981C251.372 274.121 251.196 274.387 251.119 274.778C251.045 275.152 251.126 275.459 251.361 275.7C251.597 275.941 251.901 276.098 252.275 276.172C252.564 276.229 252.845 276.24 253.117 276.205C253.406 276.174 253.669 276.093 253.906 275.963C254.147 275.817 254.354 275.619 254.527 275.37C254.7 275.122 254.823 274.81 254.897 274.436L255.561 271.069ZM269.77 264.808L267.35 277.078C267.229 277.69 267.286 278.161 267.522 278.49C267.778 278.805 268.169 279.015 268.696 279.119C269.104 279.199 269.461 279.225 269.767 279.197C270.093 279.156 270.394 279.065 270.669 278.925L270.6 281.694C270.114 281.916 269.532 282.048 268.852 282.091C268.172 282.134 267.492 282.088 266.812 281.954C265.843 281.763 265.028 281.461 264.367 281.048C263.724 280.638 263.265 280.097 262.991 279.425C262.734 278.756 262.695 277.926 262.872 276.937L265.197 265.152L269.77 264.808ZM272.77 269.613L272.162 272.7L261.831 270.663L262.439 267.576L272.77 269.613ZM278.432 284.245C277.02 283.967 275.848 283.462 274.915 282.73C273.998 282.002 273.357 281.089 272.99 279.992C272.623 278.895 272.578 277.649 272.853 276.255C273.128 274.86 273.643 273.725 274.399 272.85C275.154 271.974 276.086 271.372 277.193 271.042C278.318 270.716 279.534 270.682 280.844 270.941C282.187 271.206 283.275 271.694 284.106 272.406C284.958 273.104 285.54 273.96 285.852 274.976C286.167 275.974 286.209 277.06 285.978 278.234C285.917 278.54 285.848 278.844 285.771 279.147C285.694 279.45 285.618 279.7 285.544 279.897L275.442 277.905L275.9 275.584L284.088 277.199L281.866 277.582C282.067 276.562 282.035 275.742 281.768 275.125C281.518 274.51 281.01 274.127 280.245 273.976C279.701 273.869 279.208 273.904 278.767 274.082C278.342 274.263 277.974 274.606 277.663 275.11C277.369 275.617 277.138 276.296 276.97 277.146C276.806 277.98 276.782 278.682 276.899 279.252C277.019 279.806 277.26 280.242 277.621 280.561C277.986 280.863 278.457 281.07 279.036 281.184C279.682 281.312 280.217 281.285 280.642 281.104C281.083 280.926 281.443 280.626 281.72 280.203L284.963 282.035C284.581 282.72 284.042 283.258 283.346 283.651C282.67 284.03 281.899 284.267 281.033 284.361C280.183 284.458 279.316 284.42 278.432 284.245Z" fill="#095BDC"/>
<path opacity="0.7" d="M124.371 265.257L122.328 275.617L120.161 275.19L122.205 264.83L124.371 265.257ZM125.021 276.148L127.064 265.788L134.835 267.321L134.491 269.063L128.887 267.958L128.379 270.532L132.79 271.402L132.462 273.066L128.051 272.196L127.531 274.833L133.355 275.982L133.011 277.724L125.021 276.148ZM137.465 276.792L142.927 277.87L142.584 279.612L134.955 278.108L136.998 267.747L139.164 268.174L137.465 276.792ZM152.52 270.808L152.176 272.551L148.707 271.867L147.007 280.485L144.841 280.057L146.541 271.439L143.056 270.752L143.399 269.01L152.52 270.808ZM157.813 271.689C158.754 271.875 159.549 272.2 160.197 272.665C160.845 273.13 161.357 273.731 161.733 274.468L160.249 275.627C159.927 274.998 159.534 274.508 159.071 274.155C158.621 273.795 158.06 273.548 157.391 273.416C156.951 273.329 156.573 273.315 156.258 273.372C155.952 273.431 155.713 273.542 155.54 273.703C155.377 273.867 155.273 274.064 155.228 274.294C155.172 274.577 155.234 274.839 155.415 275.081C155.598 275.313 155.943 275.544 156.452 275.775L158.296 276.596C159.277 277.028 159.941 277.518 160.29 278.065C160.651 278.604 160.76 279.234 160.618 279.956C160.484 280.636 160.19 281.187 159.738 281.609C159.287 282.02 158.716 282.294 158.026 282.43C157.339 282.555 156.581 282.536 155.755 282.373C155.032 282.23 154.384 282.016 153.81 281.729C153.249 281.433 152.763 281.087 152.352 280.691C151.941 280.294 151.617 279.866 151.382 279.407L152.894 278.188C153.069 278.571 153.308 278.928 153.612 279.26C153.917 279.591 154.278 279.88 154.697 280.126C155.129 280.363 155.596 280.531 156.098 280.63C156.527 280.715 156.898 280.739 157.209 280.703C157.533 280.658 157.786 280.561 157.968 280.412C158.162 280.255 158.285 280.045 158.336 279.783C158.39 279.511 158.341 279.263 158.19 279.037C158.051 278.803 157.746 278.585 157.275 278.384L155.265 277.498C154.686 277.232 154.2 276.94 153.806 276.623C153.425 276.298 153.155 275.929 152.997 275.518C152.851 275.098 152.829 274.631 152.93 274.118C153.052 273.501 153.329 272.979 153.761 272.554C154.193 272.128 154.75 271.835 155.434 271.677C156.13 271.51 156.923 271.514 157.813 271.689ZM176.288 283.291C175.957 283.922 175.533 284.42 175.015 284.785C174.497 285.151 173.924 285.385 173.294 285.49C172.665 285.594 172 285.577 171.299 285.438C170.273 285.236 169.426 284.846 168.757 284.269C168.099 283.693 167.644 282.967 167.392 282.091C167.152 281.218 167.141 280.226 167.359 279.117C167.578 278.007 167.965 277.094 168.519 276.377C169.084 275.663 169.781 275.164 170.608 274.881C171.446 274.601 172.368 274.56 173.372 274.758C174.084 274.898 174.708 275.125 175.244 275.437C175.783 275.739 176.212 276.128 176.531 276.604C176.861 277.082 177.06 277.643 177.128 278.287L175.002 278.732C174.948 278.069 174.764 277.571 174.449 277.237C174.136 276.893 173.692 276.664 173.117 276.55C172.552 276.439 172.028 276.477 171.545 276.664C171.073 276.854 170.669 277.193 170.333 277.681C170 278.159 169.757 278.785 169.604 279.559C169.453 280.323 169.43 280.993 169.534 281.568C169.649 282.145 169.888 282.611 170.253 282.965C170.618 283.32 171.104 283.557 171.711 283.677C172.276 283.788 172.793 283.733 173.261 283.51C173.739 283.289 174.123 282.886 174.412 282.302L176.288 283.291ZM184.119 276.877C185.145 277.08 185.987 277.469 186.645 278.044C187.304 278.62 187.753 279.344 187.994 280.218C188.245 281.094 188.262 282.087 188.043 283.196C187.824 284.305 187.432 285.217 186.867 285.932C186.313 286.649 185.622 287.149 184.794 287.431C183.966 287.714 183.04 287.754 182.014 287.552C180.989 287.349 180.141 286.96 179.472 286.382C178.814 285.806 178.359 285.081 178.108 284.205C177.867 283.331 177.856 282.339 178.075 281.23C178.294 280.121 178.68 279.208 179.235 278.491C179.8 277.776 180.496 277.277 181.324 276.995C182.162 276.714 183.094 276.675 184.119 276.877ZM183.769 278.651C183.183 278.536 182.659 278.574 182.198 278.765C181.736 278.957 181.342 279.298 181.017 279.788C180.705 280.27 180.472 280.898 180.32 281.673C180.169 282.437 180.146 283.106 180.25 283.681C180.364 284.258 180.599 284.723 180.953 285.076C181.308 285.428 181.778 285.662 182.364 285.778C182.939 285.891 183.458 285.852 183.92 285.661C184.382 285.469 184.77 285.127 185.085 284.635C185.41 284.144 185.647 283.517 185.798 282.753C185.951 281.979 185.969 281.308 185.852 280.742C185.748 280.167 185.519 279.703 185.165 279.35C184.81 278.998 184.345 278.765 183.769 278.651ZM195.755 279.172C196.78 279.374 197.622 279.763 198.281 280.339C198.939 280.914 199.389 281.639 199.629 282.513C199.881 283.389 199.897 284.381 199.678 285.491C199.459 286.6 199.067 287.512 198.502 288.227C197.948 288.944 197.257 289.444 196.429 289.726C195.602 290.009 194.675 290.049 193.649 289.846C192.624 289.644 191.777 289.254 191.108 288.677C190.449 288.101 189.994 287.375 189.743 286.499C189.502 285.626 189.491 284.634 189.71 283.525C189.929 282.415 190.316 281.502 190.87 280.785C191.435 280.071 192.131 279.572 192.959 279.289C193.797 279.009 194.729 278.97 195.755 279.172ZM195.405 280.946C194.819 280.83 194.295 280.868 193.833 281.06C193.371 281.252 192.978 281.593 192.653 282.083C192.34 282.565 192.108 283.193 191.955 283.967C191.804 284.731 191.781 285.401 191.885 285.976C191.999 286.553 192.234 287.018 192.588 287.37C192.943 287.723 193.413 287.957 193.999 288.073C194.575 288.186 195.093 288.147 195.555 287.955C196.017 287.764 196.405 287.422 196.72 286.929C197.045 286.439 197.283 285.812 197.433 285.048C197.586 284.274 197.604 283.603 197.488 283.036C197.384 282.461 197.154 281.998 196.8 281.645C196.445 281.292 195.98 281.059 195.405 280.946ZM211.817 282.503L206.014 286.952L205.876 286.746L202.707 289.17L202.773 287.096L209.305 282.008L211.817 282.503ZM205.051 281.169L203.008 291.529L200.842 291.102L202.885 280.741L205.051 281.169ZM206.967 285.265L209.899 292.888L207.419 292.399L205.065 286.145L206.967 285.265ZM215.705 283.27L213.662 293.63L211.496 293.203L213.539 282.843L215.705 283.27ZM227.299 285.556L225.256 295.917L222.776 295.428L220.351 288.622L219.79 286.75L219.775 286.747L219.485 288.549L218.302 294.545L216.355 294.161L218.399 283.801L220.863 284.287L223.291 291.077L223.849 292.965L223.88 292.971L224.17 291.169L225.353 285.172L227.299 285.556ZM232.183 297.446C231.231 297.258 230.435 296.884 229.795 296.323C229.166 295.764 228.731 295.048 228.49 294.174C228.25 293.3 228.24 292.303 228.461 291.183C228.679 290.074 229.076 289.163 229.652 288.45C230.229 287.727 230.942 287.226 231.791 286.948C232.65 286.671 233.587 286.633 234.602 286.834C235.722 287.054 236.586 287.442 237.194 287.997C237.804 288.541 238.228 289.288 238.465 290.237L236.285 290.704C236.227 290.117 236.02 289.652 235.663 289.31C235.319 288.959 234.854 288.726 234.268 288.611C233.682 288.495 233.147 288.536 232.662 288.734C232.179 288.922 231.77 289.259 231.435 289.748C231.101 290.226 230.859 290.846 230.708 291.61C230.554 292.395 230.532 293.082 230.645 293.669C230.759 294.246 231.004 294.713 231.38 295.07C231.768 295.418 232.281 295.655 232.919 295.781C233.265 295.849 233.592 295.87 233.901 295.844C234.221 295.82 234.508 295.746 234.761 295.622C235.013 295.498 235.228 295.318 235.406 295.081C235.583 294.844 235.705 294.553 235.774 294.208L235.82 293.972L233.104 293.437L233.417 291.851L238.001 292.755L236.923 298.218L235.401 297.918L235.689 295.626L236.014 295.967C235.647 296.613 235.134 297.066 234.473 297.327C233.826 297.58 233.062 297.619 232.183 297.446ZM246.612 298.318L252.075 299.396L251.731 301.138L244.102 299.634L246.145 289.273L248.312 289.7L246.612 298.318ZM262.525 303.267L260.28 302.824L259.915 300.127L255.943 299.343L254.582 301.7L252.368 301.264L258.195 291.65L260.785 292.16L262.525 303.267ZM256.746 297.838L259.744 298.43L259.129 293.611L256.746 297.838ZM264.061 303.57L266.105 293.21L270.641 294.104C271.897 294.352 272.775 294.781 273.274 295.39C273.774 296 273.935 296.754 273.757 297.654C273.648 298.209 273.384 298.668 272.964 299.031C272.545 299.394 271.999 299.569 271.327 299.556L271.324 299.572C272.026 299.819 272.527 300.2 272.827 300.716C273.128 301.232 273.218 301.794 273.099 302.401C272.923 303.29 272.461 303.922 271.714 304.296C270.976 304.673 269.99 304.739 268.755 304.496L264.061 303.57ZM266.487 302.352L268.889 302.826C269.475 302.942 269.933 302.907 270.263 302.722C270.593 302.537 270.8 302.23 270.885 301.801C270.971 301.361 270.896 300.999 270.659 300.713C270.422 300.427 270.01 300.226 269.424 300.11L267.023 299.637L266.487 302.352ZM267.351 297.973L269.501 298.397C270.642 298.622 271.3 298.29 271.475 297.4C271.651 296.51 271.168 295.953 270.028 295.728L267.877 295.304L267.351 297.973Z" fill="#095BDC"/>
<path d="M140.81 195.483C178.441 171.519 227.616 222.36 193.363 228.142C161.866 233.459 168.416 168.812 203.308 166.205C248.164 162.886 281.416 215.914 241.081 216.231C201.219 216.642 240.377 153.808 266.226 146.011" stroke="#F7F3E9" stroke-width="8" stroke-linecap="round"/>
<path d="M75.6024 116.816C74.5706 108.04 80.8486 100.089 89.6247 99.0574L279.318 76.7548C288.094 75.7229 296.045 82.0009 297.077 90.777L324.743 326.087C325.775 334.863 319.497 342.814 310.721 343.846L121.027 366.148C112.251 367.18 104.3 360.902 103.268 352.126L75.6024 116.816Z" fill="#EBBCEA"/>
<path d="M116.558 255.986L115.405 246.174C115.352 245.726 115.298 245.27 115.244 244.805C115.204 244.321 115.155 243.829 115.096 243.33C114.589 243.913 114.014 244.443 113.372 244.92C112.728 245.38 112.036 245.723 111.294 245.95L110.45 242.332C110.894 242.245 111.354 242.077 111.831 241.829C112.325 241.579 112.805 241.287 113.272 240.953C113.739 240.619 114.152 240.273 114.512 239.917C114.869 239.543 115.133 239.19 115.303 238.855L118.841 238.439L120.845 255.482L116.558 255.986ZM125.098 241.631C125.907 241.536 126.559 241.668 127.055 242.029C127.569 242.387 127.869 242.937 127.956 243.677C128.041 244.4 127.875 244.995 127.459 245.463C127.06 245.929 126.456 246.209 125.647 246.304C124.855 246.398 124.203 246.265 123.689 245.906C123.176 245.548 122.877 245.007 122.792 244.284C122.705 243.544 122.869 242.94 123.285 242.472C123.702 242.004 124.306 241.724 125.098 241.631ZM126.124 250.359C126.933 250.263 127.585 250.396 128.082 250.757C128.595 251.115 128.895 251.665 128.982 252.405C129.067 253.128 128.902 253.723 128.485 254.191C128.086 254.657 127.482 254.937 126.673 255.032C125.881 255.125 125.229 254.993 124.715 254.634C124.202 254.276 123.903 253.735 123.818 253.012C123.731 252.272 123.895 251.668 124.312 251.2C124.728 250.732 125.332 250.452 126.124 250.359ZM135.471 253.762L134.317 243.95C134.265 243.502 134.211 243.046 134.156 242.581C134.117 242.097 134.068 241.606 134.009 241.107C133.502 241.69 132.927 242.22 132.285 242.697C131.641 243.156 130.948 243.5 130.207 243.726L129.363 240.108C129.806 240.021 130.267 239.854 130.743 239.606C131.238 239.355 131.718 239.063 132.185 238.729C132.652 238.395 133.065 238.05 133.425 237.693C133.782 237.32 134.046 236.966 134.216 236.632L137.754 236.216L139.757 253.258L135.471 253.762ZM168.657 232.582L170.661 249.625L166.736 250.086L165.816 242.262L165.329 237.005L165.278 237.011L162.605 250.572L159.015 250.994L153.27 238.423L153.219 238.429L153.964 243.656L154.884 251.48L150.933 251.944L148.929 234.902L155.256 234.158L158.961 242.519L160.342 246.021L160.393 246.015L160.953 242.311L162.589 233.296L168.657 232.582ZM180.381 248.744C178.952 248.912 177.681 248.791 176.568 248.381C175.473 247.969 174.582 247.297 173.897 246.365C173.211 245.433 172.785 244.262 172.619 242.85C172.453 241.438 172.596 240.2 173.046 239.135C173.497 238.069 174.199 237.21 175.152 236.557C176.122 235.902 177.27 235.497 178.595 235.341C179.955 235.181 181.14 235.312 182.15 235.734C183.174 236.138 183.991 236.775 184.6 237.645C185.206 238.499 185.579 239.52 185.719 240.708C185.755 241.018 185.783 241.328 185.802 241.64C185.822 241.952 185.826 242.214 185.816 242.424L175.59 243.626L175.314 241.277L183.603 240.302L181.606 241.348C181.484 240.316 181.202 239.546 180.758 239.04C180.332 238.531 179.731 238.323 178.957 238.414C178.406 238.478 177.948 238.663 177.582 238.968C177.234 239.271 176.989 239.71 176.847 240.285C176.722 240.858 176.71 241.575 176.812 242.436C176.911 243.279 177.104 243.955 177.39 244.462C177.675 244.952 178.038 245.293 178.479 245.486C178.919 245.661 179.431 245.714 180.016 245.645C180.671 245.568 181.172 245.379 181.52 245.076C181.886 244.771 182.136 244.375 182.271 243.888L185.919 244.637C185.765 245.406 185.417 246.084 184.875 246.671C184.349 247.239 183.688 247.701 182.892 248.056C182.113 248.41 181.276 248.639 180.381 248.744ZM189.003 247.468L187.485 234.557L191.41 234.096L192.165 238.51L191.617 238.077C191.68 237.127 191.89 236.317 192.247 235.647C192.622 234.974 193.118 234.445 193.736 234.058C194.369 233.652 195.098 233.401 195.925 233.303C196.82 233.198 197.615 233.279 198.309 233.547C199.021 233.812 199.606 234.258 200.064 234.885C200.521 235.512 200.81 236.333 200.929 237.349L201.94 245.947L197.551 246.464L196.676 239.027C196.571 238.132 196.326 237.532 195.941 237.228C195.556 236.924 195.097 236.804 194.563 236.867C194.15 236.915 193.775 237.064 193.438 237.313C193.099 237.545 192.851 237.888 192.695 238.343C192.539 238.798 192.504 239.386 192.589 240.109L193.393 246.952L189.003 247.468ZM208.337 227.943L209.797 240.364C209.87 240.984 210.069 241.414 210.394 241.655C210.734 241.877 211.171 241.956 211.705 241.894C212.118 241.845 212.466 241.76 212.748 241.64C213.046 241.5 213.304 241.322 213.523 241.104L214.306 243.761C213.912 244.121 213.399 244.426 212.765 244.675C212.131 244.924 211.469 245.089 210.781 245.17C209.8 245.285 208.931 245.248 208.176 245.057C207.438 244.865 206.835 244.491 206.368 243.935C205.919 243.377 205.627 242.599 205.492 241.603L204.09 229.673L208.337 227.943ZM212.667 231.597L213.034 234.721L202.576 235.951L202.209 232.826L212.667 231.597ZM220.81 230.378C222.17 230.218 223.389 230.345 224.467 230.759C225.561 231.154 226.452 231.826 227.139 232.775C227.842 233.705 228.276 234.875 228.442 236.287C228.608 237.698 228.458 238.946 227.992 240.031C227.541 241.096 226.831 241.956 225.861 242.611C224.906 243.247 223.748 243.645 222.388 243.805C221.063 243.961 219.853 243.841 218.76 243.446C217.664 243.034 216.765 242.363 216.062 241.434C215.375 240.485 214.948 239.304 214.782 237.893C214.616 236.481 214.758 235.243 215.209 234.178C215.675 233.093 216.394 232.232 217.366 231.594C218.336 230.939 219.484 230.533 220.81 230.378ZM221.177 233.502C220.678 233.561 220.262 233.732 219.929 234.015C219.595 234.299 219.365 234.719 219.239 235.275C219.112 235.83 219.099 236.53 219.198 237.374C219.297 238.217 219.472 238.895 219.725 239.406C219.975 239.9 220.296 240.255 220.688 240.471C221.077 240.669 221.522 240.739 222.021 240.681C222.538 240.62 222.962 240.448 223.296 240.164C223.627 239.864 223.857 239.444 223.985 238.905C224.112 238.349 224.126 237.649 224.026 236.806C223.927 235.962 223.752 235.285 223.5 234.774C223.247 234.262 222.926 233.907 222.537 233.709C222.147 233.51 221.694 233.441 221.177 233.502ZM231.67 242.452L230.152 229.541L234.026 229.086L234.534 231.853C234.748 230.851 235.142 230.045 235.716 229.437C236.308 228.826 237.103 228.462 238.101 228.345C238.428 228.306 238.707 228.3 238.937 228.325C239.184 228.348 239.381 228.395 239.529 228.465L239.515 232.131C239.335 232.083 239.105 232.057 238.825 232.055C238.561 232.034 238.24 232.046 237.861 232.09C237.344 232.151 236.876 232.32 236.454 232.596C236.033 232.872 235.711 233.251 235.488 233.731C235.281 234.191 235.216 234.757 235.295 235.429L236.06 241.936L231.67 242.452ZM247.992 240.795C246.701 240.947 245.472 240.882 244.304 240.6C243.152 240.299 242.167 239.795 241.351 239.089L243.132 236.418C243.627 236.919 244.25 237.317 245 237.612C245.765 237.889 246.587 237.976 247.465 237.872C247.999 237.81 248.429 237.681 248.755 237.485C249.081 237.29 249.225 237.028 249.186 236.701C249.158 236.46 249.049 236.281 248.861 236.164C248.671 236.029 248.311 235.94 247.783 235.898L245.933 235.749C244.276 235.612 243.066 235.266 242.302 234.71C241.554 234.134 241.118 233.322 240.995 232.272C240.912 231.566 241.048 230.869 241.404 230.182C241.757 229.477 242.358 228.874 243.207 228.373C244.053 227.854 245.174 227.513 246.568 227.349C247.877 227.195 249.052 227.249 250.095 227.51C251.138 227.772 251.995 228.229 252.665 228.884L250.853 231.505C250.379 231.037 249.798 230.696 249.109 230.48C248.421 230.264 247.749 230.195 247.095 230.272C246.682 230.32 246.334 230.405 246.052 230.525C245.784 230.626 245.59 230.754 245.468 230.908C245.347 231.062 245.298 231.242 245.322 231.449C245.349 231.672 245.475 231.858 245.702 232.006C245.944 232.135 246.365 232.225 246.964 232.277L249.369 232.465C250.723 232.55 251.73 232.877 252.39 233.445C253.05 234.013 253.433 234.745 253.538 235.64C253.637 236.484 253.502 237.267 253.134 237.991C252.765 238.715 252.156 239.328 251.308 239.829C250.457 240.313 249.352 240.635 247.992 240.795ZM256.307 239.555L254.146 221.17L258.536 220.654L259.455 228.478C259.733 227.573 260.199 226.863 260.855 226.35C261.508 225.82 262.299 225.5 263.229 225.39C264.124 225.285 264.919 225.366 265.613 225.634C266.325 225.899 266.91 226.345 267.368 226.972C267.825 227.599 268.114 228.42 268.233 229.436L269.244 238.034L264.855 238.55L263.986 231.165C263.877 230.236 263.63 229.619 263.245 229.315C262.876 228.992 262.415 228.863 261.864 228.928C261.451 228.976 261.076 229.125 260.739 229.374C260.402 229.623 260.156 229.984 260.002 230.456C259.848 230.928 259.814 231.525 259.899 232.248L260.697 239.039L256.307 239.555ZM272.821 223.006C271.926 223.111 271.252 223.025 270.801 222.746C270.364 222.448 270.104 221.938 270.019 221.215C269.932 220.475 270.067 219.918 270.424 219.544C270.797 219.151 271.431 218.902 272.326 218.797C273.204 218.694 273.87 218.79 274.323 219.086C274.775 219.364 275.044 219.874 275.131 220.614C275.216 221.337 275.073 221.895 274.7 222.288C274.325 222.663 273.699 222.903 272.821 223.006ZM275.192 224.246L276.71 237.157L272.32 237.673L270.802 224.762L275.192 224.246ZM280.472 242.212L278.317 223.878L282.268 223.414L283.05 228.06L282.469 227.579C282.489 226.704 282.666 225.915 283.003 225.212C283.339 224.509 283.812 223.93 284.421 223.475C285.031 223.019 285.758 222.742 286.601 222.642C287.668 222.517 288.629 222.674 289.484 223.115C290.337 223.538 291.037 224.224 291.585 225.172C292.148 226.1 292.512 227.27 292.678 228.682C292.844 230.094 292.763 231.334 292.435 232.402C292.107 233.47 291.569 234.319 290.823 234.948C290.094 235.574 289.196 235.95 288.128 236.076C286.958 236.214 285.97 235.981 285.166 235.377C284.36 234.756 283.774 233.926 283.408 232.887L283.748 232.219L284.862 241.696L280.472 242.212ZM286.251 233.024C287.009 232.935 287.57 232.59 287.936 231.988C288.299 231.37 288.41 230.458 288.268 229.253C288.127 228.048 287.808 227.195 287.313 226.695C286.833 226.175 286.215 225.96 285.457 226.049C284.975 226.106 284.57 226.293 284.24 226.611C283.909 226.912 283.671 227.333 283.525 227.873C283.396 228.412 283.377 229.06 283.466 229.818C283.551 230.541 283.711 231.159 283.945 231.672C284.195 232.166 284.517 232.53 284.911 232.763C285.305 232.996 285.752 233.083 286.251 233.024Z" fill="#095BDC"/>
<path opacity="0.7" d="M129.76 265.953L130.993 276.44L128.8 276.698L127.567 266.21L129.76 265.953ZM133.72 276.12L132.487 265.632L140.352 264.707L140.56 266.471L134.887 267.138L135.193 269.744L139.659 269.219L139.857 270.904L135.391 271.429L135.705 274.098L141.601 273.405L141.808 275.169L133.72 276.12ZM145.761 272.916L151.291 272.266L151.498 274.03L143.775 274.938L142.542 264.45L144.735 264.192L145.761 272.916ZM158.255 262.602L158.462 264.366L154.95 264.779L155.976 273.503L153.783 273.761L152.758 265.037L149.23 265.452L149.022 263.688L158.255 262.602ZM163.563 261.817C164.516 261.705 165.373 261.771 166.132 262.015C166.89 262.258 167.562 262.673 168.147 263.26L167.089 264.818C166.59 264.318 166.066 263.972 165.517 263.778C164.978 263.573 164.369 263.511 163.691 263.59C163.246 263.643 162.882 263.745 162.599 263.896C162.327 264.046 162.133 264.225 162.018 264.432C161.913 264.637 161.874 264.857 161.902 265.09C161.935 265.376 162.075 265.606 162.321 265.781C162.566 265.946 162.966 266.06 163.521 266.124L165.528 266.339C166.594 266.45 167.377 266.712 167.876 267.126C168.385 267.528 168.683 268.094 168.769 268.825C168.85 269.514 168.739 270.128 168.438 270.669C168.135 271.198 167.676 271.633 167.061 271.974C166.445 272.304 165.718 272.519 164.881 272.617C164.15 272.703 163.467 272.697 162.833 272.6C162.208 272.491 161.639 272.311 161.126 272.06C160.613 271.809 160.174 271.5 159.809 271.135L160.875 269.512C161.158 269.822 161.496 270.089 161.887 270.311C162.279 270.533 162.711 270.697 163.186 270.803C163.669 270.896 164.165 270.913 164.674 270.853C165.108 270.802 165.468 270.712 165.753 270.581C166.048 270.439 166.259 270.27 166.386 270.072C166.523 269.863 166.575 269.626 166.544 269.361C166.512 269.085 166.389 268.863 166.176 268.695C165.972 268.515 165.615 268.401 165.105 268.354L162.919 268.128C162.287 268.051 161.735 267.923 161.263 267.742C160.8 267.55 160.43 267.282 160.154 266.938C159.886 266.583 159.722 266.146 159.661 265.627C159.588 265.002 159.691 264.42 159.971 263.883C160.252 263.345 160.693 262.896 161.295 262.535C161.907 262.162 162.662 261.923 163.563 261.817ZM184.707 267.193C184.585 267.895 184.334 268.499 183.953 269.005C183.572 269.512 183.098 269.911 182.531 270.204C181.964 270.496 181.326 270.684 180.616 270.767C179.578 270.889 178.652 270.778 177.838 270.433C177.035 270.087 176.379 269.536 175.872 268.78C175.374 268.022 175.06 267.081 174.928 265.959C174.796 264.836 174.884 263.848 175.192 262.995C175.51 262.142 176.02 261.454 176.721 260.931C177.433 260.407 178.297 260.085 179.314 259.965C180.034 259.881 180.698 259.905 181.304 260.037C181.909 260.16 182.436 260.398 182.886 260.754C183.347 261.108 183.709 261.581 183.971 262.173L182.084 263.248C181.829 262.634 181.501 262.216 181.099 261.995C180.696 261.763 180.203 261.681 179.62 261.75C179.048 261.817 178.561 262.014 178.159 262.34C177.768 262.666 177.488 263.112 177.318 263.68C177.147 264.237 177.108 264.907 177.2 265.691C177.291 266.465 177.474 267.109 177.75 267.624C178.036 268.139 178.407 268.508 178.863 268.734C179.319 268.96 179.854 269.036 180.469 268.964C181.041 268.897 181.515 268.685 181.892 268.33C182.28 267.972 182.522 267.471 182.618 266.827L184.707 267.193ZM190.193 258.686C191.231 258.564 192.152 258.676 192.955 259.022C193.758 259.368 194.408 259.92 194.906 260.678C195.413 261.434 195.733 262.374 195.865 263.497C195.997 264.62 195.904 265.608 195.586 266.462C195.278 267.314 194.773 268.002 194.072 268.525C193.371 269.047 192.501 269.37 191.463 269.492C190.425 269.614 189.499 269.503 188.685 269.158C187.882 268.812 187.227 268.261 186.719 267.504C186.222 266.746 185.907 265.806 185.775 264.683C185.643 263.56 185.731 262.573 186.039 261.72C186.357 260.866 186.867 260.178 187.568 259.655C188.28 259.131 189.155 258.808 190.193 258.686ZM190.404 260.482C189.811 260.552 189.324 260.749 188.943 261.073C188.562 261.397 188.292 261.842 188.133 262.408C187.984 262.963 187.955 263.632 188.047 264.416C188.138 265.189 188.321 265.834 188.597 266.349C188.883 266.863 189.248 267.234 189.694 267.461C190.14 267.687 190.659 267.766 191.252 267.696C191.835 267.628 192.317 267.431 192.697 267.107C193.078 266.783 193.343 266.339 193.491 265.774C193.65 265.207 193.684 264.537 193.593 263.764C193.501 262.98 193.312 262.336 193.028 261.833C192.752 261.317 192.392 260.946 191.946 260.719C191.501 260.493 190.987 260.413 190.404 260.482ZM201.971 257.301C203.009 257.179 203.93 257.291 204.733 257.637C205.536 257.983 206.187 258.535 206.684 259.293C207.192 260.049 207.512 260.989 207.644 262.112C207.776 263.235 207.682 264.223 207.364 265.077C207.056 265.929 206.552 266.617 205.85 267.14C205.149 267.663 204.28 267.985 203.242 268.107C202.203 268.229 201.277 268.118 200.464 267.773C199.66 267.427 199.005 266.876 198.497 266.119C198 265.362 197.685 264.421 197.553 263.298C197.421 262.175 197.509 261.188 197.817 260.335C198.135 259.482 198.645 258.793 199.346 258.271C200.058 257.747 200.933 257.424 201.971 257.301ZM202.182 259.097C201.589 259.167 201.102 259.364 200.721 259.688C200.34 260.012 200.071 260.457 199.912 261.023C199.762 261.578 199.733 262.247 199.825 263.031C199.916 263.805 200.1 264.449 200.375 264.964C200.661 265.478 201.027 265.849 201.472 266.076C201.918 266.303 202.437 266.381 203.03 266.311C203.613 266.243 204.095 266.047 204.476 265.723C204.856 265.399 205.121 264.954 205.269 264.389C205.428 263.822 205.462 263.153 205.371 262.379C205.279 261.595 205.091 260.952 204.806 260.448C204.53 259.933 204.17 259.562 203.724 259.335C203.279 259.108 202.765 259.029 202.182 259.097ZM218.281 255.545L214.123 261.56L213.927 261.405L211.655 264.685L211.082 262.69L215.738 255.844L218.281 255.545ZM211.432 256.35L212.665 266.838L210.472 267.096L209.239 256.608L211.432 256.35ZM214.512 259.661L219.641 266.018L217.13 266.313L212.971 261.083L214.512 259.661ZM222.217 255.082L223.45 265.57L221.257 265.828L220.024 255.34L222.217 255.082ZM233.953 253.702L235.187 264.19L232.676 264.485L228.28 258.751L227.173 257.142L227.157 257.144L227.433 258.948L228.147 265.018L226.177 265.249L224.944 254.762L227.438 254.468L231.832 260.186L232.941 261.812L232.973 261.808L232.697 260.004L231.983 253.934L233.953 253.702ZM242.249 263.521C241.285 263.634 240.412 263.522 239.632 263.184C238.861 262.845 238.228 262.297 237.73 261.539C237.233 260.781 236.918 259.835 236.785 258.702C236.653 257.579 236.751 256.59 237.08 255.735C237.408 254.87 237.933 254.174 238.656 253.649C239.388 253.122 240.269 252.799 241.296 252.678C242.43 252.545 243.371 252.649 244.12 252.99C244.868 253.321 245.5 253.902 246.016 254.733L244.085 255.846C243.85 255.304 243.51 254.926 243.066 254.709C242.631 254.481 242.116 254.402 241.523 254.472C240.93 254.541 240.433 254.745 240.032 255.082C239.63 255.408 239.345 255.856 239.175 256.423C239.004 256.98 238.964 257.646 239.055 258.419C239.149 259.213 239.339 259.873 239.626 260.398C239.912 260.912 240.289 261.281 240.755 261.506C241.231 261.718 241.793 261.786 242.439 261.71C242.788 261.669 243.106 261.589 243.393 261.469C243.69 261.348 243.94 261.19 244.143 260.994C244.345 260.799 244.495 260.561 244.591 260.281C244.687 260.002 244.714 259.687 244.673 259.337L244.645 259.099L241.896 259.422L241.707 257.817L246.347 257.272L246.997 262.802L245.456 262.983L245.028 260.713L245.441 260.938C245.29 261.665 244.941 262.254 244.392 262.705C243.853 263.144 243.139 263.416 242.249 263.521ZM256.25 259.925L261.78 259.275L261.987 261.039L254.264 261.947L253.031 251.459L255.224 251.202L256.25 259.925ZM272.913 259.755L270.641 260.022L269.466 257.566L265.446 258.039L264.873 260.7L262.632 260.963L265.229 250.025L267.851 249.717L272.913 259.755ZM265.748 256.36L268.783 256.003L266.719 251.606L265.748 256.36ZM274.469 259.572L273.236 249.084L277.828 248.544C279.1 248.394 280.066 248.533 280.729 248.96C281.391 249.387 281.776 250.056 281.883 250.967C281.949 251.528 281.838 252.046 281.55 252.521C281.262 252.995 280.797 253.329 280.154 253.522L280.155 253.538C280.899 253.558 281.493 253.768 281.937 254.167C282.381 254.565 282.639 255.072 282.712 255.687C282.818 256.587 282.572 257.33 281.975 257.916C281.389 258.5 280.47 258.866 279.22 259.013L274.469 259.572ZM276.404 257.669L278.835 257.383C279.429 257.313 279.854 257.14 280.111 256.862C280.369 256.585 280.472 256.229 280.421 255.795C280.368 255.35 280.185 255.028 279.872 254.828C279.559 254.629 279.105 254.564 278.512 254.634L276.081 254.92L276.404 257.669ZM275.883 253.235L278.06 252.979C279.214 252.843 279.739 252.325 279.633 251.425C279.527 250.524 278.897 250.142 277.742 250.278L275.565 250.534L275.883 253.235Z" fill="#095BDC"/>
<path d="M184.387 116.99C185.691 114.487 189.107 114.085 190.956 116.217L194.448 120.243C195.821 121.826 198.183 122.081 199.862 120.828L204.098 117.666C206.354 115.981 209.599 117.093 210.347 119.808L211.787 125.035C212.341 127.045 214.346 128.293 216.394 127.902L221.624 126.902C224.377 126.376 226.803 128.771 226.313 131.53L225.354 136.939C224.992 138.979 226.247 140.958 228.247 141.499L233.475 142.914C236.17 143.642 237.308 146.838 235.681 149.106L232.481 153.568C231.277 155.247 231.55 157.567 233.11 158.921L237.258 162.519C239.367 164.348 239.001 167.72 236.549 169.054L231.792 171.643C229.971 172.633 229.209 174.849 230.034 176.75L232.222 181.789C233.339 184.359 231.534 187.251 228.734 187.378L223.415 187.619C221.332 187.713 219.671 189.392 219.599 191.476L219.41 196.894C219.312 199.708 216.414 201.543 213.828 200.428L208.975 198.334C207.051 197.504 204.812 198.3 203.843 200.159L201.381 204.884C200.077 207.387 196.661 207.789 194.812 205.657L191.321 201.631C189.947 200.048 187.585 199.793 185.906 201.047L181.67 204.209C179.414 205.893 176.169 204.781 175.421 202.066L173.981 196.839C173.427 194.829 171.422 193.581 169.374 193.973L164.144 194.972C161.391 195.498 158.965 193.104 159.455 190.344L160.415 184.935C160.777 182.895 159.521 180.916 157.521 180.375L152.293 178.961C149.598 178.232 148.46 175.037 150.087 172.768L153.287 168.306C154.491 166.627 154.218 164.307 152.658 162.953L148.51 159.355C146.401 157.526 146.767 154.154 149.219 152.82L153.977 150.231C155.797 149.241 156.559 147.025 155.734 145.125L153.546 140.085C152.429 137.515 154.234 134.623 157.034 134.496L162.353 134.255C164.436 134.161 166.097 132.482 166.169 130.398L166.358 124.98C166.456 122.166 169.354 120.331 171.94 121.446L176.793 123.54C178.717 124.37 180.956 123.574 181.925 121.715L184.387 116.99Z" fill="#F7F3E9"/>
</g>
<defs>
<clipPath id="clip0_185_2875">
<rect width="400" height="300" fill="white"/>
</clipPath>
</defs>
</svg>
