<svg width="188" height="188" viewBox="0 0 188 188" fill="none" xmlns="http://www.w3.org/2000/svg">
<g id="Layer_1" clip-path="url(#clip0_38_9237)">
<path id="Vector" d="M94 188C42.1685 188 0 145.831 0 94C0 42.1685 42.1685 0 94 0C145.831 0 188 42.1685 188 94C188 145.831 145.831 188 94 188Z" fill="#53D5AC"/>
<path id="Vector_2" d="M90.6932 164.879L90.0495 176.508L88.6807 176.433L89.3244 164.805L90.6932 164.879Z" fill="#095BDC"/>
<path id="Vector_3" d="M87.9489 164.717L86.7156 176.297L83.2529 175.931L83.3749 174.8L85.4755 175.023L85.8957 171.059L83.9102 170.849L84.0322 169.718L86.0176 169.928L86.4649 165.706L84.3371 165.482L84.4591 164.351L87.9489 164.724V164.717Z" fill="#095BDC"/>
<path id="Vector_4" d="M83.5239 164.195L81.5995 175.681L80.251 175.457L81.9857 165.09L79.8647 164.737L80.0545 163.619L83.5239 164.202V164.195Z" fill="#095BDC"/>
<path id="Vector_5" d="M79.3565 163.443L77.1068 173.709L78.3604 173.987L78.1165 175.098L74.3624 174.271L74.6064 173.16L75.7787 173.418L78.0284 163.152L79.3565 163.443Z" fill="#095BDC"/>
<path id="Vector_6" d="M74.5386 162.115C74.9927 162.243 75.3382 162.433 75.5754 162.677C75.8126 162.921 75.9684 163.212 76.0362 163.558C76.104 163.904 76.1107 164.29 76.0497 164.717C75.9888 165.144 75.8939 165.604 75.7516 166.099L75.4399 167.19L74.1592 166.824L74.4844 165.686C74.708 164.9 74.8097 164.324 74.7961 163.951C74.7826 163.585 74.5861 163.341 74.2134 163.24C73.9559 163.165 73.7458 163.172 73.59 163.26C73.4341 163.348 73.3054 163.517 73.1902 163.775C73.0818 164.032 72.9666 164.378 72.8378 164.818C72.6955 165.32 72.6616 165.774 72.7362 166.187C72.8107 166.601 72.9666 167.014 73.2037 167.441L73.7255 168.383C73.8746 168.661 74.0169 168.952 74.1456 169.27C74.2744 169.582 74.3625 169.921 74.4031 170.287C74.4438 170.653 74.4031 171.046 74.2879 171.466C74.1253 172.028 73.9288 172.503 73.6916 172.882C73.4544 173.262 73.1495 173.519 72.77 173.655C72.3906 173.79 71.9162 173.777 71.3403 173.614C70.8863 173.485 70.5474 173.302 70.317 173.072C70.0867 172.835 69.9444 172.557 69.8901 172.225C69.8359 171.893 69.8427 171.527 69.9105 171.114C69.9782 170.7 70.0799 170.253 70.2222 169.772L70.4119 169.108L71.6723 169.467L71.4622 170.219C71.3335 170.673 71.2454 171.059 71.1912 171.371C71.1437 171.683 71.1505 171.933 71.2183 172.116C71.286 172.299 71.4351 172.428 71.6723 172.489C71.8824 172.55 72.0721 172.543 72.2347 172.482C72.3974 172.415 72.5397 172.286 72.6616 172.083C72.7836 171.886 72.892 171.615 72.9869 171.276C73.0682 170.978 73.1021 170.721 73.0885 170.51C73.0682 170.3 73.014 170.09 72.9123 169.88C72.8107 169.67 72.6887 169.426 72.5397 169.142L72.0043 168.118C71.7197 167.583 71.5232 167.021 71.4148 166.424C71.3064 165.835 71.347 165.191 71.5435 164.507C71.7197 163.89 71.9298 163.375 72.1805 162.962C72.4312 162.548 72.7429 162.271 73.1156 162.115C73.4883 161.959 73.9694 161.972 74.5454 162.135L74.5386 162.115Z" fill="#095BDC"/>
<path id="Vector_7" d="M67.0238 159.499C67.5592 159.723 67.9386 160.014 68.1555 160.38C68.3723 160.746 68.4468 161.193 68.3791 161.728C68.3113 162.264 68.1351 162.887 67.837 163.605L65.8786 168.356C65.6211 168.979 65.3433 169.487 65.0316 169.894C64.7199 170.3 64.354 170.565 63.9406 170.687C63.5205 170.809 63.0258 170.754 62.4499 170.517C62.0162 170.341 61.6977 170.124 61.4809 169.867C61.264 169.609 61.142 169.318 61.1014 168.986C61.0607 168.661 61.0946 168.295 61.1895 167.895C61.2844 167.495 61.4334 167.061 61.6232 166.601L63.5815 161.85C63.8797 161.132 64.1846 160.563 64.5166 160.136C64.8419 159.709 65.2078 159.445 65.6144 159.336C66.0209 159.228 66.4885 159.282 67.0306 159.506L67.0238 159.499ZM66.5698 160.59C66.3394 160.495 66.1294 160.488 65.9532 160.57C65.777 160.651 65.6008 160.841 65.4314 161.132C65.262 161.424 65.0655 161.83 64.8487 162.359L62.8564 167.19C62.5922 167.834 62.4431 168.335 62.416 168.688C62.3889 169.04 62.5515 169.284 62.8903 169.426C63.2427 169.575 63.5476 169.514 63.7983 169.264C64.0491 169.006 64.3066 168.559 64.5708 167.908L66.563 163.07C66.7799 162.542 66.929 162.115 67.0171 161.783C67.0984 161.457 67.1051 161.2 67.0306 161.017C66.9561 160.834 66.8002 160.692 66.563 160.59H66.5698Z" fill="#095BDC"/>
<path id="Vector_8" d="M63.0665 157.88L59.9155 167.4L58.8178 166.851L60.6406 161.464L61.447 159.242L61.4063 159.221L60.1459 161.227L57.0153 165.95L55.9108 165.395L61.6435 157.161L63.0733 157.873L63.0665 157.88Z" fill="#095BDC"/>
<path id="Vector_9" d="M58.0181 155.027C58.4315 155.271 58.7161 155.535 58.8787 155.826C59.0413 156.118 59.1159 156.429 59.0888 156.768C59.0617 157.107 58.9668 157.473 58.7906 157.866C58.6212 158.259 58.3976 158.679 58.1401 159.12L56.3579 162.142C56.1208 162.542 55.8768 162.901 55.6193 163.199C55.3618 163.504 55.0908 163.734 54.8062 163.897C54.5216 164.06 54.2167 164.134 53.8846 164.121C53.5526 164.107 53.1934 163.985 52.8072 163.761C52.4142 163.531 52.1431 163.273 51.9805 162.996C51.8179 162.718 51.7569 162.42 51.7772 162.094C51.7975 161.769 51.8924 161.43 52.055 161.058C52.2177 160.685 52.4142 160.299 52.6581 159.892L53.6068 158.279L56.1614 159.784L57.1643 158.076C57.4828 157.534 57.6861 157.1 57.781 156.775C57.8758 156.45 57.7538 156.186 57.4218 155.989C57.205 155.86 57.0085 155.84 56.8391 155.914C56.6697 155.989 56.5002 156.152 56.3308 156.382C56.1614 156.612 55.9853 156.897 55.7887 157.236L55.3822 157.927L54.237 157.249L54.4538 156.884C54.7181 156.436 54.9688 156.043 55.2195 155.704C55.4703 155.366 55.7278 155.101 55.9988 154.912C56.2699 154.722 56.568 154.634 56.8933 154.634C57.2185 154.634 57.5912 154.763 58.0113 155.013L58.0181 155.027ZM55.7074 160.577L54.3183 159.757L53.6746 160.848C53.4713 161.186 53.3154 161.485 53.2002 161.729C53.085 161.972 53.0376 162.183 53.0511 162.359C53.0647 162.528 53.1799 162.677 53.3764 162.792C53.6 162.921 53.8101 162.955 53.9998 162.88C54.1896 162.806 54.3725 162.657 54.5419 162.44C54.7113 162.223 54.9011 161.945 55.084 161.627L55.7006 160.577H55.7074Z" fill="#095BDC"/>
<path id="Vector_10" d="M55.1992 153.421L49.6291 161.641L48.4975 160.875L49.1209 159.96C48.8092 160.211 48.4772 160.346 48.1181 160.367C47.7589 160.387 47.3998 160.272 47.0339 160.021C47.0271 160.021 47.0542 159.967 47.1152 159.865C47.1762 159.77 47.2507 159.655 47.3388 159.533C47.4201 159.411 47.5285 159.248 47.664 159.052C47.8402 159.174 48.03 159.269 48.2332 159.343C48.4365 159.418 48.6466 159.459 48.8702 159.465C49.0938 159.465 49.3174 159.425 49.5411 159.323L54.0676 152.648L55.1992 153.414V153.421Z" fill="#095BDC"/>
<path id="Vector_11" d="M51.0318 150.358C51.5062 150.724 51.7027 151.178 51.6281 151.707C51.5536 152.235 51.2622 152.831 50.7608 153.482L50.1713 154.248C49.9002 154.593 49.6224 154.83 49.3242 154.973C49.0261 155.108 48.7144 155.169 48.3756 155.156C48.0435 155.142 47.6776 155.081 47.2914 154.979C46.9051 154.878 46.4782 154.756 46.0242 154.627L45.5566 155.23C45.2991 155.562 45.0959 155.847 44.9603 156.07C44.818 156.294 44.757 156.491 44.7638 156.653C44.7706 156.816 44.8722 156.972 45.062 157.121C45.2449 157.263 45.4211 157.324 45.5905 157.297C45.7599 157.27 45.9361 157.161 46.1258 156.978C46.3156 156.789 46.5392 156.531 46.8035 156.192L47.0135 155.921L48.0774 156.748L47.9012 156.972C47.6437 157.304 47.3794 157.602 47.1152 157.859C46.8509 158.117 46.5731 158.3 46.2952 158.422C46.0174 158.544 45.7125 158.578 45.3872 158.517C45.062 158.456 44.7164 158.286 44.3437 157.995C43.9913 157.717 43.7474 157.439 43.6119 157.155C43.4831 156.87 43.4425 156.579 43.4967 156.267C43.5509 155.955 43.6796 155.623 43.8897 155.271C44.0997 154.918 44.364 154.525 44.6893 154.105L48.8296 148.766L49.907 149.599L49.3784 150.277C49.4936 150.195 49.6359 150.134 49.8189 150.087C50.0018 150.04 50.1916 150.033 50.4016 150.067C50.6117 150.101 50.815 150.195 51.0251 150.358H51.0318ZM50.0561 150.995C49.8663 150.846 49.6563 150.785 49.4326 150.798C49.2023 150.812 49.0193 150.859 48.8838 150.948L46.5663 153.936C46.9254 154.024 47.2304 154.092 47.4743 154.126C47.725 154.166 47.9351 154.166 48.1113 154.139C48.2875 154.112 48.4501 154.038 48.6059 153.916C48.755 153.8 48.9176 153.631 49.0938 153.407L49.6563 152.682C50.0018 152.242 50.2051 151.889 50.2797 151.639C50.3542 151.388 50.2797 151.171 50.0561 151.002V150.995Z" fill="#095BDC"/>
<path id="Vector_12" d="M47.908 147.946L40.1696 156.816L39.1464 155.921L46.8848 147.051L47.908 147.946Z" fill="#095BDC"/>
<path id="Vector_13" d="M45.8006 146.075L37.7165 154.634L36.7272 153.705L44.8112 145.147L45.8006 146.075Z" fill="#095BDC"/>
<path id="Vector_14" d="M38.2112 142.843C38.5432 143.223 38.6855 143.609 38.6313 144.002C38.5839 144.395 38.3535 144.768 37.9402 145.133C37.5268 145.493 37.127 145.676 36.7272 145.669C36.3342 145.669 35.9683 145.479 35.6362 145.1C35.3042 144.72 35.1619 144.334 35.2093 143.941C35.2568 143.548 35.4872 143.175 35.9005 142.809C36.3139 142.45 36.7137 142.267 37.1135 142.274C37.5065 142.274 37.8724 142.47 38.2112 142.85V142.843Z" fill="#095BDC"/>
<path id="Vector_15" d="M36.8221 136.02L27.376 142.83L26.5764 141.718L36.0225 134.908L36.8221 136.02Z" fill="#095BDC"/>
<path id="Vector_16" d="M35.2297 133.79L25.4515 140.119L23.561 137.199L24.5164 136.582L25.6616 138.357L29.0091 136.196L27.9249 134.515L28.8803 133.898L29.9645 135.579L33.5288 133.268L32.3701 131.473L33.3255 130.856L35.2297 133.804V133.79Z" fill="#095BDC"/>
<path id="Vector_17" d="M32.8444 130.022L22.7072 135.755L22.0363 134.562L31.191 129.392L30.1339 127.522L31.1165 126.966L32.8512 130.029L32.8444 130.022Z" fill="#095BDC"/>
<path id="Vector_18" d="M30.8115 126.309L21.4129 131.019L21.9889 132.164L20.9724 132.672L19.2513 129.236L20.2677 128.728L20.803 129.799L30.2017 125.089L30.8115 126.309Z" fill="#095BDC"/>
<path id="Vector_19" d="M28.8193 121.728C29.0023 122.162 29.0768 122.548 29.0362 122.887C28.9955 123.226 28.8668 123.531 28.6364 123.802C28.406 124.073 28.1146 124.317 27.7487 124.54C27.3828 124.764 26.9559 124.974 26.4815 125.177L25.438 125.625L24.9162 124.405L26.0072 123.937C26.7594 123.619 27.2744 123.334 27.5454 123.09C27.8165 122.846 27.8842 122.542 27.7284 122.189C27.62 121.938 27.4844 121.783 27.3218 121.722C27.1592 121.661 26.9423 121.661 26.6713 121.735C26.4002 121.81 26.0614 121.938 25.6413 122.121C25.1602 122.325 24.7875 122.589 24.5164 122.901C24.2454 123.212 24.015 123.599 23.8388 124.053L23.439 125.049C23.317 125.34 23.1815 125.638 23.0189 125.936C22.8563 126.235 22.6462 126.519 22.3887 126.777C22.1312 127.041 21.7992 127.258 21.3994 127.427C20.8573 127.658 20.3694 127.8 19.9289 127.854C19.4885 127.908 19.0954 127.834 18.7499 127.624C18.4043 127.414 18.1197 127.034 17.8825 126.485C17.6995 126.052 17.625 125.672 17.6589 125.347C17.6995 125.022 17.8283 124.73 18.0519 124.479C18.2755 124.229 18.5669 123.998 18.926 123.795C19.292 123.592 19.7053 123.389 20.1661 123.192L20.7963 122.921L21.3113 124.127L20.593 124.432C20.1593 124.615 19.8069 124.791 19.5291 124.947C19.2513 125.103 19.0683 125.266 18.9667 125.435C18.8651 125.604 18.8651 125.801 18.9599 126.024C19.048 126.228 19.17 126.37 19.3191 126.458C19.4749 126.539 19.6646 126.573 19.895 126.539C20.1254 126.506 20.4033 126.424 20.7285 126.282C21.0131 126.16 21.23 126.024 21.3858 125.875C21.5417 125.726 21.6704 125.55 21.7653 125.34C21.8601 125.13 21.9753 124.879 22.1041 124.588L22.5649 123.531C22.802 122.975 23.1138 122.467 23.5068 122.006C23.8998 121.545 24.4216 121.179 25.0789 120.902C25.6684 120.651 26.2037 120.488 26.6781 120.421C27.1524 120.353 27.5725 120.421 27.9249 120.617C28.284 120.814 28.5754 121.193 28.8126 121.742L28.8193 121.728Z" fill="#095BDC"/>
<path id="Vector_20" d="M26.1156 114.241C26.285 114.796 26.2918 115.277 26.1427 115.67C25.9937 116.063 25.6887 116.409 25.2415 116.694C24.7875 116.978 24.1912 117.229 23.4458 117.452L18.5262 118.916C17.8825 119.106 17.3065 119.207 16.7983 119.228C16.2901 119.241 15.8496 119.126 15.4905 118.875C15.1313 118.625 14.8603 118.205 14.6841 117.608C14.5486 117.161 14.5147 116.775 14.5825 116.443C14.6502 116.118 14.7993 115.833 15.0297 115.596C15.2601 115.359 15.565 115.155 15.9309 114.979C16.3036 114.803 16.7305 114.647 17.2116 114.498L22.1312 113.034C22.8766 112.811 23.5135 112.696 24.0489 112.682C24.5842 112.668 25.0179 112.784 25.3635 113.028C25.7091 113.272 25.9598 113.678 26.1224 114.234L26.1156 114.241ZM24.9908 114.579C24.9162 114.335 24.7943 114.173 24.6181 114.091C24.4419 114.003 24.1912 113.99 23.8524 114.037C23.5203 114.085 23.0799 114.193 22.531 114.356L17.5234 115.846C16.8525 116.043 16.3782 116.246 16.0868 116.45C15.7954 116.653 15.7073 116.931 15.809 117.283C15.9174 117.649 16.1546 117.852 16.5069 117.886C16.8661 117.92 17.3743 117.839 18.0451 117.635L23.0595 116.138C23.6084 115.975 24.0353 115.819 24.3402 115.677C24.6452 115.535 24.8485 115.379 24.9433 115.21C25.0382 115.04 25.0518 114.83 24.9772 114.579H24.9908Z" fill="#095BDC"/>
<path id="Vector_21" d="M24.8891 110.134L15.504 113.671L15.2398 112.472L20.5727 110.5L22.8088 109.728V109.68L20.4507 109.965L14.8129 110.507L14.5486 109.301L24.5571 108.576L24.9027 110.134H24.8891Z" fill="#095BDC"/>
<path id="Vector_22" d="M23.9337 104.429C24.0014 104.903 23.9811 105.289 23.8591 105.601C23.7372 105.913 23.5407 106.163 23.2561 106.353C22.9782 106.55 22.6326 106.699 22.2193 106.814C21.8059 106.929 21.3452 107.024 20.8302 107.098L17.3607 107.613C16.8999 107.681 16.4663 107.715 16.0732 107.701C15.6802 107.688 15.3279 107.627 15.0229 107.512C14.718 107.39 14.4673 107.2 14.2708 106.936C14.0743 106.672 13.9387 106.312 13.8777 105.872C13.81 105.425 13.8371 105.052 13.9523 104.747C14.0675 104.449 14.2572 104.205 14.5215 104.022C14.7858 103.839 15.111 103.69 15.4973 103.588C15.8835 103.48 16.3172 103.392 16.7847 103.324L18.6347 103.046L19.0683 105.98L21.0267 105.689C21.6501 105.594 22.1109 105.486 22.4226 105.35C22.7343 105.215 22.863 104.957 22.8088 104.578C22.7749 104.327 22.6665 104.164 22.4971 104.076C22.3277 103.988 22.0973 103.961 21.8127 103.975C21.5281 103.988 21.1961 104.029 20.8098 104.09L20.017 104.205L19.8205 102.89L20.2406 102.829C20.7488 102.755 21.2164 102.707 21.6365 102.687C22.0567 102.667 22.4294 102.701 22.7411 102.795C23.0528 102.89 23.317 103.06 23.5203 103.317C23.7236 103.575 23.8591 103.941 23.9269 104.422L23.9337 104.429ZM18.1603 106.123L17.9232 104.523L16.6696 104.706C16.2765 104.767 15.9513 104.828 15.687 104.896C15.4227 104.964 15.2262 105.059 15.1042 105.174C14.9823 105.296 14.9348 105.472 14.9755 105.703C15.0162 105.96 15.1178 106.136 15.294 106.238C15.4702 106.339 15.7006 106.387 15.9784 106.38C16.2562 106.373 16.5882 106.346 16.9542 106.292L18.1603 106.116V106.123Z" fill="#095BDC"/>
<path id="Vector_23" d="M23.4051 101.223L13.5118 102.064L13.3966 100.708L14.4943 100.613C14.1013 100.532 13.7896 100.356 13.5457 100.092C13.3085 99.8275 13.1662 99.4751 13.1323 99.0346C13.1323 99.0279 13.1865 99.0143 13.3085 99.0008C13.4237 98.9872 13.5592 98.9736 13.7083 98.9669C13.8574 98.9601 14.0471 98.9398 14.2843 98.9194C14.3046 99.1295 14.3453 99.3396 14.413 99.5428C14.4808 99.7461 14.5824 99.9427 14.718 100.112C14.8535 100.288 15.0297 100.431 15.2465 100.546L23.2831 99.8613L23.3983 101.217L23.4051 101.223Z" fill="#095BDC"/>
<path id="Vector_24" d="M23.1612 96.0667C23.1748 96.6698 22.9511 97.1035 22.4904 97.3813C22.0296 97.6591 21.3858 97.8014 20.5659 97.8285L19.5969 97.8488C19.1632 97.8556 18.7973 97.7879 18.5059 97.6456C18.2145 97.5033 17.9706 97.2932 17.7673 97.0221C17.564 96.7511 17.3878 96.4326 17.2184 96.0667C17.0558 95.7008 16.8796 95.301 16.6967 94.8605L15.931 94.8741C15.5108 94.8808 15.1652 94.9012 14.901 94.9351C14.6367 94.9689 14.447 95.0367 14.325 95.1519C14.203 95.2671 14.1488 95.4365 14.1488 95.6737C14.1488 95.9041 14.2166 96.0803 14.3453 96.1954C14.4741 96.3106 14.6638 96.3852 14.9348 96.4123C15.2059 96.4394 15.5447 96.4529 15.9648 96.4462H16.3104L16.3375 97.7879H16.0529C15.6328 97.8014 15.233 97.7879 14.8671 97.7404C14.5012 97.693 14.1827 97.5981 13.9116 97.4558C13.6406 97.3135 13.4237 97.0967 13.2679 96.8121C13.112 96.5275 13.0239 96.148 13.0172 95.6737C13.0104 95.2264 13.0714 94.8605 13.2069 94.5827C13.3424 94.3049 13.5525 94.088 13.8235 93.9322C14.1014 93.7763 14.4402 93.6679 14.8468 93.6069C15.2533 93.5459 15.7209 93.512 16.2562 93.4985L23.0121 93.3562L23.0392 94.7182L22.1786 94.7385C22.3142 94.7724 22.4565 94.847 22.6055 94.9622C22.7546 95.0706 22.8834 95.2197 22.9918 95.4026C23.1002 95.5856 23.1544 95.8092 23.1612 96.0667ZM22.0567 95.7076C22.0567 95.4704 21.9686 95.2671 21.8127 95.0977C21.6569 94.9283 21.501 94.8199 21.3519 94.7657L17.5708 94.847C17.7267 95.1858 17.869 95.4568 17.9977 95.6737C18.1265 95.8905 18.2552 96.0599 18.3907 96.1751C18.5263 96.2903 18.6889 96.3716 18.8718 96.4191C19.0616 96.4665 19.292 96.48 19.5766 96.4733L20.4981 96.4529C21.0606 96.4394 21.4604 96.3852 21.7043 96.2835C21.9483 96.1819 22.0634 95.9922 22.0567 95.7076Z" fill="#095BDC"/>
<path id="Vector_25" d="M23.0731 92.123L11.3096 91.7029L11.357 90.3477L23.1206 90.7678L23.0731 92.123Z" fill="#095BDC"/>
<path id="Vector_26" d="M23.2018 89.2906L11.4654 88.4097L11.567 87.0544L23.3035 87.9354L23.2018 89.2906Z" fill="#095BDC"/>
<path id="Vector_27" d="M20.925 81.369C20.8437 81.8637 20.6269 82.216 20.2948 82.4261C19.956 82.6361 19.5223 82.6904 18.9802 82.6023C18.4449 82.5074 18.0451 82.3109 17.8012 81.9992C17.5572 81.6875 17.4759 81.2877 17.5572 80.793C17.6453 80.2916 17.8554 79.9392 18.1874 79.7291C18.5262 79.5191 18.9599 79.4649 19.502 79.553C20.0373 79.6478 20.4371 79.8443 20.6811 80.156C20.925 80.4677 21.0063 80.8675 20.925 81.369Z" fill="#095BDC"/>
<path id="Vector_28" d="M25.3499 76.0022L14.1082 72.9461L14.4673 71.6248L25.7023 74.6808L25.3432 76.0022H25.3499Z" fill="#095BDC"/>
<path id="Vector_29" d="M26.0885 73.3461L15.0229 69.714L16.1071 66.4072L17.1913 66.7596L16.5341 68.7654L20.322 70.0054L20.9454 68.1081L22.0296 68.4604L21.4062 70.3578L25.4448 71.6791L26.1089 69.6463L27.1931 69.9986L26.1021 73.3325L26.0885 73.3461Z" fill="#095BDC"/>
<path id="Vector_30" d="M27.5183 69.138L16.6899 64.8486L17.1981 63.5747L26.9762 67.4439L27.769 65.445L28.8193 65.8583L27.5251 69.1312L27.5183 69.138Z" fill="#095BDC"/>
<path id="Vector_31" d="M29.131 65.2145L19.5698 60.8574L19.0344 62.0229L17.9977 61.5485L19.5901 58.052L20.6269 58.5263L20.1322 59.6173L29.6935 63.9744L29.131 65.2145Z" fill="#095BDC"/>
<path id="Vector_32" d="M31.4418 60.7762C31.2182 61.1963 30.9674 61.4944 30.6761 61.6774C30.3847 61.8604 30.0662 61.9484 29.7138 61.9417C29.3615 61.9417 28.982 61.8604 28.5822 61.7113C28.1756 61.5622 27.7487 61.3725 27.2947 61.1285L26.2986 60.6L26.922 59.4277L27.9656 59.9833C28.6838 60.3628 29.2327 60.5864 29.5919 60.6474C29.951 60.7084 30.2288 60.5661 30.4118 60.2273C30.5405 59.9901 30.5744 59.7868 30.5202 59.6174C30.466 59.448 30.3305 59.2786 30.1001 59.1228C29.8697 58.9601 29.558 58.7772 29.1514 58.5603C28.6906 58.3164 28.2502 58.1876 27.8368 58.1741C27.4167 58.1605 26.9762 58.2215 26.5154 58.3706L25.4855 58.6891C25.1805 58.7772 24.862 58.8517 24.53 58.9127C24.198 58.9737 23.8456 58.9872 23.4797 58.9533C23.1138 58.9195 22.7411 58.7975 22.3548 58.5942C21.8398 58.3164 21.4197 58.025 21.0944 57.7201C20.776 57.4084 20.5862 57.056 20.532 56.6562C20.4778 56.2564 20.593 55.7956 20.8708 55.2671C21.0944 54.8469 21.3384 54.5556 21.6162 54.3794C21.894 54.2032 22.199 54.1219 22.531 54.1422C22.863 54.1558 23.229 54.2439 23.6152 54.3929C24.0015 54.5488 24.4216 54.7385 24.862 54.9757L25.4719 55.301L24.8553 56.4597L24.1641 56.0938C23.744 55.8702 23.3916 55.7075 23.0934 55.5923C22.7953 55.4771 22.5513 55.4365 22.3548 55.4636C22.1583 55.4907 22.0092 55.6127 21.894 55.8227C21.7924 56.0192 21.7517 56.2022 21.7856 56.3784C21.8195 56.5546 21.9144 56.7172 22.0838 56.8798C22.2532 57.0424 22.4971 57.2051 22.8088 57.3677C23.0799 57.51 23.3238 57.5981 23.5339 57.6252C23.744 57.6523 23.9608 57.6388 24.1844 57.5845C24.408 57.5303 24.6723 57.4626 24.984 57.3745L26.0953 57.0696C26.6781 56.9069 27.2676 56.8324 27.8707 56.8459C28.4738 56.8663 29.0904 57.0424 29.7206 57.3745C30.2898 57.6794 30.7506 57.9911 31.0962 58.3232C31.4485 58.6484 31.6586 59.0143 31.7264 59.4141C31.7941 59.8139 31.6925 60.2815 31.4079 60.81L31.4418 60.7762Z" fill="#095BDC"/>
<path id="Vector_33" d="M35.5685 53.9794C35.2365 54.4606 34.8705 54.7655 34.4707 54.901C34.0709 55.0365 33.6169 55.0162 33.1087 54.84C32.6005 54.6638 32.0313 54.3589 31.3875 53.9185L27.1524 51.0115C26.5967 50.632 26.1563 50.2457 25.8243 49.8595C25.4922 49.4732 25.3093 49.0599 25.2754 48.6262C25.2415 48.1925 25.4041 47.7182 25.7565 47.2032C26.0208 46.817 26.2986 46.5459 26.5967 46.3901C26.8949 46.2342 27.2066 46.1732 27.5319 46.2003C27.8639 46.2342 28.2095 46.3358 28.5822 46.512C28.9481 46.6882 29.3411 46.9254 29.7613 47.21L33.9964 50.117C34.6401 50.5574 35.128 50.9776 35.4804 51.3841C35.826 51.7907 36.0157 52.2041 36.0361 52.6242C36.0564 53.0443 35.9073 53.4916 35.5753 53.9727L35.5685 53.9794ZM34.5995 53.3086C34.7418 53.0985 34.7892 52.902 34.7486 52.7123C34.7079 52.5226 34.5588 52.3125 34.3081 52.0821C34.0574 51.8517 33.6982 51.5739 33.2307 51.2554L28.921 48.301C28.345 47.9079 27.891 47.6572 27.5522 47.5623C27.2134 47.4675 26.9356 47.5623 26.7323 47.8741C26.5154 48.1925 26.5087 48.4975 26.7052 48.7956C26.9017 49.0938 27.2879 49.4394 27.8639 49.8392L32.1804 52.8004C32.6547 53.1256 33.041 53.3628 33.3391 53.5119C33.644 53.661 33.888 53.722 34.0845 53.6881C34.281 53.6542 34.4504 53.5322 34.5995 53.3154V53.3086Z" fill="#095BDC"/>
<path id="Vector_34" d="M37.9876 50.4356L29.3275 45.3737L30.0932 44.4115L34.9789 47.3185L36.9847 48.5721L37.0118 48.5382L35.3109 46.8916L31.3401 42.8462L32.1125 41.8772L38.9701 49.1955L37.974 50.4424L37.9876 50.4356Z" fill="#095BDC"/>
<path id="Vector_35" d="M41.8297 46.092C41.5044 46.4444 41.186 46.668 40.8675 46.7697C40.549 46.8713 40.2305 46.8713 39.9052 46.7764C39.58 46.6816 39.2412 46.5122 38.8956 46.2614C38.55 46.0107 38.1841 45.7126 37.8046 45.3602L35.2161 42.9885C34.8705 42.67 34.5791 42.3583 34.3352 42.0466C34.0912 41.7349 33.9218 41.4232 33.8202 41.1115C33.7185 40.7998 33.7118 40.4813 33.7931 40.1628C33.8744 39.8444 34.0641 39.5191 34.3691 39.1871C34.674 38.855 34.9789 38.6382 35.2838 38.5365C35.5888 38.4417 35.8937 38.4349 36.2054 38.523C36.5171 38.6111 36.8356 38.7737 37.1609 39.0109C37.4861 39.248 37.8249 39.5259 38.1773 39.8443L39.5597 41.1115L37.5539 43.3002L39.0108 44.6352C39.4716 45.0553 39.851 45.3467 40.156 45.5093C40.4609 45.6719 40.7387 45.6042 40.9962 45.3196C41.1656 45.1366 41.2266 44.9469 41.186 44.7639C41.1453 44.5809 41.0233 44.3777 40.8336 44.1676C40.6371 43.9575 40.3999 43.7204 40.1153 43.4561L39.5258 42.914L40.427 41.9314L40.7387 42.216C41.1182 42.5616 41.4502 42.8937 41.7281 43.2121C42.0059 43.5238 42.2159 43.8356 42.3447 44.1405C42.4734 44.4454 42.5005 44.7571 42.426 45.0756C42.3515 45.3941 42.1482 45.7329 41.8229 46.092H41.8297ZM36.8763 42.6768L37.9672 41.4842L37.0321 40.6304C36.7407 40.3593 36.4832 40.1493 36.2664 39.9799C36.0496 39.8172 35.853 39.7224 35.6836 39.702C35.5142 39.6817 35.3448 39.7563 35.189 39.9324C35.0128 40.1222 34.9383 40.3187 34.9721 40.522C35.006 40.7185 35.1144 40.9285 35.2906 41.1454C35.4736 41.3622 35.6972 41.5994 35.975 41.8433L36.8763 42.6633V42.6768Z" fill="#095BDC"/>
<path id="Vector_36" d="M43.971 43.6798L37.0863 36.5308L38.0689 35.5822L38.8346 36.375C38.6516 36.0158 38.5839 35.6635 38.6448 35.3111C38.699 34.9587 38.8888 34.6267 39.2073 34.3218C39.2073 34.3218 39.2615 34.3557 39.3428 34.437C39.4241 34.5183 39.519 34.6132 39.6206 34.7216C39.7223 34.83 39.8578 34.9655 40.0204 35.1349C39.8646 35.284 39.7358 35.4466 39.6138 35.6296C39.4919 35.8126 39.4106 36.0158 39.3631 36.2259C39.3157 36.436 39.3157 36.6731 39.3631 36.9103L44.9603 42.7243L43.9777 43.673L43.971 43.6798Z" fill="#095BDC"/>
<path id="Vector_37" d="M47.8199 40.2441C47.3591 40.6303 46.8848 40.732 46.3765 40.549C45.8683 40.3661 45.3533 39.9595 44.818 39.3361L44.1946 38.5975C43.91 38.2654 43.7338 37.9402 43.6593 37.6217C43.5847 37.3032 43.5915 36.9847 43.6728 36.6595C43.7541 36.3342 43.8897 35.9954 44.0726 35.6363C44.2556 35.2771 44.4589 34.8909 44.6825 34.4707L44.1878 33.888C43.9168 33.5627 43.6796 33.312 43.4899 33.129C43.3001 32.9461 43.1239 32.8444 42.9613 32.8173C42.7987 32.7902 42.6293 32.858 42.4463 33.0138C42.2701 33.1629 42.1753 33.3256 42.1617 33.495C42.1549 33.6644 42.2227 33.8609 42.365 34.0845C42.5073 34.3081 42.7174 34.5859 42.9884 34.9044L43.212 35.1687L42.182 36.0428L41.9991 35.826C41.728 35.5007 41.4909 35.1822 41.2944 34.8705C41.0978 34.5588 40.9759 34.2539 40.9149 33.949C40.8539 33.644 40.8878 33.3459 41.0098 33.041C41.1317 32.736 41.3757 32.4311 41.7348 32.1262C42.0804 31.8348 42.3989 31.6586 42.7038 31.5841C43.0087 31.5095 43.3069 31.5366 43.5983 31.6586C43.8897 31.7738 44.1878 31.9703 44.4927 32.2481C44.7977 32.526 45.1229 32.8648 45.4685 33.2781L49.8324 38.4348L48.7889 39.3157L48.2332 38.6585C48.2874 38.7872 48.3213 38.9431 48.3281 39.126C48.3349 39.3158 48.301 39.5055 48.2264 39.702C48.1519 39.8985 48.0164 40.0815 47.8131 40.2509L47.8199 40.2441ZM47.4065 39.1599C47.5895 39.004 47.6979 38.8143 47.7318 38.5907C47.7657 38.3671 47.7521 38.1773 47.7047 38.0215L45.2652 35.1348C45.1026 35.4668 44.9806 35.7514 44.8925 35.9886C44.8044 36.2258 44.757 36.4291 44.7502 36.6053C44.7435 36.7882 44.7841 36.9644 44.8654 37.1338C44.9467 37.3032 45.0823 37.4997 45.2652 37.7166L45.8615 38.4213C46.2207 38.8482 46.5188 39.126 46.756 39.248C46.9932 39.37 47.21 39.3429 47.4269 39.1599H47.4065Z" fill="#095BDC"/>
<path id="Vector_38" d="M50.8354 37.6827L43.761 28.2773L44.8452 27.4641L51.9196 36.8695L50.8354 37.6827Z" fill="#095BDC"/>
<path id="Vector_39" d="M53.1257 35.9953L46.4308 26.312L47.5489 25.5396L54.2438 35.2228L53.1257 35.9953Z" fill="#095BDC"/>
<path id="Vector_40" d="M57.8419 29.253C57.4015 29.4969 56.9949 29.5579 56.6222 29.4292C56.2495 29.3004 55.931 28.9955 55.66 28.5212C55.3957 28.0468 55.3008 27.6131 55.3889 27.2269C55.477 26.8406 55.7345 26.5222 56.175 26.2782C56.6154 26.0275 57.022 25.9733 57.4015 26.102C57.7742 26.2308 58.0927 26.5357 58.3637 27.0101C58.628 27.4844 58.7228 27.9181 58.6348 28.3043C58.5534 28.6906 58.2892 29.009 57.8419 29.253Z" fill="#095BDC"/>
<path id="Vector_41" d="M64.8012 29.3141L60.1052 18.6551L61.3588 18.1062L66.0548 28.7652L64.8012 29.3209V29.3141Z" fill="#095BDC"/>
<path id="Vector_42" d="M67.3219 28.2162L63.1816 17.3336L66.4342 16.0935L66.8408 17.1574L64.8689 17.9095L66.2852 21.6297L68.1554 20.9182L68.562 21.9821L66.6917 22.6936L68.2028 26.6644L70.2018 25.9055L70.6084 26.9694L67.3287 28.2162H67.3219Z" fill="#095BDC"/>
<path id="Vector_43" d="M71.5028 26.6781L68.0266 15.565L69.3344 15.1584L72.4718 25.1941L74.525 24.5503L74.8638 25.6277L71.5028 26.6781Z" fill="#095BDC"/>
<path id="Vector_44" d="M75.5551 25.4651L72.9259 15.2939L71.6858 15.6124L71.4012 14.5079L75.1214 13.5457L75.406 14.6502L74.2473 14.9483L76.8764 25.1195L75.5551 25.4583V25.4651Z" fill="#095BDC"/>
<path id="Vector_45" d="M80.4678 24.4757C80.007 24.5637 79.614 24.557 79.2887 24.4486C78.9635 24.3401 78.6992 24.1436 78.4824 23.8658C78.2655 23.588 78.0893 23.2492 77.947 22.8426C77.8047 22.436 77.6896 21.982 77.5879 21.4738L77.3711 20.3625L78.6789 20.105L78.9025 21.2705C79.0584 22.0701 79.2278 22.6325 79.4107 22.9578C79.5937 23.283 79.8715 23.405 80.2577 23.3305C80.522 23.2763 80.705 23.1814 80.7998 23.0323C80.9015 22.8832 80.9421 22.6732 80.9218 22.3886C80.9015 22.1107 80.8541 21.7448 80.766 21.2976C80.6643 20.7894 80.4881 20.3625 80.2374 20.0304C79.9867 19.6984 79.6614 19.3935 79.2549 19.1224L78.3604 18.5193C78.1029 18.3432 77.8386 18.1399 77.5811 17.9163C77.3236 17.6926 77.0932 17.4284 76.89 17.1234C76.6867 16.8185 76.5444 16.4458 76.4631 16.0189C76.3479 15.4429 76.314 14.9347 76.3546 14.4875C76.3953 14.0402 76.5511 13.6743 76.829 13.383C77.1068 13.0916 77.5337 12.8883 78.1232 12.7731C78.584 12.685 78.9703 12.6918 79.282 12.8002C79.5937 12.9086 79.8444 13.0916 80.0477 13.3626C80.2442 13.6337 80.4068 13.9657 80.5356 14.3655C80.6575 14.7653 80.7727 15.2125 80.8676 15.7004L80.9964 16.378L79.7089 16.6288L79.5598 15.8631C79.4717 15.4023 79.3768 15.016 79.2752 14.7111C79.1735 14.4062 79.0584 14.1893 78.9161 14.0538C78.7737 13.9183 78.584 13.8776 78.3468 13.9251C78.13 13.9657 77.9674 14.0538 77.8454 14.1893C77.7302 14.3248 77.6624 14.5078 77.6421 14.7382C77.6218 14.9686 77.6489 15.26 77.7167 15.6056C77.7776 15.9105 77.859 16.1544 77.9742 16.3374C78.0893 16.5204 78.2317 16.683 78.4146 16.8185C78.5976 16.9608 78.8212 17.1234 79.0787 17.3064L80.0206 17.9772C80.5152 18.3228 80.9421 18.743 81.3081 19.2173C81.674 19.6984 81.9247 20.2879 82.0602 20.9859C82.1822 21.6161 82.2296 22.1717 82.1958 22.6528C82.1619 23.134 82.006 23.527 81.7417 23.8319C81.4707 24.1368 81.0438 24.3469 80.4543 24.4621L80.4678 24.4757Z" fill="#095BDC"/>
<path id="Vector_46" d="M88.3418 23.4051C87.759 23.4526 87.2915 23.3577 86.9323 23.1341C86.5732 22.9105 86.3089 22.5378 86.1192 22.0363C85.9362 21.5349 85.8143 20.8912 85.7533 20.1187L85.3467 15.0026C85.2925 14.3318 85.3128 13.749 85.4077 13.2476C85.5026 12.7461 85.7058 12.3463 86.0243 12.0414C86.3428 11.7432 86.8104 11.5671 87.4338 11.5196C87.9014 11.4857 88.2876 11.5332 88.5925 11.6619C88.8975 11.7974 89.1482 12.0007 89.3311 12.2718C89.5141 12.5428 89.6496 12.8816 89.7445 13.2814C89.8394 13.6812 89.9071 14.1285 89.941 14.6367L90.3476 19.7528C90.4086 20.5252 90.3882 21.1758 90.2934 21.7043C90.1985 22.2329 89.9884 22.6327 89.6767 22.9173C89.365 23.2019 88.9178 23.3645 88.3418 23.4119V23.4051ZM88.2469 22.2329C88.4977 22.2125 88.6806 22.1244 88.8026 21.9754C88.9246 21.8195 88.9923 21.5756 89.0194 21.2367C89.0398 20.8979 89.0262 20.4439 88.9856 19.8815L88.5722 14.6706C88.518 13.9726 88.4231 13.4644 88.2876 13.1391C88.1521 12.8139 87.9014 12.6648 87.5287 12.6919C87.1492 12.719 86.8985 12.9087 86.7968 13.2543C86.6952 13.5999 86.6613 14.1149 86.7155 14.8129L87.1289 20.0306C87.1763 20.5998 87.2373 21.0538 87.3118 21.379C87.3864 21.7043 87.4948 21.9347 87.6439 22.0702C87.7929 22.2058 87.9962 22.26 88.2537 22.2396L88.2469 22.2329Z" fill="#095BDC"/>
<path id="Vector_47" d="M92.6245 23.0664L91.0253 13.1663L92.2585 13.146L93.1259 18.7635L93.4376 21.1081H93.485L93.6816 18.75L94.2779 13.1121L95.5179 13.0918L94.2304 23.0393L92.638 23.0664H92.6245Z" fill="#095BDC"/>
<path id="Vector_48" d="M98.4114 23.3035C97.937 23.2764 97.5576 23.168 97.2798 22.9851C97.0019 22.8021 96.7986 22.5582 96.6631 22.2397C96.5344 21.928 96.4531 21.5553 96.4259 21.1284C96.3988 20.7015 96.4056 20.2271 96.4327 19.7121L96.6428 16.2088C96.6699 15.7413 96.7309 15.3144 96.819 14.9281C96.9071 14.5419 97.0426 14.2098 97.2255 13.9388C97.4085 13.6609 97.6457 13.4577 97.9438 13.3154C98.242 13.1798 98.6214 13.1188 99.0687 13.146C99.5227 13.1731 99.8818 13.2747 100.153 13.4509C100.424 13.6271 100.62 13.8642 100.742 14.1624C100.864 14.4605 100.946 14.8061 100.966 15.2127C100.986 15.6193 100.986 16.053 100.966 16.5273L100.851 18.3975L97.8896 18.2214L97.7744 20.1932C97.7338 20.8167 97.7473 21.2978 97.8151 21.6298C97.8828 21.9618 98.1065 22.138 98.4859 22.1651C98.7366 22.1787 98.9196 22.1109 99.0416 21.9618C99.1568 21.8128 99.2381 21.5959 99.2787 21.3113C99.3194 21.0267 99.3533 20.6947 99.3736 20.3084L99.421 19.5088L100.749 19.5902L100.722 20.0103C100.688 20.5253 100.641 20.9928 100.573 21.4062C100.505 21.8195 100.397 22.1787 100.241 22.4701C100.085 22.7614 99.8615 22.9783 99.5701 23.1206C99.2787 23.2629 98.8857 23.3239 98.4046 23.29L98.4114 23.3035ZM97.9438 17.3066L99.5566 17.4014L99.6311 16.1411C99.6582 15.748 99.665 15.4092 99.6514 15.1382C99.6379 14.8671 99.5905 14.6571 99.4956 14.5148C99.4007 14.3725 99.2381 14.2911 99.0077 14.2776C98.7502 14.264 98.5537 14.3318 98.4182 14.4809C98.2826 14.63 98.1878 14.8468 98.1336 15.1246C98.0794 15.4024 98.0387 15.7277 98.0184 16.0936L97.9438 17.3066Z" fill="#095BDC"/>
<path id="Vector_49" d="M101.644 23.4457L102.856 13.593L104.212 13.7624L104.076 14.8602C104.239 14.4943 104.469 14.2232 104.781 14.0402C105.093 13.8641 105.465 13.7963 105.899 13.8505C105.906 13.8505 105.899 13.9115 105.899 14.0267C105.885 14.1419 105.872 14.2774 105.852 14.4265C105.831 14.5756 105.811 14.7653 105.784 14.9957C105.574 14.9686 105.364 14.9686 105.147 14.9957C104.93 15.0228 104.727 15.0838 104.523 15.1787C104.327 15.2735 104.144 15.4226 103.988 15.6123L102.999 23.6151L101.644 23.4457Z" fill="#095BDC"/>
<path id="Vector_50" d="M106.753 24.2792C106.163 24.164 105.784 23.8591 105.608 23.3509C105.431 22.8426 105.425 22.1853 105.574 21.3722L105.757 20.4235C105.838 19.9966 105.98 19.651 106.177 19.3935C106.373 19.136 106.631 18.9395 106.936 18.7972C107.241 18.6549 107.586 18.5465 107.986 18.4584C108.379 18.3703 108.806 18.2822 109.274 18.1941L109.416 17.442C109.497 17.0286 109.545 16.683 109.572 16.4255C109.592 16.1613 109.565 15.958 109.484 15.8157C109.402 15.6734 109.24 15.5785 109.009 15.5379C108.779 15.4972 108.596 15.5243 108.46 15.6192C108.325 15.7208 108.21 15.897 108.128 16.1477C108.047 16.3984 107.966 16.7372 107.884 17.1506L107.823 17.4894L106.495 17.2387L106.55 16.9609C106.631 16.5475 106.726 16.1613 106.848 15.8157C106.97 15.4701 107.126 15.1787 107.322 14.9415C107.519 14.7044 107.776 14.5417 108.088 14.4401C108.399 14.3452 108.786 14.3385 109.253 14.4265C109.694 14.5079 110.039 14.6502 110.283 14.8399C110.527 15.0296 110.697 15.2804 110.791 15.5785C110.886 15.8767 110.92 16.2358 110.893 16.6492C110.866 17.0625 110.805 17.5301 110.71 18.0518L109.45 24.6925L108.108 24.4351L108.271 23.588C108.21 23.71 108.108 23.832 107.966 23.9607C107.823 24.0895 107.654 24.1776 107.451 24.2453C107.248 24.3131 107.024 24.3199 106.766 24.2724L106.753 24.2792ZM107.336 23.2695C107.573 23.317 107.783 23.2763 107.986 23.1611C108.183 23.0459 108.325 22.9172 108.406 22.7816L109.111 19.0683C108.752 19.1496 108.447 19.2309 108.21 19.3122C107.973 19.3935 107.783 19.4816 107.641 19.59C107.498 19.6985 107.383 19.8408 107.302 20.0102C107.22 20.1796 107.153 20.41 107.098 20.6878L106.929 21.589C106.827 22.1379 106.8 22.5445 106.848 22.802C106.895 23.0595 107.058 23.2153 107.336 23.2695Z" fill="#095BDC"/>
<path id="Vector_51" d="M110.622 25.0044L113.482 13.5864L114.796 13.9185L111.937 25.3364L110.622 25.0044Z" fill="#095BDC"/>
<path id="Vector_52" d="M113.366 25.7225L116.687 14.4265L117.988 14.806L114.667 26.102L113.366 25.7225Z" fill="#095BDC"/>
<path id="Vector_53" d="M121.579 25.1534C121.112 24.9637 120.814 24.6859 120.678 24.3132C120.542 23.9405 120.576 23.5 120.78 22.9918C120.983 22.4836 121.261 22.1448 121.613 21.9686C121.965 21.7924 122.379 21.7992 122.846 21.9821C123.321 22.1719 123.619 22.4497 123.754 22.8224C123.89 23.1951 123.856 23.6355 123.653 24.1438C123.449 24.652 123.172 24.9908 122.819 25.1737C122.467 25.3499 122.054 25.3432 121.579 25.1534Z" fill="#095BDC"/>
<path id="Vector_54" d="M125.909 30.6083L131.256 20.261L132.475 20.8912L127.129 31.2385L125.909 30.6083Z" fill="#095BDC"/>
<path id="Vector_55" d="M128.356 31.8889L134.224 21.8262L137.232 23.5812L136.656 24.5638L134.834 23.4999L132.828 26.9422L134.556 27.9519L133.98 28.9344L132.252 27.9248L130.111 31.5975L131.954 32.6749L131.378 33.6575L128.349 31.8889H128.356Z" fill="#095BDC"/>
<path id="Vector_56" d="M132.171 34.1659L138.628 24.4758L139.767 25.2348L133.939 33.9829L135.728 35.1755L135.098 36.1174L132.171 34.1659Z" fill="#095BDC"/>
<path id="Vector_57" d="M135.66 36.5578L141.915 28.1146L140.885 27.3489L141.562 26.4341L144.652 28.7245L143.975 29.6392L143.013 28.9277L136.758 37.3709L135.66 36.5578Z" fill="#095BDC"/>
<path id="Vector_58" d="M139.516 39.7427C139.157 39.4377 138.913 39.126 138.798 38.8075C138.683 38.4891 138.662 38.157 138.744 37.8114C138.825 37.4658 138.974 37.1135 139.204 36.7543C139.435 36.3884 139.713 36.009 140.045 35.6159L140.77 34.7486L141.786 35.6024L141.027 36.5104C140.505 37.1338 140.173 37.6217 140.038 37.9673C139.902 38.3129 139.984 38.6043 140.282 38.855C140.485 39.0244 140.682 39.1057 140.858 39.0921C141.034 39.0786 141.224 38.9769 141.434 38.7804C141.637 38.5907 141.888 38.3197 142.179 37.9741C142.511 37.5743 142.728 37.1745 142.83 36.7679C142.931 36.3613 142.958 35.9209 142.918 35.433L142.823 34.3623C142.796 34.0506 142.789 33.7186 142.803 33.3798C142.809 33.041 142.87 32.6954 142.985 32.343C143.101 31.9906 143.29 31.6518 143.575 31.313C143.954 30.8658 144.327 30.5134 144.693 30.2627C145.059 30.012 145.445 29.9036 145.845 29.9374C146.245 29.9713 146.679 30.1746 147.133 30.5609C147.492 30.8658 147.729 31.1707 147.844 31.4757C147.959 31.7806 147.973 32.0991 147.885 32.4243C147.803 32.7496 147.641 33.0816 147.41 33.434C147.18 33.7796 146.902 34.1455 146.577 34.5317L146.136 35.0603L145.134 34.22L145.635 33.6237C145.94 33.2646 146.177 32.9461 146.353 32.6818C146.529 32.4176 146.618 32.1872 146.638 31.9906C146.651 31.7941 146.563 31.618 146.38 31.4621C146.211 31.3198 146.042 31.2453 145.865 31.2385C145.689 31.2385 145.506 31.2927 145.317 31.4282C145.127 31.5637 144.917 31.7603 144.686 32.0313C144.49 32.2685 144.354 32.4853 144.28 32.6886C144.205 32.8919 144.178 33.1087 144.185 33.3391C144.185 33.5695 144.205 33.8473 144.226 34.1658L144.293 35.3178C144.334 35.9209 144.287 36.5172 144.144 37.0999C144.002 37.6827 143.704 38.2519 143.243 38.8008C142.83 39.2954 142.423 39.6749 142.03 39.9527C141.637 40.2238 141.237 40.3593 140.831 40.339C140.424 40.3186 139.99 40.1221 139.53 39.7359L139.516 39.7427Z" fill="#095BDC"/>
<path id="Vector_59" d="M145.31 45.1907C144.91 44.7706 144.686 44.3504 144.639 43.9235C144.591 43.4966 144.707 43.0629 144.978 42.6022C145.255 42.1414 145.669 41.6467 146.231 41.1114L149.951 37.5742C150.439 37.1134 150.907 36.761 151.354 36.5103C151.801 36.2664 152.242 36.1715 152.675 36.2257C153.109 36.2799 153.536 36.5374 153.97 36.9847C154.295 37.3235 154.498 37.6555 154.586 37.974C154.674 38.2993 154.674 38.6177 154.573 38.9294C154.478 39.2479 154.302 39.5664 154.051 39.8917C153.8 40.2169 153.489 40.549 153.129 40.9013L149.409 44.4385C148.847 44.9738 148.332 45.3669 147.858 45.6244C147.39 45.8819 146.943 45.9767 146.529 45.909C146.116 45.8412 145.709 45.5973 145.303 45.1771L145.31 45.1907ZM146.163 44.3775C146.34 44.5605 146.523 44.6486 146.719 44.6486C146.916 44.6486 147.153 44.5469 147.424 44.3504C147.702 44.1539 148.047 43.8625 148.454 43.4695L152.242 39.8646C152.75 39.3835 153.082 38.9904 153.251 38.6787C153.421 38.367 153.373 38.0756 153.116 37.8114C152.852 37.5335 152.553 37.459 152.215 37.5945C151.876 37.73 151.462 38.035 150.954 38.5161L147.166 42.1278C146.753 42.5208 146.441 42.8529 146.231 43.1172C146.021 43.3814 145.913 43.6118 145.906 43.8083C145.899 44.0048 145.981 44.2014 146.163 44.3843V44.3775Z" fill="#095BDC"/>
<path id="Vector_60" d="M148.278 48.2942L155.027 40.8743L155.813 41.8229L151.957 46.0039L150.317 47.7047L150.344 47.7386L152.31 46.4172L157.087 43.3679L157.873 44.3234L149.287 49.5208L148.271 48.2875L148.278 48.2942Z" fill="#095BDC"/>
<path id="Vector_61" d="M151.727 52.9428C151.449 52.5566 151.293 52.1974 151.259 51.8654C151.225 51.5334 151.286 51.2216 151.449 50.9167C151.612 50.6186 151.849 50.3204 152.167 50.0358C152.486 49.7444 152.852 49.453 153.272 49.1549L156.125 47.1152C156.504 46.8442 156.877 46.6206 157.229 46.4444C157.588 46.275 157.927 46.1666 158.252 46.1327C158.578 46.0988 158.889 46.1598 159.187 46.3021C159.486 46.4444 159.763 46.7019 160.028 47.0678C160.292 47.4405 160.441 47.7793 160.475 48.0978C160.509 48.4163 160.448 48.7212 160.299 48.999C160.15 49.2836 159.919 49.5615 159.628 49.8325C159.33 50.1036 158.991 50.3814 158.605 50.6524L157.08 51.7434L155.359 49.3311L153.746 50.483C153.238 50.849 152.872 51.1607 152.655 51.4182C152.438 51.6824 152.438 51.967 152.662 52.2787C152.811 52.482 152.974 52.5837 153.17 52.5837C153.36 52.5837 153.577 52.5091 153.821 52.3601C154.065 52.2177 154.349 52.028 154.661 51.8044L155.311 51.3368L156.084 52.421L155.738 52.665C155.318 52.9631 154.925 53.2206 154.559 53.4307C154.193 53.6408 153.848 53.7763 153.523 53.8373C153.197 53.8983 152.886 53.8644 152.594 53.7221C152.296 53.5866 152.011 53.3155 151.727 52.9225V52.9428ZM156.091 48.8025L157.033 50.1171L158.063 49.3853C158.388 49.1549 158.652 48.9516 158.855 48.7686C159.059 48.5925 159.194 48.4163 159.242 48.2537C159.296 48.091 159.255 47.9148 159.12 47.7251C158.971 47.515 158.794 47.3998 158.591 47.3931C158.388 47.3863 158.164 47.4473 157.914 47.576C157.663 47.7116 157.385 47.881 157.087 48.0978L156.098 48.8025H156.091Z" fill="#095BDC"/>
<path id="Vector_62" d="M153.651 55.5516L162.074 50.3L162.792 51.4588L161.857 52.0415C162.244 51.9331 162.603 51.9467 162.935 52.0754C163.267 52.2042 163.551 52.4549 163.789 52.8276C163.789 52.8344 163.748 52.8682 163.646 52.936C163.545 53.0038 163.436 53.0715 163.307 53.1528C163.179 53.2342 163.016 53.3358 162.819 53.4578C162.704 53.2748 162.576 53.1122 162.42 52.9563C162.264 52.8005 162.088 52.6785 161.884 52.5904C161.681 52.4955 161.457 52.4481 161.214 52.4481L154.37 56.7171L153.651 55.5584V55.5516Z" fill="#095BDC"/>
<path id="Vector_63" d="M156.213 60.0307C155.928 59.5022 155.928 59.0143 156.213 58.5603C156.497 58.1063 157.006 57.6862 157.724 57.2864L158.578 56.8324C158.964 56.6291 159.316 56.5206 159.641 56.5139C159.967 56.5071 160.278 56.5816 160.583 56.7307C160.882 56.8798 161.193 57.0831 161.505 57.3338C161.817 57.5845 162.155 57.8623 162.521 58.1673L163.199 57.8014C163.572 57.5981 163.87 57.4287 164.087 57.2796C164.304 57.1305 164.446 56.9814 164.5 56.8256C164.554 56.6697 164.527 56.4868 164.419 56.2835C164.31 56.0802 164.168 55.9514 164.005 55.9108C163.843 55.8701 163.633 55.8905 163.382 55.9853C163.131 56.0802 162.82 56.2293 162.447 56.4258L162.142 56.5884L161.505 55.4026L161.756 55.267C162.128 55.0638 162.488 54.9011 162.833 54.7791C163.179 54.6572 163.504 54.5962 163.816 54.5962C164.121 54.5962 164.412 54.6911 164.683 54.874C164.954 55.057 165.198 55.3551 165.422 55.7685C165.632 56.1615 165.74 56.5206 165.747 56.8324C165.747 57.1441 165.666 57.4287 165.489 57.6929C165.313 57.9572 165.062 58.2079 164.724 58.4451C164.392 58.6823 163.985 58.933 163.518 59.1837L157.568 62.3821L156.924 61.1827L157.683 60.7761C157.548 60.8032 157.385 60.8032 157.202 60.7761C157.019 60.749 156.836 60.6745 156.66 60.5593C156.484 60.4441 156.335 60.2747 156.206 60.0443L156.213 60.0307ZM157.365 59.8478C157.48 60.0578 157.643 60.2001 157.859 60.2815C158.076 60.3628 158.259 60.3899 158.422 60.3695L161.749 58.5806C161.458 58.3502 161.207 58.174 160.997 58.0385C160.787 57.903 160.597 57.8149 160.421 57.7675C160.245 57.72 160.068 57.72 159.879 57.7675C159.689 57.8149 159.472 57.903 159.228 58.0385L158.415 58.4722C157.92 58.7365 157.588 58.9736 157.419 59.1702C157.249 59.3734 157.229 59.5971 157.365 59.8478Z" fill="#095BDC"/>
<path id="Vector_64" d="M158.09 63.5137L168.769 58.5535L169.338 59.7867L158.659 64.7469L158.09 63.5137Z" fill="#095BDC"/>
<path id="Vector_65" d="M159.255 66.0954L170.124 61.5688L170.646 62.8225L159.777 67.349L159.255 66.0954Z" fill="#095BDC"/>
<path id="Vector_66" d="M164.873 72.1398C164.724 71.6586 164.751 71.2521 164.961 70.9133C165.164 70.5744 165.53 70.3237 166.052 70.1679C166.574 70.0052 167.014 70.0052 167.373 70.1679C167.732 70.3305 167.99 70.6558 168.132 71.1369C168.281 71.6248 168.254 72.0313 168.051 72.3701C167.847 72.709 167.482 72.9597 166.96 73.1155C166.438 73.2782 165.998 73.2782 165.638 73.1155C165.279 72.9529 165.022 72.6276 164.873 72.1398Z" fill="#095BDC"/>
<path id="Vector_67" d="M163.348 78.9229L174.752 76.5715L175.03 77.9132L163.626 80.2646L163.348 78.9229Z" fill="#095BDC"/>
<path id="Vector_68" d="M163.89 81.6131L175.403 79.8445L175.932 83.2868L174.807 83.4562L174.488 81.3691L170.551 81.9722L170.856 83.9509L169.731 84.1203L169.426 82.1416L165.225 82.7854L165.55 84.8996L164.425 85.0757L163.89 81.6063V81.6131Z" fill="#095BDC"/>
<path id="Vector_69" d="M164.52 86.0244L176.114 84.947L176.243 86.309L165.774 87.278L165.97 89.4193L164.846 89.521L164.52 86.0177V86.0244Z" fill="#095BDC"/>
<path id="Vector_70" d="M164.859 90.2529L175.355 89.7989L175.301 88.5181L176.44 88.4707L176.602 92.3128L175.464 92.3603L175.41 91.1609L164.913 91.6149L164.852 90.2529H164.859Z" fill="#095BDC"/>
<path id="Vector_71" d="M164.812 95.24C164.818 94.7656 164.913 94.3862 165.083 94.0948C165.259 93.8034 165.503 93.5798 165.815 93.4239C166.133 93.2681 166.499 93.1664 166.926 93.1122C167.353 93.058 167.827 93.0377 168.342 93.0445L169.474 93.0648L169.453 94.3929L168.268 94.3726C167.448 94.3591 166.865 94.4065 166.513 94.5217C166.16 94.6301 165.977 94.8808 165.977 95.2739C165.977 95.5449 166.031 95.7414 166.153 95.8702C166.275 95.9989 166.479 96.0802 166.756 96.1209C167.034 96.1615 167.4 96.1819 167.854 96.1886C168.376 96.1954 168.823 96.1141 169.203 95.9379C169.582 95.7617 169.941 95.5042 170.294 95.1654L171.066 94.42C171.297 94.2032 171.547 93.9931 171.812 93.7831C172.083 93.573 172.388 93.4036 172.733 93.2749C173.072 93.1393 173.465 93.0783 173.899 93.0851C174.488 93.0919 174.99 93.1664 175.417 93.2952C175.843 93.4239 176.169 93.6543 176.399 93.9864C176.629 94.3184 176.738 94.7792 176.724 95.3823C176.718 95.8566 176.629 96.2293 176.46 96.5139C176.291 96.7985 176.053 97.0086 175.749 97.1441C175.444 97.2796 175.084 97.3677 174.671 97.4084C174.258 97.449 173.797 97.4626 173.296 97.4558L172.604 97.4423L172.625 96.1344L173.404 96.148C173.878 96.1548 174.271 96.148 174.583 96.1141C174.902 96.0802 175.139 96.0125 175.301 95.8973C175.464 95.7821 175.545 95.6059 175.545 95.3619C175.545 95.1383 175.498 94.9621 175.389 94.8198C175.281 94.6775 175.118 94.5759 174.895 94.5081C174.671 94.4404 174.38 94.4065 174.027 94.3997C173.716 94.3997 173.465 94.4268 173.262 94.5014C173.058 94.5759 172.869 94.6843 172.699 94.8334C172.523 94.9825 172.32 95.1654 172.083 95.3823L171.229 96.1615C170.788 96.5749 170.294 96.9069 169.745 97.1644C169.203 97.4219 168.573 97.5439 167.854 97.5371C167.21 97.5236 166.655 97.4558 166.194 97.3203C165.733 97.1848 165.381 96.9544 165.137 96.6291C164.893 96.3038 164.778 95.8363 164.785 95.24H164.812Z" fill="#095BDC"/>
<path id="Vector_72" d="M164.236 103.175C164.31 102.599 164.493 102.159 164.791 101.854C165.09 101.549 165.503 101.366 166.031 101.285C166.56 101.203 167.21 101.224 167.983 101.318L173.079 101.976C173.743 102.064 174.312 102.199 174.786 102.396C175.261 102.592 175.606 102.877 175.837 103.243C176.067 103.609 176.142 104.11 176.06 104.727C175.999 105.188 175.871 105.56 175.681 105.831C175.491 106.102 175.24 106.306 174.929 106.428C174.624 106.55 174.265 106.617 173.851 106.624C173.438 106.631 172.984 106.604 172.489 106.543L167.393 105.886C166.621 105.784 165.991 105.635 165.496 105.432C165.001 105.228 164.649 104.944 164.439 104.585C164.229 104.219 164.161 103.751 164.236 103.175ZM165.401 103.324C165.367 103.575 165.415 103.771 165.544 103.921C165.672 104.07 165.896 104.192 166.221 104.28C166.546 104.368 166.994 104.449 167.556 104.524L172.74 105.194C173.431 105.283 173.953 105.296 174.298 105.228C174.644 105.161 174.841 104.944 174.888 104.578C174.935 104.198 174.807 103.921 174.495 103.744C174.183 103.568 173.682 103.433 172.991 103.345L167.8 102.674C167.231 102.599 166.777 102.565 166.445 102.572C166.106 102.572 165.862 102.64 165.699 102.755C165.537 102.87 165.442 103.06 165.408 103.317L165.401 103.324Z" fill="#095BDC"/>
<path id="Vector_73" d="M163.687 107.437L173.702 108.006L173.458 109.213L167.786 108.847L165.428 108.643V108.691L167.685 109.389L173.058 111.184L172.814 112.397L163.375 108.996L163.694 107.43L163.687 107.437Z" fill="#095BDC"/>
<path id="Vector_74" d="M162.244 113.041C162.372 112.58 162.555 112.235 162.792 111.998C163.03 111.76 163.314 111.611 163.646 111.55C163.978 111.489 164.358 111.489 164.785 111.55C165.212 111.618 165.672 111.72 166.167 111.855L169.548 112.79C170.002 112.912 170.402 113.061 170.761 113.231C171.12 113.4 171.412 113.597 171.642 113.834C171.873 114.064 172.022 114.342 172.096 114.667C172.171 114.993 172.144 115.365 172.028 115.799C171.906 116.24 171.73 116.572 171.507 116.795C171.276 117.019 171.005 117.161 170.694 117.222C170.375 117.283 170.016 117.283 169.623 117.222C169.223 117.161 168.796 117.066 168.335 116.937L166.533 116.436L167.326 113.576L165.422 113.048C164.819 112.879 164.344 112.797 164.005 112.79C163.667 112.79 163.443 112.967 163.341 113.339C163.274 113.583 163.301 113.773 163.423 113.922C163.545 114.071 163.741 114.193 164.005 114.288C164.27 114.39 164.595 114.491 164.968 114.593L165.74 114.81L165.388 116.09L164.981 115.975C164.487 115.84 164.039 115.691 163.646 115.542C163.253 115.393 162.928 115.21 162.677 114.993C162.427 114.776 162.257 114.518 162.183 114.2C162.101 113.881 162.128 113.488 162.257 113.021L162.244 113.041ZM168.207 113.841L167.773 115.399L168.993 115.738C169.379 115.847 169.704 115.921 169.968 115.968C170.24 116.016 170.45 116.009 170.612 115.948C170.775 115.887 170.883 115.745 170.944 115.521C171.012 115.271 170.992 115.06 170.87 114.898C170.748 114.735 170.558 114.6 170.301 114.484C170.043 114.369 169.731 114.268 169.372 114.173L168.2 113.848L168.207 113.841Z" fill="#095BDC"/>
<path id="Vector_75" d="M161.424 116.185L170.802 119.438L170.355 120.726L169.311 120.36C169.636 120.597 169.853 120.881 169.962 121.22C170.07 121.559 170.056 121.939 169.914 122.352C169.914 122.359 169.853 122.352 169.745 122.311C169.636 122.277 169.508 122.23 169.365 122.182C169.223 122.135 169.04 122.067 168.823 121.993C168.891 121.789 168.938 121.586 168.959 121.369C168.979 121.152 168.959 120.936 168.911 120.719C168.857 120.502 168.755 120.299 168.6 120.109L160.976 117.466L161.424 116.179V116.185Z" fill="#095BDC"/>
<path id="Vector_76" d="M159.547 120.99C159.777 120.434 160.163 120.129 160.692 120.068C161.227 120.007 161.871 120.129 162.63 120.448L163.517 120.82C163.917 120.99 164.222 121.2 164.432 121.451C164.642 121.701 164.778 121.993 164.852 122.318C164.927 122.643 164.961 123.009 164.961 123.416C164.961 123.815 164.961 124.256 164.947 124.73L165.652 125.028C166.045 125.191 166.363 125.313 166.614 125.394C166.865 125.469 167.068 125.482 167.224 125.435C167.38 125.381 167.502 125.245 167.597 125.028C167.685 124.812 167.698 124.629 167.631 124.473C167.563 124.317 167.414 124.175 167.183 124.039C166.953 123.904 166.641 123.754 166.255 123.592L165.937 123.456L166.458 122.209L166.723 122.318C167.116 122.48 167.468 122.657 167.78 122.853C168.091 123.043 168.349 123.26 168.539 123.504C168.728 123.748 168.837 124.032 168.864 124.358C168.891 124.683 168.816 125.062 168.634 125.496C168.457 125.909 168.254 126.214 168.01 126.417C167.773 126.614 167.495 126.729 167.183 126.756C166.872 126.783 166.513 126.743 166.12 126.634C165.727 126.526 165.279 126.363 164.785 126.16L158.557 123.538L159.086 122.284L159.879 122.616C159.77 122.528 159.675 122.399 159.58 122.237C159.486 122.074 159.431 121.884 159.411 121.674C159.391 121.464 159.431 121.24 159.533 120.997L159.547 120.99ZM160.414 121.769C160.319 121.986 160.312 122.209 160.387 122.426C160.461 122.643 160.556 122.806 160.671 122.921L164.154 124.385C164.154 124.012 164.134 123.707 164.107 123.456C164.08 123.206 164.026 123.002 163.951 122.84C163.877 122.677 163.761 122.535 163.612 122.42C163.463 122.304 163.253 122.189 162.996 122.081L162.149 121.722C161.634 121.505 161.241 121.39 160.976 121.39C160.712 121.39 160.529 121.511 160.414 121.769Z" fill="#095BDC"/>
<path id="Vector_77" d="M158.029 124.622L168.593 129.812L167.997 131.032L157.432 125.842L158.029 124.622Z" fill="#095BDC"/>
<path id="Vector_78" d="M156.741 127.163L167.088 132.774L166.445 133.966L156.097 128.355L156.741 127.163Z" fill="#095BDC"/>
<path id="Vector_79" d="M155.576 135.322C155.854 134.901 156.192 134.671 156.585 134.617C156.978 134.563 157.399 134.691 157.853 134.996C158.307 135.301 158.584 135.647 158.679 136.026C158.781 136.413 158.686 136.812 158.408 137.226C158.124 137.646 157.785 137.883 157.399 137.937C157.012 137.991 156.585 137.863 156.131 137.558C155.677 137.253 155.4 136.907 155.305 136.528C155.203 136.148 155.305 135.742 155.582 135.322H155.576Z" fill="#095BDC"/>
<path id="Vector_80" d="M149.342 138.405L158.354 145.784L157.487 146.841L148.481 139.462L149.348 138.405H149.342Z" fill="#095BDC"/>
<path id="Vector_81" d="M147.593 140.526L156.219 148.352L153.882 150.927L153.041 150.161L154.458 148.596L151.51 145.92L150.168 147.397L149.328 146.631L150.67 145.154L147.525 142.301L146.089 143.887L145.249 143.121L147.607 140.526H147.593Z" fill="#095BDC"/>
<path id="Vector_82" d="M144.564 143.792L152.709 152.12L151.727 153.075L144.375 145.56L142.836 147.065L142.044 146.258L144.558 143.799L144.564 143.792Z" fill="#095BDC"/>
<path id="Vector_83" d="M141.495 146.719L148.461 154.586L149.423 153.733L150.175 154.586L147.295 157.134L146.543 156.281L147.437 155.488L140.471 147.62L141.495 146.719Z" fill="#095BDC"/>
<path id="Vector_84" d="M137.585 149.823C137.957 149.531 138.31 149.362 138.649 149.315C138.987 149.267 139.313 149.315 139.631 149.464C139.95 149.613 140.261 149.836 140.573 150.134C140.885 150.433 141.197 150.785 141.515 151.192L142.213 152.079L141.169 152.899L140.438 151.964C139.936 151.32 139.53 150.9 139.218 150.697C138.906 150.494 138.601 150.514 138.296 150.751C138.086 150.921 137.971 151.09 137.944 151.266C137.924 151.442 137.985 151.652 138.127 151.89C138.269 152.127 138.479 152.432 138.764 152.784C139.082 153.191 139.435 153.489 139.807 153.672C140.18 153.855 140.614 153.977 141.095 154.031L142.166 154.16C142.477 154.2 142.803 154.261 143.128 154.343C143.453 154.424 143.785 154.553 144.104 154.736C144.422 154.919 144.72 155.183 144.984 155.522C145.344 155.982 145.608 156.423 145.777 156.836C145.947 157.25 145.974 157.649 145.859 158.036C145.743 158.422 145.452 158.801 144.984 159.167C144.612 159.459 144.266 159.628 143.941 159.675C143.616 159.723 143.304 159.675 143.006 159.52C142.708 159.37 142.409 159.147 142.118 158.849C141.827 158.551 141.522 158.205 141.217 157.805L140.79 157.263L141.82 156.457L142.301 157.073C142.592 157.446 142.85 157.744 143.074 157.968C143.297 158.191 143.507 158.334 143.69 158.388C143.88 158.442 144.07 158.388 144.259 158.246C144.436 158.11 144.544 157.954 144.585 157.785C144.625 157.615 144.605 157.419 144.51 157.209C144.422 156.992 144.266 156.748 144.049 156.47C143.86 156.226 143.67 156.05 143.487 155.935C143.304 155.82 143.101 155.745 142.87 155.705C142.64 155.664 142.376 155.616 142.057 155.569L140.912 155.4C140.316 155.318 139.74 155.142 139.198 154.885C138.655 154.627 138.161 154.214 137.72 153.651C137.321 153.143 137.029 152.669 136.846 152.228C136.663 151.788 136.616 151.368 136.717 150.975C136.819 150.582 137.104 150.195 137.578 149.83L137.585 149.823Z" fill="#095BDC"/>
<path id="Vector_85" d="M131.052 154.363C131.547 154.058 132.008 153.922 132.428 153.97C132.848 154.017 133.255 154.214 133.648 154.58C134.041 154.945 134.441 155.454 134.847 156.118L137.537 160.488C137.89 161.058 138.14 161.593 138.283 162.081C138.425 162.569 138.432 163.023 138.283 163.429C138.134 163.843 137.802 164.209 137.266 164.534C136.867 164.778 136.501 164.913 136.169 164.934C135.837 164.954 135.525 164.886 135.233 164.724C134.942 164.561 134.671 164.324 134.4 164.012C134.136 163.7 133.871 163.328 133.607 162.901L130.917 158.53C130.51 157.866 130.233 157.283 130.077 156.768C129.921 156.253 129.921 155.806 130.077 155.413C130.233 155.02 130.551 154.674 131.046 154.369L131.052 154.363ZM131.669 155.366C131.452 155.494 131.33 155.657 131.29 155.853C131.249 156.043 131.303 156.294 131.432 156.606C131.561 156.917 131.784 157.317 132.082 157.798L134.82 162.25C135.186 162.847 135.504 163.253 135.776 163.484C136.047 163.714 136.338 163.727 136.65 163.531C136.975 163.328 137.11 163.05 137.049 162.698C136.988 162.345 136.778 161.871 136.413 161.274L133.668 156.816C133.37 156.328 133.112 155.955 132.896 155.698C132.679 155.44 132.476 155.284 132.286 155.237C132.096 155.189 131.886 155.23 131.662 155.366H131.669Z" fill="#095BDC"/>
<path id="Vector_86" d="M127.393 156.626L133.248 164.771L132.157 165.34L128.87 160.698L127.542 158.74L127.502 158.76L128.383 160.956L130.368 166.262L129.27 166.831L125.977 157.358L127.393 156.619V156.626Z" fill="#095BDC"/>
<path id="Vector_87" d="M122.135 159.025C122.569 158.835 122.955 158.76 123.287 158.794C123.619 158.828 123.91 158.957 124.175 159.181C124.432 159.397 124.669 159.696 124.886 160.068C125.103 160.441 125.313 160.861 125.516 161.335L126.912 164.554C127.102 164.981 127.237 165.388 127.332 165.774C127.427 166.16 127.454 166.512 127.42 166.838C127.386 167.163 127.265 167.454 127.061 167.719C126.858 167.976 126.546 168.2 126.133 168.376C125.72 168.559 125.347 168.633 125.028 168.593C124.71 168.559 124.425 168.437 124.181 168.227C123.937 168.017 123.707 167.739 123.504 167.393C123.3 167.048 123.104 166.655 122.914 166.214L122.169 164.5L124.886 163.321L124.1 161.505C123.849 160.929 123.619 160.509 123.409 160.244C123.199 159.98 122.921 159.919 122.569 160.075C122.338 160.177 122.203 160.319 122.169 160.509C122.135 160.698 122.162 160.922 122.25 161.193C122.338 161.464 122.467 161.776 122.616 162.135L122.935 162.867L121.715 163.395L121.545 163.009C121.342 162.535 121.173 162.101 121.044 161.695C120.915 161.295 120.854 160.929 120.861 160.597C120.861 160.265 120.969 159.973 121.166 159.709C121.362 159.445 121.681 159.221 122.128 159.025H122.135ZM125.266 164.161L123.788 164.805L124.29 165.964C124.446 166.329 124.595 166.628 124.723 166.865C124.852 167.102 124.994 167.265 125.144 167.353C125.293 167.441 125.476 167.434 125.686 167.346C125.923 167.244 126.072 167.095 126.119 166.899C126.174 166.702 126.16 166.472 126.079 166.194C125.997 165.916 125.889 165.618 125.74 165.279L125.252 164.161H125.266Z" fill="#095BDC"/>
<path id="Vector_88" d="M119.187 160.366L122.562 169.704L121.281 170.165L120.908 169.128C120.929 169.528 120.847 169.88 120.651 170.178C120.454 170.477 120.149 170.7 119.736 170.856C119.729 170.856 119.702 170.809 119.662 170.693C119.621 170.578 119.574 170.456 119.519 170.321C119.465 170.178 119.404 170.002 119.323 169.779C119.519 169.704 119.709 169.609 119.892 169.494C120.075 169.379 120.231 169.223 120.366 169.047C120.502 168.871 120.59 168.661 120.651 168.423L117.913 160.834L119.194 160.373L119.187 160.366Z" fill="#095BDC"/>
<path id="Vector_89" d="M114.261 161.932C114.837 161.762 115.318 161.871 115.698 162.244C116.084 162.616 116.389 163.199 116.626 163.992L116.897 164.92C117.019 165.34 117.046 165.706 116.985 166.025C116.924 166.343 116.782 166.635 116.578 166.899C116.368 167.163 116.111 167.421 115.799 167.671C115.487 167.922 115.142 168.2 114.769 168.491L114.986 169.23C115.101 169.636 115.21 169.962 115.311 170.206C115.406 170.45 115.528 170.619 115.664 170.707C115.799 170.795 115.982 170.809 116.212 170.741C116.436 170.673 116.585 170.572 116.667 170.416C116.741 170.267 116.761 170.057 116.721 169.792C116.68 169.528 116.606 169.196 116.484 168.783L116.389 168.451L117.683 168.078L117.764 168.349C117.879 168.756 117.968 169.142 118.015 169.508C118.062 169.874 118.056 170.206 117.988 170.504C117.92 170.802 117.764 171.066 117.534 171.297C117.297 171.52 116.951 171.703 116.504 171.832C116.07 171.954 115.704 171.988 115.399 171.927C115.094 171.866 114.83 171.724 114.613 171.5C114.396 171.276 114.2 170.971 114.037 170.599C113.875 170.219 113.719 169.779 113.57 169.264L111.693 162.772L113.001 162.393L113.238 163.219C113.238 163.084 113.272 162.928 113.346 162.752C113.414 162.576 113.522 162.42 113.671 162.271C113.82 162.122 114.024 162.013 114.274 161.939L114.261 161.932ZM114.193 163.091C113.963 163.158 113.787 163.287 113.665 163.484C113.543 163.68 113.475 163.856 113.461 164.012L114.512 167.644C114.796 167.407 115.027 167.197 115.203 167.021C115.379 166.845 115.508 166.675 115.589 166.513C115.67 166.35 115.704 166.174 115.704 165.984C115.704 165.794 115.657 165.564 115.582 165.293L115.325 164.412C115.169 163.877 115.013 163.497 114.85 163.294C114.688 163.084 114.471 163.023 114.2 163.097L114.193 163.091Z" fill="#095BDC"/>
<path id="Vector_90" d="M110.487 163.03L113.102 174.508L111.781 174.807L109.165 163.328L110.487 163.03Z" fill="#095BDC"/>
<path id="Vector_91" d="M107.702 163.633L109.85 175.206L108.515 175.457L106.367 163.883L107.702 163.633Z" fill="#095BDC"/>
<path id="Vector_92" d="M100.614 167.861C101.115 167.814 101.508 167.929 101.799 168.2C102.084 168.471 102.253 168.877 102.301 169.426C102.348 169.968 102.253 170.402 102.023 170.721C101.786 171.039 101.42 171.222 100.918 171.263C100.41 171.31 100.017 171.195 99.7327 170.924C99.4481 170.653 99.2787 170.246 99.2312 169.697C99.1838 169.148 99.2787 168.722 99.5158 168.403C99.753 168.085 100.119 167.902 100.627 167.861H100.614Z" fill="#095BDC"/>
<path id="Vector_93" d="M62.5853 129.717C56.0192 129.717 51.3368 127.84 48.5314 124.08C45.726 120.319 44.3234 114.999 44.3234 108.122V103.473C44.3234 99.9291 44.7435 97.056 45.5973 94.8605C46.4443 92.665 48.0029 90.9845 50.2797 89.819C48.1384 88.9448 46.6137 87.4812 45.7125 85.4348C44.8113 83.3816 44.364 80.8337 44.364 77.7912V75.9616C44.364 69.7681 45.9158 65.2619 49.0261 62.443C52.1364 59.6241 56.6561 58.2146 62.5853 58.2146C68.5145 58.2146 73.224 59.6647 76.2462 62.5649C79.2684 65.4652 80.7728 70.1137 80.7728 76.524C80.7728 79.885 80.373 82.7039 79.5801 84.9807C78.7873 87.2576 77.2085 88.8974 74.8571 89.9071C77.3711 91.2013 78.9974 92.9022 79.7428 95.0096C80.4882 97.117 80.8541 99.9427 80.8541 103.487V108.135C80.8541 115.02 79.4514 120.339 76.646 124.093C73.8407 127.854 69.1583 129.731 62.5921 129.731L62.5853 129.717ZM62.5853 115.901C65.1264 115.901 66.3936 113.848 66.3936 109.748V103.358C66.3936 101.244 66.109 99.5835 65.5398 98.3977C64.9706 97.2119 63.988 96.6088 62.5785 96.6088C61.1691 96.6088 60.1323 97.2051 59.6038 98.3977C59.0752 99.5903 58.811 101.244 58.811 103.358V109.748C58.811 113.854 60.0713 115.901 62.5853 115.901ZM62.5853 83.9372C65.0451 83.9372 66.2784 81.7146 66.2784 77.2694C66.2784 75.7854 66.0209 74.3827 65.5059 73.0613C64.9909 71.74 64.0151 71.0759 62.5853 71.0759C61.1555 71.0759 60.1865 71.74 59.6648 73.0613C59.1498 74.3827 58.8923 75.7854 58.8923 77.2694C58.8923 81.7146 60.1256 83.9372 62.5853 83.9372Z" fill="#095BDC"/>
<path id="Vector_94" d="M84.8589 128.925V117.094H99.0754V128.925H84.8589Z" fill="#095BDC"/>
<path id="Vector_95" d="M121.349 129.955C115.975 129.955 111.591 128.627 108.189 125.963C104.788 123.3 103.087 119.221 103.087 113.712V103.31H117.622V109.307C117.622 110.554 117.696 111.754 117.839 112.919C117.981 114.085 118.32 115.04 118.848 115.779C119.377 116.517 120.21 116.89 121.349 116.89C122.86 116.89 123.849 116.382 124.324 115.359C124.798 114.342 125.035 113.034 125.035 111.449V97.7133C125.035 96.5749 124.961 95.4501 124.818 94.3388C124.676 93.2274 124.351 92.2991 123.843 91.5605C123.341 90.8219 122.535 90.4492 121.423 90.4492C118.774 90.4492 117.453 92.3669 117.453 96.209H104.625V59.0481H137.937V72.1533H117.886V81.9992C118.577 81.1522 119.506 80.4068 120.685 79.7563C121.864 79.1058 123.246 78.7805 124.832 78.7805C128.01 78.7805 130.592 79.3904 132.597 80.6101C134.596 81.8298 136.128 83.5239 137.205 85.6923C138.276 87.8607 139.015 90.3746 139.428 93.2342C139.841 96.0938 140.045 99.1634 140.045 102.443C140.045 106.651 139.828 110.446 139.387 113.82C138.947 117.195 138.093 120.088 136.805 122.494C135.518 124.906 133.641 126.75 131.168 128.03C128.694 129.311 125.415 129.955 121.342 129.955H121.349Z" fill="#095BDC"/>
</g>
<defs>
<clipPath id="clip0_38_9237">
<rect width="188" height="188" fill="white"/>
</clipPath>
</defs>
</svg>
