<svg width="755" height="91" viewBox="0 0 755 91" fill="none" xmlns="http://www.w3.org/2000/svg">
<g clip-path="url(#clip0_322_450)">
<path d="M160.9 85.7501V10.1201H175.51V85.7401H160.9V85.7501Z" fill="white"/>
<path d="M181.53 85.7501V10.1201H211.78V24.7301H196.91V39.4701H211.18V53.6901H196.91V71.0101H212.77V85.7501H181.53Z" fill="white"/>
<path d="M217.75 85.7501V10.1201H232.87V72.8501H248.42V85.7401H217.74L217.75 85.7501Z" fill="white"/>
<path d="M253.94 85.7499V24.6499H244.96V10.1299H278.05V24.6499H269.07V85.7499H253.95H253.94Z" fill="white"/>
<path d="M300.21 86.4399C293.31 86.4399 288.33 84.7199 285.28 81.2799C282.23 77.8399 280.7 72.3699 280.7 64.8699V57.4799H295.65V66.9299C295.65 68.6799 295.91 70.0499 296.44 71.0299C296.97 72.0199 297.89 72.5099 299.21 72.5099C300.53 72.5099 301.54 72.1099 302.07 71.3099C302.6 70.5099 302.86 69.1899 302.86 67.3599C302.86 65.0399 302.63 63.0999 302.17 61.5399C301.71 59.9799 300.92 58.4899 299.79 57.0699C298.66 55.6499 297.09 53.9999 295.08 52.1099L288.29 45.6599C283.22 40.8799 280.68 35.4099 280.68 29.2499C280.68 23.0899 282.18 17.8899 285.17 14.5099C288.16 11.1299 292.5 9.43994 298.17 9.43994C305.1 9.43994 310.02 11.2899 312.93 14.9799C315.84 18.6799 317.29 24.2899 317.29 31.8199H301.91V26.6199C301.91 25.5899 301.62 24.7899 301.03 24.2099C300.44 23.6399 299.65 23.3499 298.65 23.3499C297.45 23.3499 296.57 23.6899 296.01 24.3599C295.45 25.0299 295.17 25.8999 295.17 26.9599C295.17 28.0199 295.46 29.1699 296.03 30.3999C296.6 31.6299 297.73 33.0499 299.42 34.6499L308.14 43.0299C309.89 44.6899 311.49 46.4499 312.95 48.2899C314.41 50.1299 315.59 52.2899 316.47 54.7399C317.36 57.1899 317.8 60.1799 317.8 63.6999C317.8 70.7999 316.49 76.3699 313.87 80.3899C311.25 84.4199 306.69 86.4299 300.18 86.4299L300.21 86.4399Z" fill="white"/>
<path d="M361.1 86.4402C355.63 86.4402 351.22 84.7402 347.89 81.3302C344.55 77.9202 342.88 73.1502 342.88 67.0202V32.1302C342.88 24.8002 344.33 19.1802 347.24 15.2902C350.15 11.3902 354.88 9.4502 361.44 9.4502C365.02 9.4502 368.21 10.1102 371 11.4302C373.79 12.7502 375.99 14.7202 377.6 17.3402C379.2 19.9602 380.01 23.2602 380.01 27.2402V40.3002H364.97V29.1302C364.97 26.8702 364.68 25.3402 364.11 24.5502C363.54 23.7602 362.65 23.3702 361.45 23.3702C360.05 23.3702 359.1 23.8802 358.61 24.9002C358.12 25.9202 357.88 27.2702 357.88 28.9602V66.8202C357.88 68.9102 358.19 70.3902 358.8 71.2502C359.42 72.1102 360.3 72.5402 361.44 72.5402C362.73 72.5402 363.64 72.0102 364.17 70.9502C364.7 69.8902 364.96 68.5202 364.96 66.8302V53.2102H380.17V67.5202C380.17 74.1702 378.49 78.9902 375.14 81.9802C371.79 84.9702 367.1 86.4702 361.09 86.4702L361.1 86.4402Z" fill="white"/>
<path d="M403.25 86.4402C397.21 86.4402 392.59 84.6102 389.39 80.9602C386.2 77.3102 384.6 72.0302 384.6 65.1302V29.2002C384.6 22.7302 386.18 17.8102 389.35 14.4602C392.52 11.1102 397.15 9.43018 403.25 9.43018C409.35 9.43018 413.98 11.1102 417.15 14.4602C420.32 17.8102 421.9 22.7202 421.9 29.2002V65.1202C421.9 72.0202 420.3 77.3002 417.11 80.9502C413.92 84.6002 409.3 86.4302 403.25 86.4302V86.4402ZM403.38 72.5102C405.67 72.5102 406.82 70.2902 406.82 65.8502V28.9402C406.82 25.2202 405.7 23.3502 403.47 23.3502C400.95 23.3502 399.69 25.2602 399.69 29.0602V65.9302C399.69 68.2802 399.98 69.9602 400.55 70.9802C401.12 72.0002 402.07 72.5102 403.39 72.5102H403.38Z" fill="white"/>
<path d="M446.05 86.4402C440.01 86.4402 435.39 84.6102 432.19 80.9602C429 77.3102 427.4 72.0302 427.4 65.1302V29.2002C427.4 22.7302 428.98 17.8102 432.15 14.4602C435.32 11.1102 439.95 9.43018 446.05 9.43018C452.15 9.43018 456.78 11.1102 459.95 14.4602C463.12 17.8102 464.7 22.7202 464.7 29.2002V65.1202C464.7 72.0202 463.1 77.3002 459.91 80.9502C456.72 84.6002 452.1 86.4302 446.05 86.4302V86.4402ZM446.18 72.5102C448.47 72.5102 449.62 70.2902 449.62 65.8502V28.9402C449.62 25.2202 448.5 23.3502 446.27 23.3502C443.75 23.3502 442.49 25.2602 442.49 29.0602V65.9302C442.49 68.2802 442.78 69.9602 443.35 70.9802C443.92 72.0002 444.87 72.5102 446.19 72.5102H446.18Z" fill="white"/>
<path d="M470.8 85.7501V10.1201H485.75V40.4101L492.8 10.1201H508.01L499.55 44.7501L509.78 85.7401H494.1L485.85 49.1301V85.7401H470.81L470.8 85.7501Z" fill="white"/>
<path d="M511.66 85.7501V10.1201H526.27V85.7401H511.66V85.7501Z" fill="white"/>
<path d="M532.29 85.7501V10.1201H547.84L554.8 46.3401V10.1201H569.41V85.7401H554.63L547.07 47.9301V85.7401H532.29V85.7501Z" fill="white"/>
<path d="M591.71 86.4399C580.91 86.4399 575.51 78.7099 575.51 63.2399V30.6199C575.51 16.4999 581.7 9.43994 594.07 9.43994C599.17 9.43994 603.08 10.4599 605.8 12.5099C608.52 14.5599 610.4 17.5499 611.43 21.4699C612.46 25.3899 612.98 30.1799 612.98 35.8199H598.2V29.1199C598.2 27.4899 597.98 26.1199 597.53 25.0199C597.09 23.9199 596.16 23.3699 594.76 23.3699C593.01 23.3699 591.86 23.9599 591.3 25.1299C590.74 26.2999 590.46 27.5899 590.46 28.9999V65.6499C590.46 67.6799 590.72 69.3399 591.25 70.6099C591.78 71.8899 592.82 72.5199 594.37 72.5199C595.92 72.5199 597.04 71.8799 597.57 70.6099C598.1 69.3399 598.36 67.6499 598.36 65.5599V54.7699H594.32V41.7099H612.8V85.7499H606.74L604.16 79.3899C601.52 84.0899 597.37 86.4399 591.7 86.4399H591.71Z" fill="white"/>
<path d="M639.41 85.7501V10.1201H654.53V72.8501H670.08V85.7401H639.4L639.41 85.7501Z" fill="white"/>
<path d="M672.32 85.7499L679.62 10.1299H705.27L712.45 85.7499H698.14L697.07 73.5499H687.96L687.01 85.7499H672.31H672.32ZM689.04 61.4699H695.92L692.61 23.0099H691.92L689.04 61.4699Z" fill="white"/>
<path d="M717.1 85.7501V10.1201H737.6C743.1 10.1201 747.1 11.4601 749.61 14.1401C752.12 16.8201 753.37 21.2401 753.37 27.4001V30.7101C753.37 34.2601 752.73 37.1401 751.46 39.3501C750.18 41.5601 748.24 43.0001 745.64 43.6901C749.05 44.5501 751.33 46.5601 752.49 49.7301C753.65 52.9001 754.23 56.7601 754.23 61.3101C754.23 66.2101 753.77 70.4901 752.85 74.1601C751.93 77.8301 750.27 80.6801 747.87 82.7101C745.46 84.7401 742.04 85.7601 737.6 85.7601H717.1V85.7501ZM731.88 38.6101H734.97C736.37 38.6101 737.28 38.0701 737.68 36.9801C738.08 35.8901 738.28 34.5901 738.28 33.0701V25.4601C738.28 23.0301 737.21 21.8101 735.06 21.8101H731.88V38.6101ZM733.38 72.4301C737.3 72.4301 739.27 70.5701 739.27 66.8401V57.3901C739.27 55.2401 738.95 53.5401 738.3 52.3001C737.65 51.0601 736.44 50.4301 734.67 50.4301H731.88V72.3401C732.51 72.4001 733.01 72.4301 733.38 72.4301Z" fill="white"/>
<path d="M133.35 27.6799C129 21.0799 122.18 16.9899 114.47 15.8899C110.73 15.3599 102.55 16.2699 99.06 17.7399C98.94 17.7899 98.31 18.1499 98.3 18.1999C99.64 20.8399 101.84 23.5799 104.2 25.3999C107.59 28.0199 110.52 28.2599 114.65 28.0899C115.48 28.0599 115.43 28.4699 114.74 28.6399C109.16 30.0199 103.88 28.1399 100.03 24.0599C95.4 19.1599 94.11 12.8299 88.71 8.27994C73.09 -4.87006 41.05 -3.16006 34.61 19.1099C33.38 23.3699 33.49 31.1299 34.61 35.4099C34.69 35.7099 35.43 37.3499 35.32 37.4499C35.14 37.4299 34.98 37.5499 34.87 37.3499C34.8 37.2199 34.57 36.5299 34.48 36.2799C32.88 32.1099 32.4 26.7899 32.49 22.3299C32.5 21.7899 32.99 20.9399 32.12 20.7799C31.4 20.6399 29.52 20.7299 28.69 20.7699C10.73 21.5399 -2.65001 35.9399 0.449988 54.0699C2.80999 67.8499 14.63 75.0699 27.63 76.4799C27.98 76.5199 29.55 76.5599 29.65 76.2499C29.79 75.8099 29.65 73.6399 29.65 72.9799C29.65 72.4699 28.09 73.0299 27.79 73.0499C23.58 73.3799 20.19 72.1399 17.74 68.6599C17.41 68.1899 16.77 67.2699 16.84 66.7299C16.92 66.1599 17.46 67.0699 17.5 67.1099C18.85 68.3399 20.3 69.6999 22.05 70.2999C23.97 70.9599 25.7 70.9899 27.65 70.6799C28.16 70.5999 29.21 70.8599 29.52 70.4599C29.71 70.2199 29.73 67.7399 29.65 67.3199C29.61 67.1199 29.54 66.9699 29.36 66.8699C24.48 65.8499 20.22 63.2499 17.62 58.9499C16.07 56.3799 14.95 52.4199 14.62 49.4399C14.55 48.8299 14.64 48.1999 14.61 47.5899H15.06C15.04 47.9299 15.09 48.2599 15.18 48.5799C15.93 51.2299 16.71 53.8999 18.13 56.3499C20.67 60.7299 25.31 64.0399 30.32 64.8599C37.4 61.0099 45.01 58.2499 52.85 56.4099C53.43 56.2699 55.52 56.3799 55.25 55.2999C55.18 55.0199 54.74 54.6299 54.57 54.3299C52.82 51.0199 51.45 46.5299 51.7 42.7599C51.75 41.9599 52.12 41.1399 52 40.2999H52.45C52.45 40.6099 52.42 40.9299 52.49 41.2299C53.84 47.7499 55.61 53.3699 60.21 58.4899C70.76 70.2299 85.66 73.3799 100.09 67.4299C110.45 63.1599 113.34 57.4699 116.84 47.2599C116.91 47.0599 117.07 46.4399 117.39 46.5499C117.39 46.9199 117.4 47.2799 117.37 47.6499C116.78 54.2699 113.75 60.9999 108.49 65.2999C108.19 65.5499 106.37 66.6599 106.37 66.8699V69.1799C107.33 69.2699 108.15 69.1199 109.05 68.8099C111.49 67.9699 114.25 66.1299 115.66 63.9499C115.84 63.6699 116.23 62.2199 116.64 62.6299C116.53 64.6099 115.47 66.6299 114.12 68.0699C112.9 69.3599 111.6 70.0799 109.97 70.7799L106.5 71.6299C105.89 73.3299 106.78 73.3699 108.23 73.2099C114.81 72.4899 122.4 69.8299 127.66 65.6899C139.29 56.5399 141.41 39.9399 133.35 27.6899V27.6799Z" fill="white"/>
<path d="M103.35 68.32C102.36 68.55 100.61 69.63 99.5399 70.03C88.4899 74.11 76.4299 73.16 66.4599 66.7C62.7199 64.28 60.5899 61.79 57.5699 58.69C57.3699 58.48 57.2699 58.13 56.9599 58.04C56.6599 57.95 55.8399 57.97 55.5099 58.02C49.0699 58.9 39.1399 62.51 33.3299 65.62C32.6999 65.96 31.7099 66.29 31.7399 67.15L31.7799 90.2C31.8199 90.32 31.9299 90.48 32.0499 90.54C32.5399 90.77 34.8799 89.33 35.4899 89.06C37.7799 88.04 40.4099 86.93 42.6799 86.12C50.6099 83.29 58.8099 81.74 67.2699 81.37C71.2699 81.2 76.0399 81.78 79.9499 82.4C87.2599 83.56 94.1099 85.88 100.84 89.06C101.48 89.36 103.19 90.49 103.76 90.47C103.92 90.47 104.12 90.46 104.22 90.31L104.15 68.34C103.89 68.21 103.63 68.25 103.36 68.32H103.35Z" fill="white"/>
</g>
<defs>
<clipPath id="clip0_322_450">
<rect width="754.22" height="90.56" fill="white"/>
</clipPath>
</defs>
</svg>
