<svg width="238" height="80" viewBox="0 0 238 80" fill="none" xmlns="http://www.w3.org/2000/svg">
<g clip-path="url(#clip0_322_487)">
<path d="M144.41 78.2401V2.62012H159.02V78.2401H144.41Z" fill="white"/>
<path d="M182.66 78.9299C177.19 78.9299 172.78 77.2299 169.45 73.8199C166.11 70.4099 164.44 65.6399 164.44 59.5099V24.6199C164.44 17.2899 165.89 11.6699 168.8 7.77994C171.71 3.87994 176.44 1.93994 183 1.93994C186.58 1.93994 189.77 2.59994 192.56 3.91994C195.35 5.23994 197.55 7.20994 199.16 9.82994C200.76 12.4499 201.57 15.7499 201.57 19.7299V32.7899H186.53V21.6199C186.53 19.3599 186.24 17.8299 185.67 17.0399C185.1 16.2499 184.21 15.8599 183.01 15.8599C181.61 15.8599 180.66 16.3699 180.17 17.3899C179.68 18.4099 179.44 19.7599 179.44 21.4499V59.3099C179.44 61.3999 179.75 62.8799 180.36 63.7399C180.98 64.5999 181.86 65.0299 183 65.0299C184.29 65.0299 185.2 64.4999 185.73 63.4399C186.26 62.3799 186.52 61.0099 186.52 59.3199V45.6999H201.73V60.0099C201.73 66.6599 200.05 71.4799 196.7 74.4699C193.35 77.4599 188.66 78.9599 182.65 78.9599L182.66 78.9299Z" fill="white"/>
<path d="M206.76 78.2401V2.62012H221.88V65.3501H237.43V78.2401H206.75H206.76Z" fill="white"/>
<path d="M116.68 24.2201C112.88 18.4401 106.91 14.8701 100.16 13.9001C96.89 13.4301 89.73 14.2301 86.68 15.5201C86.58 15.5601 86.03 15.8801 86.02 15.9301C87.19 18.2401 89.12 20.6401 91.18 22.2301C94.14 24.5201 96.71 24.7401 100.32 24.5901C101.04 24.5601 101.01 24.9201 100.4 25.0701C95.52 26.2801 90.9 24.6301 87.53 21.0601C83.48 16.7701 82.35 11.2301 77.62 7.25007C63.95 -4.24993 35.91 -2.75993 30.28 16.7301C29.2 20.4601 29.3 27.2501 30.28 30.9901C30.35 31.2501 31 32.6901 30.9 32.7801C30.74 32.7601 30.6 32.8701 30.51 32.6901C30.45 32.5701 30.25 31.9701 30.16 31.7601C28.76 28.1101 28.34 23.4501 28.42 19.5501C28.42 19.0801 28.86 18.3401 28.1 18.1901C27.47 18.0701 25.82 18.1501 25.1 18.1901C9.38999 18.8401 -2.32001 31.4501 0.389994 47.3101C2.44999 59.3601 12.8 65.6801 24.17 66.9201C24.48 66.9501 25.85 66.9901 25.94 66.7201C26.06 66.3301 25.94 64.4401 25.94 63.8501C25.94 63.4101 24.57 63.8901 24.31 63.9101C20.62 64.2001 17.66 63.1201 15.52 60.0701C15.23 59.6601 14.67 58.8501 14.74 58.3801C14.81 57.8801 15.28 58.6801 15.32 58.7101C16.5 59.7801 17.77 60.9801 19.3 61.5101C20.98 62.0901 22.5 62.1201 24.2 61.8401C24.65 61.7701 25.56 62.0001 25.84 61.6501C26 61.4401 26.02 59.2701 25.95 58.9101C25.92 58.7401 25.85 58.6001 25.69 58.5101C21.42 57.6201 17.69 55.3501 15.42 51.5801C14.06 49.3301 13.08 45.8601 12.8 43.2601C12.74 42.7301 12.82 42.1701 12.8 41.6401H13.19C13.18 41.9401 13.22 42.2301 13.3 42.5101C13.96 44.8301 14.64 47.1701 15.88 49.3101C18.1 53.1401 22.16 56.0401 26.54 56.7501C32.73 53.3901 39.39 50.9601 46.25 49.3601C46.76 49.2401 48.59 49.3401 48.35 48.3901C48.29 48.1501 47.9 47.8101 47.76 47.5401C46.23 44.6401 45.03 40.7101 45.25 37.4201C45.3 36.7201 45.61 36.0001 45.51 35.2701H45.9C45.9 35.5401 45.88 35.8201 45.93 36.0901C47.11 41.7901 48.66 46.7101 52.68 51.1901C61.91 61.4601 74.94 64.2201 87.58 59.0201C96.65 55.2901 99.17 50.3101 102.24 41.3701C102.3 41.2001 102.44 40.6501 102.72 40.7501C102.72 41.0701 102.73 41.3901 102.7 41.7101C102.19 47.5001 99.54 53.3901 94.93 57.1601C94.67 57.3801 93.08 58.3501 93.08 58.5301V60.5501C93.92 60.6301 94.64 60.5001 95.43 60.2301C97.56 59.4901 99.98 57.8801 101.21 55.9801C101.37 55.7401 101.71 54.4701 102.07 54.8201C101.97 56.5501 101.05 58.3201 99.86 59.5801C98.79 60.7101 97.66 61.3401 96.23 61.9501L93.2 62.7001C92.67 64.1901 93.45 64.2201 94.72 64.0901C100.48 63.4601 107.12 61.1301 111.72 57.5101C121.9 49.5101 123.75 34.9801 116.7 24.2601L116.68 24.2201Z" fill="white"/>
<path d="M90.43 59.7801C89.57 59.9801 88.04 60.9301 87.1 61.2701C77.43 64.8401 66.88 64.0101 58.15 58.3601C54.88 56.2401 53.01 54.0601 50.37 51.3501C50.19 51.1701 50.11 50.8601 49.83 50.7801C49.57 50.7001 48.85 50.7201 48.56 50.7601C42.93 51.5301 34.23 54.6901 29.15 57.4101C28.6 57.7101 27.74 58.0001 27.76 58.7501L27.79 78.9201C27.82 79.0301 27.93 79.1701 28.03 79.2101C28.46 79.4201 30.51 78.1501 31.04 77.9101C33.04 77.0201 35.35 76.0501 37.33 75.3401C44.27 72.8601 51.45 71.5101 58.85 71.1901C62.35 71.0401 66.53 71.5501 69.95 72.1001C76.35 73.1201 82.34 75.1401 88.23 77.9301C88.79 78.1901 90.29 79.1801 90.79 79.1601C90.93 79.1601 91.1 79.1501 91.19 79.0201L91.13 59.7901C90.9 59.6801 90.68 59.7101 90.44 59.7701L90.43 59.7801Z" fill="white"/>
</g>
<defs>
<clipPath id="clip0_322_487">
<rect width="237.44" height="79.24" fill="white"/>
</clipPath>
</defs>
</svg>
