<svg width="24" height="24" viewBox="0 0 24 24" fill="none" xmlns="http://www.w3.org/2000/svg">
<path d="M5.07175 21.2034C4.44209 21.2034 3.9055 20.9816 3.462 20.5381C3.0185 20.0946 2.79675 19.558 2.79675 18.9284V5.07188C2.79675 4.44221 3.0185 3.90562 3.462 3.46212C3.9055 3.01862 4.44209 2.79688 5.07175 2.79688H18.9283C19.5579 2.79688 20.0945 3.01862 20.538 3.46212C20.9815 3.90562 21.2033 4.44221 21.2033 5.07188V18.9284C21.2033 19.558 20.9815 20.0946 20.538 20.5381C20.0945 20.9816 19.5579 21.2034 18.9283 21.2034H5.07175ZM5.07175 17.9284C5.07175 18.4807 5.51947 18.9284 6.07175 18.9284H17.9283C18.4805 18.9284 18.9283 18.4807 18.9283 17.9284V6.07188C18.9283 5.51959 18.4805 5.07188 17.9283 5.07188H6.07175C5.51947 5.07188 5.07175 5.51959 5.07175 6.07188V17.9284Z" fill="#F7F3E9"/>
<rect x="9" y="9" width="6" height="6" rx="3" stroke="#F7F3E9" stroke-width="2"/>
<rect x="15.5" y="6.5" width="2" height="2" rx="1" fill="#F7F3E9"/>
</svg>
